G04 #@! TF.GenerationSoftware,KiCad,Pcbnew,(5.1.7)-1*
G04 #@! TF.CreationDate,2021-02-25T00:30:01+00:00*
G04 #@! TF.ProjectId,LedGateController,4c656447-6174-4654-936f-6e74726f6c6c,rev?*
G04 #@! TF.SameCoordinates,Original*
G04 #@! TF.FileFunction,Legend,Bot*
G04 #@! TF.FilePolarity,Positive*
%FSLAX46Y46*%
G04 Gerber Fmt 4.6, Leading zero omitted, Abs format (unit mm)*
G04 Created by KiCad (PCBNEW (5.1.7)-1) date 2021-02-25 00:30:01*
%MOMM*%
%LPD*%
G01*
G04 APERTURE LIST*
G04 #@! TA.AperFunction,Profile*
%ADD10C,0.050000*%
G04 #@! TD*
%ADD11C,0.300000*%
%ADD12C,0.160000*%
%ADD13C,0.600000*%
G04 APERTURE END LIST*
D10*
X0Y0D02*
X0Y-25010000D01*
X0Y0D02*
X80000000Y0D01*
D11*
X78428571Y-12678571D02*
X78428571Y-13750000D01*
X78500000Y-13964285D01*
X78642857Y-14107142D01*
X78857142Y-14178571D01*
X79000000Y-14178571D01*
X77000000Y-14178571D02*
X77714285Y-14178571D01*
X77714285Y-12678571D01*
X75642857Y-14035714D02*
X75714285Y-14107142D01*
X75928571Y-14178571D01*
X76071428Y-14178571D01*
X76285714Y-14107142D01*
X76428571Y-13964285D01*
X76500000Y-13821428D01*
X76571428Y-13535714D01*
X76571428Y-13321428D01*
X76500000Y-13035714D01*
X76428571Y-12892857D01*
X76285714Y-12750000D01*
X76071428Y-12678571D01*
X75928571Y-12678571D01*
X75714285Y-12750000D01*
X75642857Y-12821428D01*
X74571428Y-12678571D02*
X74571428Y-13750000D01*
X74642857Y-13964285D01*
X74785714Y-14107142D01*
X75000000Y-14178571D01*
X75142857Y-14178571D01*
X73142857Y-14178571D02*
X73857142Y-14178571D01*
X73857142Y-12678571D01*
X71785714Y-14035714D02*
X71857142Y-14107142D01*
X72071428Y-14178571D01*
X72214285Y-14178571D01*
X72428571Y-14107142D01*
X72571428Y-13964285D01*
X72642857Y-13821428D01*
X72714285Y-13535714D01*
X72714285Y-13321428D01*
X72642857Y-13035714D01*
X72571428Y-12892857D01*
X72428571Y-12750000D01*
X72214285Y-12678571D01*
X72071428Y-12678571D01*
X71857142Y-12750000D01*
X71785714Y-12821428D01*
X70714285Y-12678571D02*
X70714285Y-13750000D01*
X70785714Y-13964285D01*
X70928571Y-14107142D01*
X71142857Y-14178571D01*
X71285714Y-14178571D01*
X69285714Y-14178571D02*
X70000000Y-14178571D01*
X70000000Y-12678571D01*
X67928571Y-14035714D02*
X68000000Y-14107142D01*
X68214285Y-14178571D01*
X68357142Y-14178571D01*
X68571428Y-14107142D01*
X68714285Y-13964285D01*
X68785714Y-13821428D01*
X68857142Y-13535714D01*
X68857142Y-13321428D01*
X68785714Y-13035714D01*
X68714285Y-12892857D01*
X68571428Y-12750000D01*
X68357142Y-12678571D01*
X68214285Y-12678571D01*
X68000000Y-12750000D01*
X67928571Y-12821428D01*
X66857142Y-12678571D02*
X66857142Y-13750000D01*
X66928571Y-13964285D01*
X67071428Y-14107142D01*
X67285714Y-14178571D01*
X67428571Y-14178571D01*
X65428571Y-14178571D02*
X66142857Y-14178571D01*
X66142857Y-12678571D01*
X64071428Y-14035714D02*
X64142857Y-14107142D01*
X64357142Y-14178571D01*
X64499999Y-14178571D01*
X64714285Y-14107142D01*
X64857142Y-13964285D01*
X64928571Y-13821428D01*
X64999999Y-13535714D01*
X64999999Y-13321428D01*
X64928571Y-13035714D01*
X64857142Y-12892857D01*
X64714285Y-12750000D01*
X64499999Y-12678571D01*
X64357142Y-12678571D01*
X64142857Y-12750000D01*
X64071428Y-12821428D01*
D12*
X66200000Y-4265904D02*
X66152380Y-4170666D01*
X66152380Y-4027809D01*
X66200000Y-3884952D01*
X66295238Y-3789714D01*
X66390476Y-3742095D01*
X66580952Y-3694476D01*
X66723809Y-3694476D01*
X66914285Y-3742095D01*
X67009523Y-3789714D01*
X67104761Y-3884952D01*
X67152380Y-4027809D01*
X67152380Y-4123047D01*
X67104761Y-4265904D01*
X67057142Y-4313523D01*
X66723809Y-4313523D01*
X66723809Y-4123047D01*
X67152380Y-4742095D02*
X66152380Y-4742095D01*
X67152380Y-5313523D01*
X66152380Y-5313523D01*
X67152380Y-5789714D02*
X66152380Y-5789714D01*
X66152380Y-6027809D01*
X66200000Y-6170666D01*
X66295238Y-6265904D01*
X66390476Y-6313523D01*
X66580952Y-6361142D01*
X66723809Y-6361142D01*
X66914285Y-6313523D01*
X67009523Y-6265904D01*
X67104761Y-6170666D01*
X67152380Y-6027809D01*
X67152380Y-5789714D01*
X63452380Y-3746857D02*
X63452380Y-4365904D01*
X63833333Y-4032571D01*
X63833333Y-4175428D01*
X63880952Y-4270666D01*
X63928571Y-4318285D01*
X64023809Y-4365904D01*
X64261904Y-4365904D01*
X64357142Y-4318285D01*
X64404761Y-4270666D01*
X64452380Y-4175428D01*
X64452380Y-3889714D01*
X64404761Y-3794476D01*
X64357142Y-3746857D01*
X63452380Y-4651619D02*
X64452380Y-4984952D01*
X63452380Y-5318285D01*
X63452380Y-5556380D02*
X63452380Y-6175428D01*
X63833333Y-5842095D01*
X63833333Y-5984952D01*
X63880952Y-6080190D01*
X63928571Y-6127809D01*
X64023809Y-6175428D01*
X64261904Y-6175428D01*
X64357142Y-6127809D01*
X64404761Y-6080190D01*
X64452380Y-5984952D01*
X64452380Y-5699238D01*
X64404761Y-5604000D01*
X64357142Y-5556380D01*
X61852380Y-3842095D02*
X60852380Y-3842095D01*
X61852380Y-4413523D01*
X60852380Y-4413523D01*
X61852380Y-5461142D02*
X61376190Y-5127809D01*
X61852380Y-4889714D02*
X60852380Y-4889714D01*
X60852380Y-5270666D01*
X60900000Y-5365904D01*
X60947619Y-5413523D01*
X61042857Y-5461142D01*
X61185714Y-5461142D01*
X61280952Y-5413523D01*
X61328571Y-5365904D01*
X61376190Y-5270666D01*
X61376190Y-4889714D01*
X61804761Y-5842095D02*
X61852380Y-5984952D01*
X61852380Y-6223047D01*
X61804761Y-6318285D01*
X61757142Y-6365904D01*
X61661904Y-6413523D01*
X61566666Y-6413523D01*
X61471428Y-6365904D01*
X61423809Y-6318285D01*
X61376190Y-6223047D01*
X61328571Y-6032571D01*
X61280952Y-5937333D01*
X61233333Y-5889714D01*
X61138095Y-5842095D01*
X61042857Y-5842095D01*
X60947619Y-5889714D01*
X60900000Y-5937333D01*
X60852380Y-6032571D01*
X60852380Y-6270666D01*
X60900000Y-6413523D01*
X60852380Y-6699238D02*
X60852380Y-7270666D01*
X61852380Y-6984952D02*
X60852380Y-6984952D01*
X56852380Y-3842095D02*
X55852380Y-3842095D01*
X55852380Y-4508761D02*
X55852380Y-4699238D01*
X55900000Y-4794476D01*
X55995238Y-4889714D01*
X56185714Y-4937333D01*
X56519047Y-4937333D01*
X56709523Y-4889714D01*
X56804761Y-4794476D01*
X56852380Y-4699238D01*
X56852380Y-4508761D01*
X56804761Y-4413523D01*
X56709523Y-4318285D01*
X56519047Y-4270666D01*
X56185714Y-4270666D01*
X55995238Y-4318285D01*
X55900000Y-4413523D01*
X55852380Y-4508761D01*
X59257142Y-4413523D02*
X59304761Y-4365904D01*
X59352380Y-4223047D01*
X59352380Y-4127809D01*
X59304761Y-3984952D01*
X59209523Y-3889714D01*
X59114285Y-3842095D01*
X58923809Y-3794476D01*
X58780952Y-3794476D01*
X58590476Y-3842095D01*
X58495238Y-3889714D01*
X58400000Y-3984952D01*
X58352380Y-4127809D01*
X58352380Y-4223047D01*
X58400000Y-4365904D01*
X58447619Y-4413523D01*
X59352380Y-5318285D02*
X59352380Y-4842095D01*
X58352380Y-4842095D01*
X59352380Y-5651619D02*
X58352380Y-5651619D01*
X59352380Y-6223047D02*
X58780952Y-5794476D01*
X58352380Y-6223047D02*
X58923809Y-5651619D01*
X74484095Y-17550000D02*
X74579333Y-17502380D01*
X74722190Y-17502380D01*
X74865047Y-17550000D01*
X74960285Y-17645238D01*
X75007904Y-17740476D01*
X75055523Y-17930952D01*
X75055523Y-18073809D01*
X75007904Y-18264285D01*
X74960285Y-18359523D01*
X74865047Y-18454761D01*
X74722190Y-18502380D01*
X74626952Y-18502380D01*
X74484095Y-18454761D01*
X74436476Y-18407142D01*
X74436476Y-18073809D01*
X74626952Y-18073809D01*
X74007904Y-18502380D02*
X74007904Y-17502380D01*
X73436476Y-18502380D01*
X73436476Y-17502380D01*
X72960285Y-18502380D02*
X72960285Y-17502380D01*
X72722190Y-17502380D01*
X72579333Y-17550000D01*
X72484095Y-17645238D01*
X72436476Y-17740476D01*
X72388857Y-17930952D01*
X72388857Y-18073809D01*
X72436476Y-18264285D01*
X72484095Y-18359523D01*
X72579333Y-18454761D01*
X72722190Y-18502380D01*
X72960285Y-18502380D01*
X75007904Y-21102380D02*
X75007904Y-20102380D01*
X74769809Y-20102380D01*
X74626952Y-20150000D01*
X74531714Y-20245238D01*
X74484095Y-20340476D01*
X74436476Y-20530952D01*
X74436476Y-20673809D01*
X74484095Y-20864285D01*
X74531714Y-20959523D01*
X74626952Y-21054761D01*
X74769809Y-21102380D01*
X75007904Y-21102380D01*
X74055523Y-20816666D02*
X73579333Y-20816666D01*
X74150761Y-21102380D02*
X73817428Y-20102380D01*
X73484095Y-21102380D01*
X73293619Y-20102380D02*
X72722190Y-20102380D01*
X73007904Y-21102380D02*
X73007904Y-20102380D01*
X72436476Y-20816666D02*
X71960285Y-20816666D01*
X72531714Y-21102380D02*
X72198380Y-20102380D01*
X71865047Y-21102380D01*
X74531714Y-22602380D02*
X75007904Y-22602380D01*
X75055523Y-23078571D01*
X75007904Y-23030952D01*
X74912666Y-22983333D01*
X74674571Y-22983333D01*
X74579333Y-23030952D01*
X74531714Y-23078571D01*
X74484095Y-23173809D01*
X74484095Y-23411904D01*
X74531714Y-23507142D01*
X74579333Y-23554761D01*
X74674571Y-23602380D01*
X74912666Y-23602380D01*
X75007904Y-23554761D01*
X75055523Y-23507142D01*
X74198380Y-22602380D02*
X73865047Y-23602380D01*
X73531714Y-22602380D01*
D13*
X46857142Y-7257142D02*
X46142857Y-10257142D01*
X45571428Y-8114285D01*
X45000000Y-10257142D01*
X44285714Y-7257142D01*
X43285714Y-10114285D02*
X42857142Y-10257142D01*
X42142857Y-10257142D01*
X41857142Y-10114285D01*
X41714285Y-9971428D01*
X41571428Y-9685714D01*
X41571428Y-9400000D01*
X41714285Y-9114285D01*
X41857142Y-8971428D01*
X42142857Y-8828571D01*
X42714285Y-8685714D01*
X43000000Y-8542857D01*
X43142857Y-8400000D01*
X43285714Y-8114285D01*
X43285714Y-7828571D01*
X43142857Y-7542857D01*
X43000000Y-7400000D01*
X42714285Y-7257142D01*
X42000000Y-7257142D01*
X41571428Y-7400000D01*
X40428571Y-7542857D02*
X40285714Y-7400000D01*
X40000000Y-7257142D01*
X39285714Y-7257142D01*
X39000000Y-7400000D01*
X38857142Y-7542857D01*
X38714285Y-7828571D01*
X38714285Y-8114285D01*
X38857142Y-8542857D01*
X40571428Y-10257142D01*
X38714285Y-10257142D01*
X37000000Y-8542857D02*
X37285714Y-8400000D01*
X37428571Y-8257142D01*
X37571428Y-7971428D01*
X37571428Y-7828571D01*
X37428571Y-7542857D01*
X37285714Y-7400000D01*
X37000000Y-7257142D01*
X36428571Y-7257142D01*
X36142857Y-7400000D01*
X36000000Y-7542857D01*
X35857142Y-7828571D01*
X35857142Y-7971428D01*
X36000000Y-8257142D01*
X36142857Y-8400000D01*
X36428571Y-8542857D01*
X37000000Y-8542857D01*
X37285714Y-8685714D01*
X37428571Y-8828571D01*
X37571428Y-9114285D01*
X37571428Y-9685714D01*
X37428571Y-9971428D01*
X37285714Y-10114285D01*
X37000000Y-10257142D01*
X36428571Y-10257142D01*
X36142857Y-10114285D01*
X36000000Y-9971428D01*
X35857142Y-9685714D01*
X35857142Y-9114285D01*
X36000000Y-8828571D01*
X36142857Y-8685714D01*
X36428571Y-8542857D01*
X34857142Y-10257142D02*
X33285714Y-8257142D01*
X34857142Y-8257142D02*
X33285714Y-10257142D01*
X32428571Y-10257142D02*
X30857142Y-8257142D01*
X32428571Y-8257142D02*
X30857142Y-10257142D01*
X26000000Y-10257142D02*
X27428571Y-10257142D01*
X27428571Y-7257142D01*
X25000000Y-8685714D02*
X24000000Y-8685714D01*
X23571428Y-10257142D02*
X25000000Y-10257142D01*
X25000000Y-7257142D01*
X23571428Y-7257142D01*
X22285714Y-10257142D02*
X22285714Y-7257142D01*
X21571428Y-7257142D01*
X21142857Y-7400000D01*
X20857142Y-7685714D01*
X20714285Y-7971428D01*
X20571428Y-8542857D01*
X20571428Y-8971428D01*
X20714285Y-9542857D01*
X20857142Y-9828571D01*
X21142857Y-10114285D01*
X21571428Y-10257142D01*
X22285714Y-10257142D01*
X17000000Y-10257142D02*
X17000000Y-7257142D01*
X16285714Y-7257142D01*
X15857142Y-7400000D01*
X15571428Y-7685714D01*
X15428571Y-7971428D01*
X15285714Y-8542857D01*
X15285714Y-8971428D01*
X15428571Y-9542857D01*
X15571428Y-9828571D01*
X15857142Y-10114285D01*
X16285714Y-10257142D01*
X17000000Y-10257142D01*
X14000000Y-10257142D02*
X14000000Y-8257142D01*
X14000000Y-8828571D02*
X13857142Y-8542857D01*
X13714285Y-8400000D01*
X13428571Y-8257142D01*
X13142857Y-8257142D01*
X12142857Y-10257142D02*
X12142857Y-8257142D01*
X12142857Y-7257142D02*
X12285714Y-7400000D01*
X12142857Y-7542857D01*
X12000000Y-7400000D01*
X12142857Y-7257142D01*
X12142857Y-7542857D01*
X11000000Y-8257142D02*
X10285714Y-10257142D01*
X9571428Y-8257142D01*
X7285714Y-10114285D02*
X7571428Y-10257142D01*
X8142857Y-10257142D01*
X8428571Y-10114285D01*
X8571428Y-9828571D01*
X8571428Y-8685714D01*
X8428571Y-8400000D01*
X8142857Y-8257142D01*
X7571428Y-8257142D01*
X7285714Y-8400000D01*
X7142857Y-8685714D01*
X7142857Y-8971428D01*
X8571428Y-9257142D01*
X5857142Y-10257142D02*
X5857142Y-8257142D01*
X5857142Y-8828571D02*
X5714285Y-8542857D01*
X5571428Y-8400000D01*
X5285714Y-8257142D01*
X5000000Y-8257142D01*
X30785714Y-15357142D02*
X31785714Y-13928571D01*
X32500000Y-15357142D02*
X32500000Y-12357142D01*
X31357142Y-12357142D01*
X31071428Y-12500000D01*
X30928571Y-12642857D01*
X30785714Y-12928571D01*
X30785714Y-13357142D01*
X30928571Y-13642857D01*
X31071428Y-13785714D01*
X31357142Y-13928571D01*
X32500000Y-13928571D01*
X28357142Y-15214285D02*
X28642857Y-15357142D01*
X29214285Y-15357142D01*
X29500000Y-15214285D01*
X29642857Y-14928571D01*
X29642857Y-13785714D01*
X29500000Y-13500000D01*
X29214285Y-13357142D01*
X28642857Y-13357142D01*
X28357142Y-13500000D01*
X28214285Y-13785714D01*
X28214285Y-14071428D01*
X29642857Y-14357142D01*
X27214285Y-13357142D02*
X26500000Y-15357142D01*
X25785714Y-13357142D01*
X24642857Y-15071428D02*
X24500000Y-15214285D01*
X24642857Y-15357142D01*
X24785714Y-15214285D01*
X24642857Y-15071428D01*
X24642857Y-15357142D01*
X21071428Y-12642857D02*
X20928571Y-12500000D01*
X20642857Y-12357142D01*
X19928571Y-12357142D01*
X19642857Y-12500000D01*
X19500000Y-12642857D01*
X19357142Y-12928571D01*
X19357142Y-13214285D01*
X19500000Y-13642857D01*
X21214285Y-15357142D01*
X19357142Y-15357142D01*
X43428571Y-18457142D02*
X43428571Y-20885714D01*
X43571428Y-21171428D01*
X43714285Y-21314285D01*
X44000000Y-21457142D01*
X44428571Y-21457142D01*
X44714285Y-21314285D01*
X43428571Y-20314285D02*
X43714285Y-20457142D01*
X44285714Y-20457142D01*
X44571428Y-20314285D01*
X44714285Y-20171428D01*
X44857142Y-19885714D01*
X44857142Y-19028571D01*
X44714285Y-18742857D01*
X44571428Y-18600000D01*
X44285714Y-18457142D01*
X43714285Y-18457142D01*
X43428571Y-18600000D01*
X42000000Y-20457142D02*
X42000000Y-18457142D01*
X42000000Y-17457142D02*
X42142857Y-17600000D01*
X42000000Y-17742857D01*
X41857142Y-17600000D01*
X42000000Y-17457142D01*
X42000000Y-17742857D01*
X41000000Y-18457142D02*
X39857142Y-18457142D01*
X40571428Y-17457142D02*
X40571428Y-20028571D01*
X40428571Y-20314285D01*
X40142857Y-20457142D01*
X39857142Y-20457142D01*
X38857142Y-20457142D02*
X38857142Y-17457142D01*
X37571428Y-20457142D02*
X37571428Y-18885714D01*
X37714285Y-18600000D01*
X38000000Y-18457142D01*
X38428571Y-18457142D01*
X38714285Y-18600000D01*
X38857142Y-18742857D01*
X34857142Y-18457142D02*
X34857142Y-20457142D01*
X36142857Y-18457142D02*
X36142857Y-20028571D01*
X36000000Y-20314285D01*
X35714285Y-20457142D01*
X35285714Y-20457142D01*
X35000000Y-20314285D01*
X34857142Y-20171428D01*
X33428571Y-20457142D02*
X33428571Y-17457142D01*
X33428571Y-18600000D02*
X33142857Y-18457142D01*
X32571428Y-18457142D01*
X32285714Y-18600000D01*
X32142857Y-18742857D01*
X32000000Y-19028571D01*
X32000000Y-19885714D01*
X32142857Y-20171428D01*
X32285714Y-20314285D01*
X32571428Y-20457142D01*
X33142857Y-20457142D01*
X33428571Y-20314285D01*
X30714285Y-20171428D02*
X30571428Y-20314285D01*
X30714285Y-20457142D01*
X30857142Y-20314285D01*
X30714285Y-20171428D01*
X30714285Y-20457142D01*
X28000000Y-20314285D02*
X28285714Y-20457142D01*
X28857142Y-20457142D01*
X29142857Y-20314285D01*
X29285714Y-20171428D01*
X29428571Y-19885714D01*
X29428571Y-19028571D01*
X29285714Y-18742857D01*
X29142857Y-18600000D01*
X28857142Y-18457142D01*
X28285714Y-18457142D01*
X28000000Y-18600000D01*
X26285714Y-20457142D02*
X26571428Y-20314285D01*
X26714285Y-20171428D01*
X26857142Y-19885714D01*
X26857142Y-19028571D01*
X26714285Y-18742857D01*
X26571428Y-18600000D01*
X26285714Y-18457142D01*
X25857142Y-18457142D01*
X25571428Y-18600000D01*
X25428571Y-18742857D01*
X25285714Y-19028571D01*
X25285714Y-19885714D01*
X25428571Y-20171428D01*
X25571428Y-20314285D01*
X25857142Y-20457142D01*
X26285714Y-20457142D01*
X24000000Y-20457142D02*
X24000000Y-18457142D01*
X24000000Y-18742857D02*
X23857142Y-18600000D01*
X23571428Y-18457142D01*
X23142857Y-18457142D01*
X22857142Y-18600000D01*
X22714285Y-18885714D01*
X22714285Y-20457142D01*
X22714285Y-18885714D02*
X22571428Y-18600000D01*
X22285714Y-18457142D01*
X21857142Y-18457142D01*
X21571428Y-18600000D01*
X21428571Y-18885714D01*
X21428571Y-20457142D01*
X17857142Y-17314285D02*
X20428571Y-21171428D01*
X16857142Y-20457142D02*
X16857142Y-17457142D01*
X16571428Y-19314285D02*
X15714285Y-20457142D01*
X15714285Y-18457142D02*
X16857142Y-19600000D01*
X14428571Y-18457142D02*
X14428571Y-20457142D01*
X14428571Y-18742857D02*
X14285714Y-18600000D01*
X14000000Y-18457142D01*
X13571428Y-18457142D01*
X13285714Y-18600000D01*
X13142857Y-18885714D01*
X13142857Y-20457142D01*
X11714285Y-20457142D02*
X11714285Y-18457142D01*
X11714285Y-17457142D02*
X11857142Y-17600000D01*
X11714285Y-17742857D01*
X11571428Y-17600000D01*
X11714285Y-17457142D01*
X11714285Y-17742857D01*
X10714285Y-18457142D02*
X9571428Y-18457142D01*
X10285714Y-20457142D02*
X10285714Y-17885714D01*
X10142857Y-17600000D01*
X9857142Y-17457142D01*
X9571428Y-17457142D01*
X7285714Y-20457142D02*
X7285714Y-18885714D01*
X7428571Y-18600000D01*
X7714285Y-18457142D01*
X8285714Y-18457142D01*
X8571428Y-18600000D01*
X7285714Y-20314285D02*
X7571428Y-20457142D01*
X8285714Y-20457142D01*
X8571428Y-20314285D01*
X8714285Y-20028571D01*
X8714285Y-19742857D01*
X8571428Y-19457142D01*
X8285714Y-19314285D01*
X7571428Y-19314285D01*
X7285714Y-19171428D01*
D10*
X80000000Y-25000000D02*
X80000000Y0D01*
X0Y-25010000D02*
X80000000Y-25000000D01*
M02*
