M48
; DRILL file {KiCad (5.1.7)-1} date 02/25/21 00:30:06
; FORMAT={-:-/ absolute / inch / decimal}
; #@! TF.CreationDate,2021-02-25T00:30:06+00:00
; #@! TF.GenerationSoftware,Kicad,Pcbnew,(5.1.7)-1
FMAT,2
INCH
T1C0.0177
T2C0.0236
T3C0.0315
T4C0.0394
T5C0.0421
T6C0.0472
T7C0.0669
T8C0.1260
%
G90
G05
T1
X0.3061Y-0.4905
X0.315Y-0.9173
X0.4746Y-0.6929
X0.4823Y-0.5669
X0.4882Y-0.7923
X0.5433Y-0.9173
X0.5945Y-0.3484
X0.628Y-0.4921
X0.6575Y-0.1772
X0.6654Y-0.5591
X0.8169Y-0.128
X1.1496Y-0.2598
X1.2008Y-0.5217
X1.3263Y-0.032
X1.622Y-0.7402
X1.6476Y-0.4528
X1.6575Y-0.5315
X1.6763Y-0.2371
X1.6969Y-0.8504
X1.7795Y-0.3228
X1.8583Y-0.3386
X1.9213Y-0.8622
X1.9291Y-0.5748
X1.9606Y-0.6575
X1.9882Y-0.6181
X2.0236Y-0.6969
X2.0276Y-0.5512
X2.0354Y-0.3976
X2.0394Y-0.6102
X2.0512Y-0.4724
X2.0748Y-0.5354
X2.1159Y-0.6998
X2.1752Y-0.6064
X2.1969Y-0.8622
X2.25Y-0.4429
X2.2618Y-0.7264
X2.3307Y-0.2008
X2.9331Y-0.2657
X3.061Y-0.3839
T2
X0.6594Y-0.752
X0.6594Y-0.811
X0.7185Y-0.752
X0.7185Y-0.811
X0.7874Y-0.9449
X0.7972Y-0.1969
X0.7972Y-0.2854
X0.8465Y-0.9449
X0.8504Y-0.3504
X0.8563Y-0.1969
X0.8563Y-0.2854
X0.9055Y-0.9449
X0.9646Y-0.9449
X0.9744Y-0.2165
X1.0236Y-0.9449
X1.063Y-0.1378
X1.0827Y-0.9449
X1.1417Y-0.9449
X1.2008Y-0.9449
X1.2598Y-0.9449
X1.3189Y-0.9449
X1.3681Y-0.2953
X1.378Y-0.9449
X1.4272Y-0.2953
X1.47Y-0.2387
X1.5157Y-0.4035
X1.5157Y-0.8071
X1.5157Y-0.8661
X1.5748Y-0.8071
X1.5748Y-0.8661
X1.6929Y-0.6299
X1.6929Y-0.689
X1.752Y-0.6299
X1.752Y-0.689
X2.0472Y-0.2756
X2.0472Y-0.3346
X2.3602Y-0.3799
X2.3819Y-0.5039
X2.3917Y-0.3346
X2.4508Y-0.2756
X2.4606Y-0.4528
X2.5098Y-0.2165
X2.5197Y-0.3937
X2.5591Y-0.9449
X2.6083Y-0.2953
X2.6083Y-0.3543
X2.6181Y-0.9449
X2.6673Y-0.2953
X2.6673Y-0.3543
X2.7362Y-0.0591
X2.7362Y-0.1181
X2.7953Y-0.0591
X2.7953Y-0.1181
X2.8543Y-0.0591
X2.8543Y-0.1181
X2.9035Y-0.315
T3
X0.374Y-0.1102
X0.435Y-0.0335
X0.4961Y-0.1102
T4
X3.0256Y-0.7067
X3.0256Y-0.8067
X3.0256Y-0.9067
X2.2181Y-0.0787
X2.3181Y-0.0787
X2.4181Y-0.0787
X2.5181Y-0.0787
X2.6181Y-0.0787
T5
X1.8061Y-0.2224
X1.997Y-0.2224
T6
X1.4527Y-0.6102
X1.5394Y-0.9409
T7
X1.7598Y-0.1083
X2.0433Y-0.1083
T8
X0.1319Y-0.6299
X3.0217Y-0.128
T0
M30
