G04 #@! TF.GenerationSoftware,KiCad,Pcbnew,(5.1.7)-1*
G04 #@! TF.CreationDate,2021-02-25T00:30:01+00:00*
G04 #@! TF.ProjectId,LedGateController,4c656447-6174-4654-936f-6e74726f6c6c,rev?*
G04 #@! TF.SameCoordinates,Original*
G04 #@! TF.FileFunction,Copper,L2,Bot*
G04 #@! TF.FilePolarity,Positive*
%FSLAX46Y46*%
G04 Gerber Fmt 4.6, Leading zero omitted, Abs format (unit mm)*
G04 Created by KiCad (PCBNEW (5.1.7)-1) date 2021-02-25 00:30:01*
%MOMM*%
%LPD*%
G01*
G04 APERTURE LIST*
G04 #@! TA.AperFunction,Profile*
%ADD10C,0.050000*%
G04 #@! TD*
G04 #@! TA.AperFunction,ComponentPad*
%ADD11C,1.400000*%
G04 #@! TD*
G04 #@! TA.AperFunction,ComponentPad*
%ADD12C,2.300000*%
G04 #@! TD*
G04 #@! TA.AperFunction,ComponentPad*
%ADD13C,1.200000*%
G04 #@! TD*
G04 #@! TA.AperFunction,ComponentPad*
%ADD14O,1.700000X1.700000*%
G04 #@! TD*
G04 #@! TA.AperFunction,ComponentPad*
%ADD15R,1.700000X1.700000*%
G04 #@! TD*
G04 #@! TA.AperFunction,ViaPad*
%ADD16C,0.750000*%
G04 #@! TD*
G04 #@! TA.AperFunction,ViaPad*
%ADD17C,0.800000*%
G04 #@! TD*
G04 #@! TA.AperFunction,ViaPad*
%ADD18C,1.500000*%
G04 #@! TD*
G04 #@! TA.AperFunction,Conductor*
%ADD19C,0.750000*%
G04 #@! TD*
G04 #@! TA.AperFunction,Conductor*
%ADD20C,0.250000*%
G04 #@! TD*
G04 #@! TA.AperFunction,Conductor*
%ADD21C,0.500000*%
G04 #@! TD*
G04 #@! TA.AperFunction,Conductor*
%ADD22C,1.500000*%
G04 #@! TD*
G04 #@! TA.AperFunction,Conductor*
%ADD23C,0.150000*%
G04 #@! TD*
G04 APERTURE END LIST*
D10*
X0Y0D02*
X0Y-25010000D01*
X0Y0D02*
X80000000Y0D01*
X80000000Y-25000000D02*
X80000000Y0D01*
X0Y-25010000D02*
X80000000Y-25000000D01*
D11*
X50725000Y-5650000D03*
X45875000Y-5650000D03*
D12*
X44700000Y-2750000D03*
X51900000Y-2750000D03*
D13*
X9500000Y-2800000D03*
X11050000Y-850000D03*
X12600000Y-2800000D03*
D14*
X56340000Y-2000000D03*
X58880000Y-2000000D03*
X61420000Y-2000000D03*
X63960000Y-2000000D03*
D15*
X66500000Y-2000000D03*
D14*
X76850000Y-23030000D03*
X76850000Y-20490000D03*
D15*
X76850000Y-17950000D03*
D16*
X55800000Y-21900000D03*
X48800000Y-21900000D03*
X41200000Y-18800000D03*
X43100000Y-21600000D03*
X42100026Y-13500000D03*
D17*
X73749994Y-8000000D03*
D16*
X57150003Y-11249997D03*
X57450000Y-18450000D03*
D17*
X38500000Y-20500000D03*
X40000000Y-20500000D03*
X38500000Y-22000000D03*
X40000000Y-22000000D03*
X32000000Y-24000000D03*
X33500000Y-24000000D03*
X35000000Y-24000000D03*
X16750000Y-19100000D03*
X16750000Y-20600000D03*
X18250000Y-20600000D03*
X20000000Y-24000000D03*
X18250000Y-19100000D03*
X21500000Y-24000000D03*
X23000000Y-24000000D03*
X24500000Y-24000000D03*
X26000000Y-24000000D03*
X27500000Y-24000000D03*
X29000000Y-24000000D03*
X30500000Y-24000000D03*
X66500000Y-24000000D03*
X65000000Y-24000000D03*
X44500000Y-16000000D03*
X44500000Y-17500000D03*
X43000000Y-17500000D03*
X43000000Y-16000000D03*
X67750000Y-7500000D03*
X66250000Y-7500000D03*
X66250000Y-9000000D03*
X67750000Y-9000000D03*
X69500000Y-3000000D03*
X71000000Y-1500000D03*
X69500000Y-1500000D03*
X71000000Y-3000000D03*
X72500000Y-1500000D03*
X72500000Y-3000000D03*
X64000000Y-10000000D03*
X62500000Y-11500000D03*
X60750000Y-8500000D03*
X62250000Y-7000000D03*
X63750000Y-5500000D03*
X52000000Y-8500000D03*
X52000000Y-7000000D03*
X36250000Y-7500000D03*
X34750000Y-7500000D03*
X21750000Y-7250000D03*
X20250000Y-7250000D03*
X21750000Y-5000000D03*
X20250000Y-5000000D03*
D16*
X53744868Y-17774386D03*
D18*
X36899700Y-15500348D03*
X39100000Y-23900000D03*
D17*
X38500000Y-10250000D03*
D16*
X49800000Y-16700008D03*
X12400000Y-20125000D03*
X8000000Y-23299996D03*
X12055050Y-17600000D03*
X13800000Y-23300020D03*
D17*
X24750001Y-5499999D03*
X27000000Y-3500000D03*
X60500000Y-12800000D03*
X59950000Y-9650000D03*
D16*
X16699998Y-4500000D03*
X51700000Y-10100000D03*
X77750000Y-9750000D03*
X74500000Y-6750000D03*
X30500000Y-13250000D03*
X29200000Y-6600000D03*
X15100000Y-8850000D03*
X41850000Y-11500000D03*
D17*
X21600000Y-8900000D03*
X37337500Y-6062500D03*
D16*
X50500000Y-15700000D03*
X20750000Y-3250000D03*
X52100000Y-12000000D03*
X7775009Y-12459509D03*
X33687500Y-812500D03*
X51400000Y-17700000D03*
X15950000Y-12500000D03*
X42577305Y-6022695D03*
X12250000Y-14400000D03*
X49000000Y-14600000D03*
X55248961Y-15402799D03*
X59200000Y-5100000D03*
X16900000Y-14200000D03*
X51800004Y-15500000D03*
X51500000Y-14000000D03*
X45200000Y-8200000D03*
X52700000Y-13600000D03*
X47200000Y-8600000D03*
D19*
X42600000Y-21600000D02*
X43100000Y-21600000D01*
X41200000Y-20200000D02*
X42600000Y-21600000D01*
X41200000Y-18800000D02*
X41200000Y-20200000D01*
X41200000Y-18800000D02*
X41200000Y-14400026D01*
X41200000Y-14400026D02*
X42100026Y-13500000D01*
X58000000Y-7960000D02*
X63960000Y-2000000D01*
D20*
X64304998Y-2000000D02*
X63960000Y-2000000D01*
D21*
X63960000Y-2000000D02*
X69960000Y-8000000D01*
X69960000Y-8000000D02*
X73749994Y-8000000D01*
D19*
X57949997Y-11249997D02*
X58000000Y-11300000D01*
X57150003Y-11249997D02*
X57949997Y-11249997D01*
X58000000Y-11300000D02*
X58000000Y-7960000D01*
X58000000Y-13200000D02*
X58000000Y-11300000D01*
X58000000Y-17900000D02*
X57450000Y-18450000D01*
X57450000Y-20250000D02*
X57450000Y-18450000D01*
X58000000Y-13100000D02*
X58000000Y-17900000D01*
X55800000Y-21900000D02*
X57450000Y-20250000D01*
D20*
X53744868Y-16220832D02*
X53744868Y-17774386D01*
X54600011Y-15365689D02*
X53744868Y-16220832D01*
X54600011Y-8349989D02*
X54600011Y-15365689D01*
X60950000Y-2000000D02*
X54600011Y-8349989D01*
X61420000Y-2000000D02*
X60950000Y-2000000D01*
D22*
X38039340Y-23900000D02*
X39100000Y-23900000D01*
X36899700Y-22760360D02*
X38039340Y-23900000D01*
X36899700Y-15500348D02*
X36899700Y-22760360D01*
D19*
X37000000Y-15400048D02*
X36899700Y-15500348D01*
X37000000Y-11750000D02*
X37000000Y-15400048D01*
X38500000Y-10250000D02*
X37000000Y-11750000D01*
D20*
X51661994Y-16700008D02*
X49800000Y-16700008D01*
X53800000Y-14562002D02*
X51661994Y-16700008D01*
X53800000Y-4540000D02*
X53800000Y-14562002D01*
X56340000Y-2000000D02*
X53800000Y-4540000D01*
D21*
X12400000Y-20125000D02*
X9225004Y-23299996D01*
X9225004Y-23299996D02*
X8000000Y-23299996D01*
X12055050Y-17600000D02*
X14174999Y-19719949D01*
X14174999Y-19719949D02*
X14174999Y-22925021D01*
X14174999Y-22925021D02*
X13800000Y-23300020D01*
X24750001Y-5499999D02*
X26750000Y-3500000D01*
X26750000Y-3500000D02*
X27000000Y-3500000D01*
D20*
X60500000Y-12800000D02*
X59950000Y-12250000D01*
X59950000Y-12250000D02*
X59950000Y-9650000D01*
X44950000Y-6750000D02*
X48350000Y-6750000D01*
X19599998Y-1600000D02*
X39800000Y-1600000D01*
X16699998Y-4500000D02*
X19599998Y-1600000D01*
X39800000Y-1600000D02*
X44950000Y-6750000D01*
X48350000Y-6750000D02*
X51700000Y-10100000D01*
X74750000Y-6750000D02*
X74500000Y-6750000D01*
X77750000Y-9750000D02*
X74750000Y-6750000D01*
D21*
X30500000Y-13250000D02*
X29200000Y-11950000D01*
X29200000Y-11950000D02*
X29200000Y-6600000D01*
D19*
X76880000Y-23000000D02*
X76850000Y-23030000D01*
X15100000Y-8850000D02*
X15100000Y-8900000D01*
X15200000Y-8750000D02*
X15100000Y-8850000D01*
X21450000Y-8750000D02*
X15200000Y-8750000D01*
X21600000Y-8900000D02*
X21450000Y-8750000D01*
X37350000Y-6075000D02*
X37337500Y-6062500D01*
X41850000Y-11500000D02*
X41850000Y-10575000D01*
X41850000Y-10575000D02*
X37337500Y-6062500D01*
D20*
X46050000Y-15700000D02*
X50500000Y-15700000D01*
X41850000Y-11500000D02*
X46050000Y-15700000D01*
X20750000Y-3250000D02*
X21600000Y-2400000D01*
X47250011Y-7150011D02*
X52100000Y-12000000D01*
X21600000Y-2400000D02*
X40034300Y-2400000D01*
X40034300Y-2400000D02*
X44784311Y-7150011D01*
X44784311Y-7150011D02*
X47250011Y-7150011D01*
D21*
X7800000Y-12450000D02*
X7790491Y-12459509D01*
X7790491Y-12459509D02*
X7775009Y-12459509D01*
X33625000Y-750000D02*
X33687500Y-812500D01*
X18000000Y-750000D02*
X33625000Y-750000D01*
X7775009Y-10974991D02*
X18000000Y-750000D01*
X7775009Y-12459509D02*
X7775009Y-10974991D01*
D20*
X55034311Y-4399989D02*
X54200000Y-5234300D01*
X56480011Y-4399989D02*
X55034311Y-4399989D01*
X58880000Y-2000000D02*
X56480011Y-4399989D01*
X54200000Y-5234300D02*
X54200000Y-14900000D01*
X54200000Y-14900000D02*
X51400000Y-17700000D01*
X15950000Y-12500000D02*
X19500000Y-12500000D01*
X19500000Y-12500000D02*
X28800000Y-3200000D01*
X28800000Y-3200000D02*
X39754610Y-3200000D01*
X39754610Y-3200000D02*
X42577305Y-6022695D01*
X18600000Y-15400000D02*
X29200000Y-4800000D01*
X13250000Y-15400000D02*
X18600000Y-15400000D01*
X29200000Y-4800000D02*
X39200000Y-4800000D01*
X12250000Y-14400000D02*
X13250000Y-15400000D01*
X39200000Y-4800000D02*
X49000000Y-14600000D01*
X55050000Y-9250000D02*
X59200000Y-5100000D01*
X55050000Y-15203838D02*
X55050000Y-9250000D01*
X55248961Y-15402799D02*
X55050000Y-15203838D01*
X18800000Y-14200000D02*
X29000000Y-4000000D01*
X29000000Y-4000000D02*
X39581256Y-4000000D01*
X51325005Y-15025001D02*
X51800004Y-15500000D01*
X16900000Y-14200000D02*
X18800000Y-14200000D01*
X39581256Y-4000000D02*
X50606257Y-15025001D01*
X50606257Y-15025001D02*
X51325005Y-15025001D01*
X51500000Y-14000000D02*
X45700000Y-8200000D01*
X45700000Y-8200000D02*
X45200000Y-8200000D01*
X52700000Y-13600000D02*
X47700000Y-8600000D01*
X47700000Y-8600000D02*
X47200000Y-8600000D01*
D23*
X10409181Y-324093D02*
X10318894Y-459216D01*
X10256704Y-609356D01*
X10225000Y-768745D01*
X10225000Y-931255D01*
X10256704Y-1090644D01*
X10318894Y-1240784D01*
X10409181Y-1375907D01*
X10524093Y-1490819D01*
X10659216Y-1581106D01*
X10809356Y-1643296D01*
X10968745Y-1675000D01*
X11131255Y-1675000D01*
X11290644Y-1643296D01*
X11440784Y-1581106D01*
X11575907Y-1490819D01*
X11690819Y-1375907D01*
X11781106Y-1240784D01*
X11843296Y-1090644D01*
X11875000Y-931255D01*
X11875000Y-768745D01*
X11843296Y-609356D01*
X11781106Y-459216D01*
X11690819Y-324093D01*
X11616726Y-250000D01*
X33477620Y-250000D01*
X33417264Y-275000D01*
X18023332Y-275000D01*
X18000000Y-272702D01*
X17906883Y-281873D01*
X17879722Y-290112D01*
X17817346Y-309034D01*
X17734827Y-353141D01*
X17662499Y-412499D01*
X17647621Y-430628D01*
X7455638Y-10622612D01*
X7437509Y-10637490D01*
X7378151Y-10709818D01*
X7338529Y-10783947D01*
X7334044Y-10792337D01*
X7306882Y-10881875D01*
X7297711Y-10974991D01*
X7300010Y-10998333D01*
X7300009Y-12090425D01*
X7243296Y-12175302D01*
X7198067Y-12284495D01*
X7175009Y-12400414D01*
X7175009Y-12518604D01*
X7198067Y-12634523D01*
X7243296Y-12743716D01*
X7308959Y-12841987D01*
X7392531Y-12925559D01*
X7490802Y-12991222D01*
X7599995Y-13036451D01*
X7715914Y-13059509D01*
X7834104Y-13059509D01*
X7950023Y-13036451D01*
X8059216Y-12991222D01*
X8157487Y-12925559D01*
X8241059Y-12841987D01*
X8306722Y-12743716D01*
X8351951Y-12634523D01*
X8375009Y-12518604D01*
X8375009Y-12400414D01*
X8351951Y-12284495D01*
X8306722Y-12175302D01*
X8250009Y-12090426D01*
X8250009Y-11171741D01*
X10571750Y-8850000D01*
X14497097Y-8850000D01*
X14500000Y-8879474D01*
X14500000Y-8929474D01*
X14508682Y-9017621D01*
X14542990Y-9130721D01*
X14598704Y-9234955D01*
X14673684Y-9326317D01*
X14765046Y-9401296D01*
X14869280Y-9457010D01*
X14982380Y-9491318D01*
X15100000Y-9502903D01*
X15217621Y-9491318D01*
X15330721Y-9457010D01*
X15434955Y-9401296D01*
X15497459Y-9350000D01*
X21166117Y-9350000D01*
X21201586Y-9385469D01*
X21303952Y-9453868D01*
X21417694Y-9500981D01*
X21538443Y-9525000D01*
X21661557Y-9525000D01*
X21782306Y-9500981D01*
X21896048Y-9453868D01*
X21998414Y-9385469D01*
X22085469Y-9298414D01*
X22153868Y-9196048D01*
X22200981Y-9082306D01*
X22225000Y-8961557D01*
X22225000Y-8838443D01*
X22200981Y-8717694D01*
X22153868Y-8603952D01*
X22085469Y-8501586D01*
X21998414Y-8414531D01*
X21896048Y-8346132D01*
X21894067Y-8345311D01*
X21876317Y-8323683D01*
X21784955Y-8248704D01*
X21680721Y-8192990D01*
X21567621Y-8158682D01*
X21479474Y-8150000D01*
X21450000Y-8147097D01*
X21420526Y-8150000D01*
X15229473Y-8150000D01*
X15199999Y-8147097D01*
X15123833Y-8154599D01*
X15082379Y-8158682D01*
X14969279Y-8192990D01*
X14865045Y-8248704D01*
X14773683Y-8323683D01*
X14754890Y-8346582D01*
X14717524Y-8383949D01*
X14717522Y-8383950D01*
X14696581Y-8404891D01*
X14673683Y-8423683D01*
X14654894Y-8446578D01*
X14633950Y-8467522D01*
X14617494Y-8492151D01*
X14598704Y-8515046D01*
X14584744Y-8541164D01*
X14568287Y-8565793D01*
X14556951Y-8593161D01*
X14542990Y-8619280D01*
X14534393Y-8647620D01*
X14523058Y-8674986D01*
X14517278Y-8704042D01*
X14508682Y-8732380D01*
X14505779Y-8761851D01*
X14500000Y-8790905D01*
X14500000Y-8820526D01*
X14497097Y-8850000D01*
X10571750Y-8850000D01*
X13983308Y-5438442D01*
X24125001Y-5438442D01*
X24125001Y-5561556D01*
X24149020Y-5682305D01*
X24196133Y-5796047D01*
X24264532Y-5898413D01*
X24351587Y-5985468D01*
X24453953Y-6053867D01*
X24567695Y-6100980D01*
X24688444Y-6124999D01*
X24811558Y-6124999D01*
X24932307Y-6100980D01*
X25046049Y-6053867D01*
X25148415Y-5985468D01*
X25235470Y-5898413D01*
X25303869Y-5796047D01*
X25350982Y-5682305D01*
X25375001Y-5561556D01*
X25375001Y-5546749D01*
X26820260Y-4101491D01*
X26938443Y-4125000D01*
X27061557Y-4125000D01*
X27182306Y-4100981D01*
X27296048Y-4053868D01*
X27398414Y-3985469D01*
X27485469Y-3898414D01*
X27553868Y-3796048D01*
X27600981Y-3682306D01*
X27625000Y-3561557D01*
X27625000Y-3438443D01*
X27600981Y-3317694D01*
X27553868Y-3203952D01*
X27485469Y-3101586D01*
X27398414Y-3014531D01*
X27296048Y-2946132D01*
X27182306Y-2899019D01*
X27061557Y-2875000D01*
X26938443Y-2875000D01*
X26817694Y-2899019D01*
X26703952Y-2946132D01*
X26601586Y-3014531D01*
X26545298Y-3070819D01*
X26484827Y-3103141D01*
X26412499Y-3162499D01*
X26397625Y-3180623D01*
X24703251Y-4874999D01*
X24688444Y-4874999D01*
X24567695Y-4899018D01*
X24453953Y-4946131D01*
X24351587Y-5014530D01*
X24264532Y-5101585D01*
X24196133Y-5203951D01*
X24149020Y-5317693D01*
X24125001Y-5438442D01*
X13983308Y-5438442D01*
X18196751Y-1225000D01*
X33251472Y-1225000D01*
X33276472Y-1250000D01*
X19617183Y-1250000D01*
X19599997Y-1248307D01*
X19582811Y-1250000D01*
X19582809Y-1250000D01*
X19531386Y-1255065D01*
X19465411Y-1275078D01*
X19404608Y-1307578D01*
X19351313Y-1351315D01*
X19340354Y-1364670D01*
X16797404Y-3907621D01*
X16759093Y-3900000D01*
X16640903Y-3900000D01*
X16524984Y-3923058D01*
X16415791Y-3968287D01*
X16317520Y-4033950D01*
X16233948Y-4117522D01*
X16168285Y-4215793D01*
X16123056Y-4324986D01*
X16099998Y-4440905D01*
X16099998Y-4559095D01*
X16123056Y-4675014D01*
X16168285Y-4784207D01*
X16233948Y-4882478D01*
X16317520Y-4966050D01*
X16415791Y-5031713D01*
X16524984Y-5076942D01*
X16640903Y-5100000D01*
X16759093Y-5100000D01*
X16875012Y-5076942D01*
X16984205Y-5031713D01*
X17082476Y-4966050D01*
X17166048Y-4882478D01*
X17231711Y-4784207D01*
X17276940Y-4675014D01*
X17299998Y-4559095D01*
X17299998Y-4440905D01*
X17292377Y-4402594D01*
X19744973Y-1950000D01*
X39655027Y-1950000D01*
X39755027Y-2050000D01*
X21617196Y-2050000D01*
X21600000Y-2048306D01*
X21531388Y-2055065D01*
X21465413Y-2075078D01*
X21404610Y-2107578D01*
X21351315Y-2151315D01*
X21340355Y-2164670D01*
X20847406Y-2657621D01*
X20809095Y-2650000D01*
X20690905Y-2650000D01*
X20574986Y-2673058D01*
X20465793Y-2718287D01*
X20367522Y-2783950D01*
X20283950Y-2867522D01*
X20218287Y-2965793D01*
X20173058Y-3074986D01*
X20150000Y-3190905D01*
X20150000Y-3309095D01*
X20173058Y-3425014D01*
X20218287Y-3534207D01*
X20283950Y-3632478D01*
X20367522Y-3716050D01*
X20465793Y-3781713D01*
X20574986Y-3826942D01*
X20690905Y-3850000D01*
X20809095Y-3850000D01*
X20925014Y-3826942D01*
X21034207Y-3781713D01*
X21132478Y-3716050D01*
X21216050Y-3632478D01*
X21281713Y-3534207D01*
X21326942Y-3425014D01*
X21350000Y-3309095D01*
X21350000Y-3190905D01*
X21342379Y-3152594D01*
X21744975Y-2750000D01*
X39889327Y-2750000D01*
X42562021Y-5422695D01*
X42518210Y-5422695D01*
X42479900Y-5430315D01*
X40014263Y-2964680D01*
X40003295Y-2951315D01*
X39950000Y-2907578D01*
X39889197Y-2875078D01*
X39823222Y-2855065D01*
X39771799Y-2850000D01*
X39771798Y-2850000D01*
X39754610Y-2848307D01*
X39737422Y-2850000D01*
X28817188Y-2850000D01*
X28799999Y-2848307D01*
X28731387Y-2855065D01*
X28711374Y-2861136D01*
X28665413Y-2875078D01*
X28604610Y-2907578D01*
X28551315Y-2951315D01*
X28540356Y-2964669D01*
X19355027Y-12150000D01*
X16437751Y-12150000D01*
X16416050Y-12117522D01*
X16332478Y-12033950D01*
X16234207Y-11968287D01*
X16125014Y-11923058D01*
X16009095Y-11900000D01*
X15890905Y-11900000D01*
X15774986Y-11923058D01*
X15665793Y-11968287D01*
X15567522Y-12033950D01*
X15483950Y-12117522D01*
X15418287Y-12215793D01*
X15373058Y-12324986D01*
X15350000Y-12440905D01*
X15350000Y-12559095D01*
X15373058Y-12675014D01*
X15418287Y-12784207D01*
X15483950Y-12882478D01*
X15567522Y-12966050D01*
X15665793Y-13031713D01*
X15774986Y-13076942D01*
X15890905Y-13100000D01*
X16009095Y-13100000D01*
X16125014Y-13076942D01*
X16234207Y-13031713D01*
X16332478Y-12966050D01*
X16416050Y-12882478D01*
X16437751Y-12850000D01*
X19482812Y-12850000D01*
X19500000Y-12851693D01*
X19517188Y-12850000D01*
X19517189Y-12850000D01*
X19568612Y-12844935D01*
X19634587Y-12824922D01*
X19695390Y-12792422D01*
X19748685Y-12748685D01*
X19759654Y-12735319D01*
X28944975Y-3550000D01*
X39609637Y-3550000D01*
X39756385Y-3696748D01*
X39715843Y-3675078D01*
X39649868Y-3655065D01*
X39598445Y-3650000D01*
X39598444Y-3650000D01*
X39581256Y-3648307D01*
X39564068Y-3650000D01*
X29017185Y-3650000D01*
X28999999Y-3648307D01*
X28982813Y-3650000D01*
X28982811Y-3650000D01*
X28931388Y-3655065D01*
X28865413Y-3675078D01*
X28804610Y-3707578D01*
X28751315Y-3751315D01*
X28740356Y-3764669D01*
X18655027Y-13850000D01*
X17387751Y-13850000D01*
X17366050Y-13817522D01*
X17282478Y-13733950D01*
X17184207Y-13668287D01*
X17075014Y-13623058D01*
X16959095Y-13600000D01*
X16840905Y-13600000D01*
X16724986Y-13623058D01*
X16615793Y-13668287D01*
X16517522Y-13733950D01*
X16433950Y-13817522D01*
X16368287Y-13915793D01*
X16323058Y-14024986D01*
X16300000Y-14140905D01*
X16300000Y-14259095D01*
X16323058Y-14375014D01*
X16368287Y-14484207D01*
X16433950Y-14582478D01*
X16517522Y-14666050D01*
X16615793Y-14731713D01*
X16724986Y-14776942D01*
X16840905Y-14800000D01*
X16959095Y-14800000D01*
X17075014Y-14776942D01*
X17184207Y-14731713D01*
X17282478Y-14666050D01*
X17366050Y-14582478D01*
X17387751Y-14550000D01*
X18782812Y-14550000D01*
X18800000Y-14551693D01*
X18817188Y-14550000D01*
X18817189Y-14550000D01*
X18868612Y-14544935D01*
X18934587Y-14524922D01*
X18995390Y-14492422D01*
X19048685Y-14448685D01*
X19059654Y-14435319D01*
X29144975Y-4350000D01*
X39436283Y-4350000D01*
X49093033Y-14006751D01*
X49059095Y-14000000D01*
X48940905Y-14000000D01*
X48902594Y-14007621D01*
X39459654Y-4564681D01*
X39448685Y-4551315D01*
X39395390Y-4507578D01*
X39334587Y-4475078D01*
X39268612Y-4455065D01*
X39217189Y-4450000D01*
X39217188Y-4450000D01*
X39200000Y-4448307D01*
X39182812Y-4450000D01*
X29217189Y-4450000D01*
X29200000Y-4448307D01*
X29131388Y-4455065D01*
X29065412Y-4475078D01*
X29018787Y-4500000D01*
X29004610Y-4507578D01*
X28951315Y-4551315D01*
X28940356Y-4564669D01*
X18455027Y-15050000D01*
X13394975Y-15050000D01*
X12842379Y-14497406D01*
X12850000Y-14459095D01*
X12850000Y-14340905D01*
X12826942Y-14224986D01*
X12781713Y-14115793D01*
X12716050Y-14017522D01*
X12632478Y-13933950D01*
X12534207Y-13868287D01*
X12425014Y-13823058D01*
X12309095Y-13800000D01*
X12190905Y-13800000D01*
X12074986Y-13823058D01*
X11965793Y-13868287D01*
X11867522Y-13933950D01*
X11783950Y-14017522D01*
X11718287Y-14115793D01*
X11673058Y-14224986D01*
X11650000Y-14340905D01*
X11650000Y-14459095D01*
X11673058Y-14575014D01*
X11718287Y-14684207D01*
X11783950Y-14782478D01*
X11867522Y-14866050D01*
X11965793Y-14931713D01*
X12074986Y-14976942D01*
X12190905Y-15000000D01*
X12309095Y-15000000D01*
X12347406Y-14992379D01*
X12990355Y-15635330D01*
X13001315Y-15648685D01*
X13052403Y-15690611D01*
X13054610Y-15692422D01*
X13115413Y-15724922D01*
X13181388Y-15744935D01*
X13250000Y-15751694D01*
X13267196Y-15750000D01*
X18582812Y-15750000D01*
X18600000Y-15751693D01*
X18617188Y-15750000D01*
X18617189Y-15750000D01*
X18668612Y-15744935D01*
X18734587Y-15724922D01*
X18795390Y-15692422D01*
X18848685Y-15648685D01*
X18859654Y-15635319D01*
X27954069Y-6540905D01*
X28600000Y-6540905D01*
X28600000Y-6659095D01*
X28623058Y-6775014D01*
X28668287Y-6884207D01*
X28725001Y-6969085D01*
X28725000Y-11926668D01*
X28722702Y-11950000D01*
X28731873Y-12043116D01*
X28735360Y-12054611D01*
X28759034Y-12132653D01*
X28803141Y-12215173D01*
X28862499Y-12287501D01*
X28880634Y-12302384D01*
X29903143Y-13324894D01*
X29923058Y-13425014D01*
X29968287Y-13534207D01*
X30033950Y-13632478D01*
X30117522Y-13716050D01*
X30215793Y-13781713D01*
X30324986Y-13826942D01*
X30440905Y-13850000D01*
X30559095Y-13850000D01*
X30675014Y-13826942D01*
X30784207Y-13781713D01*
X30882478Y-13716050D01*
X30966050Y-13632478D01*
X31031713Y-13534207D01*
X31076942Y-13425014D01*
X31100000Y-13309095D01*
X31100000Y-13190905D01*
X31076942Y-13074986D01*
X31031713Y-12965793D01*
X30966050Y-12867522D01*
X30882478Y-12783950D01*
X30784207Y-12718287D01*
X30675014Y-12673058D01*
X30574894Y-12653143D01*
X29675000Y-11753250D01*
X29675000Y-6969083D01*
X29731713Y-6884207D01*
X29776942Y-6775014D01*
X29800000Y-6659095D01*
X29800000Y-6540905D01*
X29776942Y-6424986D01*
X29731713Y-6315793D01*
X29666050Y-6217522D01*
X29582478Y-6133950D01*
X29484207Y-6068287D01*
X29375014Y-6023058D01*
X29259095Y-6000000D01*
X29140905Y-6000000D01*
X29024986Y-6023058D01*
X28915793Y-6068287D01*
X28817522Y-6133950D01*
X28733950Y-6217522D01*
X28668287Y-6315793D01*
X28623058Y-6424986D01*
X28600000Y-6540905D01*
X27954069Y-6540905D01*
X29344975Y-5150000D01*
X39055027Y-5150000D01*
X48407621Y-14502594D01*
X48400000Y-14540905D01*
X48400000Y-14659095D01*
X48423058Y-14775014D01*
X48468287Y-14884207D01*
X48533950Y-14982478D01*
X48617522Y-15066050D01*
X48715793Y-15131713D01*
X48824986Y-15176942D01*
X48940905Y-15200000D01*
X49059095Y-15200000D01*
X49175014Y-15176942D01*
X49284207Y-15131713D01*
X49382478Y-15066050D01*
X49466050Y-14982478D01*
X49531713Y-14884207D01*
X49576942Y-14775014D01*
X49600000Y-14659095D01*
X49600000Y-14540905D01*
X49593249Y-14506967D01*
X50243212Y-15156930D01*
X50215793Y-15168287D01*
X50117522Y-15233950D01*
X50033950Y-15317522D01*
X50012249Y-15350000D01*
X46194974Y-15350000D01*
X42443226Y-11598253D01*
X42444221Y-11588148D01*
X42450000Y-11559095D01*
X42450000Y-10604474D01*
X42452903Y-10575000D01*
X42441318Y-10457379D01*
X42407010Y-10344279D01*
X42397743Y-10326942D01*
X42351296Y-10240045D01*
X42276317Y-10148683D01*
X42253419Y-10129891D01*
X37892350Y-5768823D01*
X37891368Y-5766452D01*
X37822969Y-5664086D01*
X37735914Y-5577031D01*
X37633548Y-5508632D01*
X37519806Y-5461519D01*
X37399057Y-5437500D01*
X37275943Y-5437500D01*
X37155194Y-5461519D01*
X37041452Y-5508632D01*
X36939086Y-5577031D01*
X36852031Y-5664086D01*
X36783632Y-5766452D01*
X36736519Y-5880194D01*
X36712500Y-6000943D01*
X36712500Y-6124057D01*
X36736519Y-6244806D01*
X36783632Y-6358548D01*
X36852031Y-6460914D01*
X36939086Y-6547969D01*
X37041452Y-6616368D01*
X37043823Y-6617350D01*
X41250001Y-10823529D01*
X41250000Y-11440905D01*
X41250000Y-11559095D01*
X41255779Y-11588149D01*
X41258682Y-11617620D01*
X41267279Y-11645960D01*
X41273058Y-11675014D01*
X41284393Y-11702380D01*
X41292990Y-11730720D01*
X41306951Y-11756839D01*
X41318287Y-11784207D01*
X41334744Y-11808836D01*
X41348704Y-11834954D01*
X41367494Y-11857849D01*
X41383950Y-11882478D01*
X41404892Y-11903420D01*
X41423683Y-11926317D01*
X41446581Y-11945109D01*
X41467522Y-11966050D01*
X41492147Y-11982504D01*
X41515045Y-12001296D01*
X41541168Y-12015259D01*
X41565793Y-12031713D01*
X41593156Y-12043047D01*
X41619279Y-12057010D01*
X41647623Y-12065608D01*
X41674986Y-12076942D01*
X41704037Y-12082721D01*
X41732379Y-12091318D01*
X41761852Y-12094221D01*
X41790905Y-12100000D01*
X41820526Y-12100000D01*
X41850000Y-12102903D01*
X41879474Y-12100000D01*
X41909095Y-12100000D01*
X41938149Y-12094221D01*
X41948253Y-12093226D01*
X45790351Y-15935325D01*
X45801315Y-15948685D01*
X45854610Y-15992422D01*
X45915413Y-16024922D01*
X45981388Y-16044935D01*
X46050000Y-16051693D01*
X46067189Y-16050000D01*
X50012249Y-16050000D01*
X50033950Y-16082478D01*
X50117522Y-16166050D01*
X50215793Y-16231713D01*
X50324986Y-16276942D01*
X50440905Y-16300000D01*
X50559095Y-16300000D01*
X50675014Y-16276942D01*
X50784207Y-16231713D01*
X50882478Y-16166050D01*
X50966050Y-16082478D01*
X51031713Y-15984207D01*
X51076942Y-15875014D01*
X51100000Y-15759095D01*
X51100000Y-15640905D01*
X51076942Y-15524986D01*
X51031713Y-15415793D01*
X51004456Y-15375001D01*
X51180032Y-15375001D01*
X51207625Y-15402594D01*
X51200004Y-15440905D01*
X51200004Y-15559095D01*
X51223062Y-15675014D01*
X51268291Y-15784207D01*
X51333954Y-15882478D01*
X51417526Y-15966050D01*
X51515797Y-16031713D01*
X51624990Y-16076942D01*
X51740909Y-16100000D01*
X51767029Y-16100000D01*
X51517021Y-16350008D01*
X50287751Y-16350008D01*
X50266050Y-16317530D01*
X50182478Y-16233958D01*
X50084207Y-16168295D01*
X49975014Y-16123066D01*
X49859095Y-16100008D01*
X49740905Y-16100008D01*
X49624986Y-16123066D01*
X49515793Y-16168295D01*
X49417522Y-16233958D01*
X49333950Y-16317530D01*
X49268287Y-16415801D01*
X49223058Y-16524994D01*
X49200000Y-16640913D01*
X49200000Y-16759103D01*
X49223058Y-16875022D01*
X49268287Y-16984215D01*
X49333950Y-17082486D01*
X49417522Y-17166058D01*
X49515793Y-17231721D01*
X49624986Y-17276950D01*
X49740905Y-17300008D01*
X49859095Y-17300008D01*
X49975014Y-17276950D01*
X50084207Y-17231721D01*
X50182478Y-17166058D01*
X50266050Y-17082486D01*
X50287751Y-17050008D01*
X51555019Y-17050008D01*
X51497406Y-17107621D01*
X51459095Y-17100000D01*
X51340905Y-17100000D01*
X51224986Y-17123058D01*
X51115793Y-17168287D01*
X51017522Y-17233950D01*
X50933950Y-17317522D01*
X50868287Y-17415793D01*
X50823058Y-17524986D01*
X50800000Y-17640905D01*
X50800000Y-17759095D01*
X50823058Y-17875014D01*
X50868287Y-17984207D01*
X50933950Y-18082478D01*
X51017522Y-18166050D01*
X51115793Y-18231713D01*
X51224986Y-18276942D01*
X51340905Y-18300000D01*
X51459095Y-18300000D01*
X51575014Y-18276942D01*
X51684207Y-18231713D01*
X51782478Y-18166050D01*
X51866050Y-18082478D01*
X51931713Y-17984207D01*
X51976942Y-17875014D01*
X52000000Y-17759095D01*
X52000000Y-17640905D01*
X51992379Y-17602594D01*
X53395255Y-16199719D01*
X53393175Y-16220832D01*
X53394868Y-16238021D01*
X53394869Y-17286634D01*
X53362390Y-17308336D01*
X53278818Y-17391908D01*
X53213155Y-17490179D01*
X53167926Y-17599372D01*
X53144868Y-17715291D01*
X53144868Y-17833481D01*
X53167926Y-17949400D01*
X53213155Y-18058593D01*
X53278818Y-18156864D01*
X53362390Y-18240436D01*
X53460661Y-18306099D01*
X53569854Y-18351328D01*
X53685773Y-18374386D01*
X53803963Y-18374386D01*
X53919882Y-18351328D01*
X54029075Y-18306099D01*
X54127346Y-18240436D01*
X54210918Y-18156864D01*
X54276581Y-18058593D01*
X54321810Y-17949400D01*
X54344868Y-17833481D01*
X54344868Y-17715291D01*
X54321810Y-17599372D01*
X54276581Y-17490179D01*
X54210918Y-17391908D01*
X54127346Y-17308336D01*
X54094868Y-17286635D01*
X54094868Y-16365805D01*
X54739847Y-15720827D01*
X54782911Y-15785277D01*
X54866483Y-15868849D01*
X54964754Y-15934512D01*
X55073947Y-15979741D01*
X55189866Y-16002799D01*
X55308056Y-16002799D01*
X55423975Y-15979741D01*
X55533168Y-15934512D01*
X55631439Y-15868849D01*
X55715011Y-15785277D01*
X55780674Y-15687006D01*
X55825903Y-15577813D01*
X55848961Y-15461894D01*
X55848961Y-15343704D01*
X55825903Y-15227785D01*
X55780674Y-15118592D01*
X55715011Y-15020321D01*
X55631439Y-14936749D01*
X55533168Y-14871086D01*
X55423975Y-14825857D01*
X55400000Y-14821088D01*
X55400000Y-9394973D01*
X59102595Y-5692380D01*
X59140905Y-5700000D01*
X59259095Y-5700000D01*
X59375014Y-5676942D01*
X59476615Y-5634858D01*
X57596582Y-7514891D01*
X57573684Y-7533683D01*
X57498705Y-7625045D01*
X57478686Y-7662499D01*
X57442991Y-7729279D01*
X57408682Y-7842380D01*
X57397097Y-7960000D01*
X57400001Y-7989484D01*
X57400000Y-10649997D01*
X57090908Y-10649997D01*
X57061855Y-10655776D01*
X57032382Y-10658679D01*
X57004040Y-10667276D01*
X56974989Y-10673055D01*
X56947626Y-10684389D01*
X56919282Y-10692987D01*
X56893159Y-10706950D01*
X56865796Y-10718284D01*
X56841171Y-10734738D01*
X56815048Y-10748701D01*
X56792150Y-10767493D01*
X56767525Y-10783947D01*
X56746584Y-10804888D01*
X56723686Y-10823680D01*
X56704894Y-10846578D01*
X56683953Y-10867519D01*
X56667499Y-10892144D01*
X56648707Y-10915042D01*
X56634744Y-10941165D01*
X56618290Y-10965790D01*
X56606956Y-10993153D01*
X56592993Y-11019276D01*
X56584395Y-11047620D01*
X56573061Y-11074983D01*
X56567282Y-11104034D01*
X56558685Y-11132376D01*
X56555782Y-11161849D01*
X56550003Y-11190902D01*
X56550003Y-11220523D01*
X56547100Y-11249997D01*
X56550003Y-11279471D01*
X56550003Y-11309092D01*
X56555782Y-11338145D01*
X56558685Y-11367618D01*
X56567282Y-11395960D01*
X56573061Y-11425011D01*
X56584395Y-11452374D01*
X56592993Y-11480718D01*
X56606956Y-11506841D01*
X56618290Y-11534204D01*
X56634744Y-11558829D01*
X56648707Y-11584952D01*
X56667499Y-11607850D01*
X56683953Y-11632475D01*
X56704894Y-11653416D01*
X56723686Y-11676314D01*
X56746584Y-11695106D01*
X56767525Y-11716047D01*
X56792150Y-11732501D01*
X56815048Y-11751293D01*
X56841171Y-11765256D01*
X56865796Y-11781710D01*
X56893159Y-11793044D01*
X56919282Y-11807007D01*
X56947626Y-11815605D01*
X56974989Y-11826939D01*
X57004040Y-11832718D01*
X57032382Y-11841315D01*
X57061855Y-11844218D01*
X57090908Y-11849997D01*
X57400001Y-11849997D01*
X57400000Y-13070526D01*
X57400000Y-13070527D01*
X57400001Y-17651471D01*
X57046576Y-18004896D01*
X57023684Y-18023683D01*
X57004897Y-18046575D01*
X56983950Y-18067522D01*
X56967492Y-18092153D01*
X56948705Y-18115045D01*
X56934746Y-18141160D01*
X56918287Y-18165793D01*
X56906949Y-18193165D01*
X56903296Y-18200000D01*
X56892991Y-18219279D01*
X56884395Y-18247616D01*
X56873058Y-18274986D01*
X56867278Y-18304042D01*
X56858682Y-18332380D01*
X56855779Y-18361851D01*
X56850000Y-18390905D01*
X56850000Y-18420526D01*
X56847097Y-18450000D01*
X56850000Y-18479474D01*
X56850000Y-18509095D01*
X56850001Y-18509100D01*
X56850000Y-20001471D01*
X55417525Y-21433948D01*
X55417522Y-21433950D01*
X55333950Y-21517522D01*
X55317489Y-21542158D01*
X55298705Y-21565046D01*
X55284748Y-21591157D01*
X55268287Y-21615793D01*
X55256949Y-21643166D01*
X55242991Y-21669279D01*
X55234395Y-21697616D01*
X55223058Y-21724986D01*
X55217278Y-21754042D01*
X55208682Y-21782380D01*
X55205779Y-21811851D01*
X55200000Y-21840905D01*
X55200000Y-21870526D01*
X55197097Y-21900000D01*
X55200000Y-21929474D01*
X55200000Y-21959095D01*
X55205779Y-21988149D01*
X55208682Y-22017620D01*
X55217278Y-22045958D01*
X55223058Y-22075014D01*
X55234395Y-22102384D01*
X55242991Y-22130721D01*
X55256949Y-22156834D01*
X55268287Y-22184207D01*
X55284748Y-22208843D01*
X55298705Y-22234954D01*
X55317488Y-22257841D01*
X55333950Y-22282478D01*
X55354901Y-22303429D01*
X55373684Y-22326316D01*
X55396571Y-22345099D01*
X55417522Y-22366050D01*
X55442159Y-22382512D01*
X55465046Y-22401295D01*
X55491157Y-22415252D01*
X55515793Y-22431713D01*
X55543166Y-22443051D01*
X55569279Y-22457009D01*
X55597616Y-22465605D01*
X55624986Y-22476942D01*
X55654042Y-22482722D01*
X55682380Y-22491318D01*
X55711851Y-22494221D01*
X55740905Y-22500000D01*
X55770526Y-22500000D01*
X55800000Y-22502903D01*
X55829474Y-22500000D01*
X55859095Y-22500000D01*
X55888149Y-22494221D01*
X55917620Y-22491318D01*
X55945958Y-22482722D01*
X55975014Y-22476942D01*
X56002384Y-22465605D01*
X56030721Y-22457009D01*
X56056834Y-22443051D01*
X56084207Y-22431713D01*
X56108843Y-22415252D01*
X56134954Y-22401295D01*
X56157842Y-22382511D01*
X56182478Y-22366050D01*
X56266050Y-22282478D01*
X56266052Y-22282475D01*
X57853426Y-20695103D01*
X57876317Y-20676317D01*
X57951296Y-20584955D01*
X58007010Y-20480721D01*
X58036312Y-20384122D01*
X75775000Y-20384122D01*
X75775000Y-20595878D01*
X75816312Y-20803566D01*
X75897348Y-20999203D01*
X76014993Y-21175272D01*
X76164728Y-21325007D01*
X76340797Y-21442652D01*
X76536434Y-21523688D01*
X76744122Y-21565000D01*
X76955878Y-21565000D01*
X77163566Y-21523688D01*
X77359203Y-21442652D01*
X77535272Y-21325007D01*
X77685007Y-21175272D01*
X77802652Y-20999203D01*
X77883688Y-20803566D01*
X77925000Y-20595878D01*
X77925000Y-20384122D01*
X77883688Y-20176434D01*
X77802652Y-19980797D01*
X77685007Y-19804728D01*
X77535272Y-19654993D01*
X77359203Y-19537348D01*
X77163566Y-19456312D01*
X76955878Y-19415000D01*
X76744122Y-19415000D01*
X76536434Y-19456312D01*
X76340797Y-19537348D01*
X76164728Y-19654993D01*
X76014993Y-19804728D01*
X75897348Y-19980797D01*
X75816312Y-20176434D01*
X75775000Y-20384122D01*
X58036312Y-20384122D01*
X58041318Y-20367621D01*
X58050000Y-20279474D01*
X58050000Y-20279473D01*
X58052903Y-20250001D01*
X58050000Y-20220527D01*
X58050000Y-18698528D01*
X58403424Y-18345105D01*
X58426317Y-18326317D01*
X58448979Y-18298704D01*
X58473941Y-18268287D01*
X58501296Y-18234955D01*
X58557010Y-18130721D01*
X58591318Y-18017621D01*
X58600000Y-17929474D01*
X58600000Y-17929467D01*
X58602902Y-17900001D01*
X58600000Y-17870535D01*
X58600000Y-11329473D01*
X58602903Y-11300000D01*
X58600000Y-11270526D01*
X58600000Y-9588443D01*
X59325000Y-9588443D01*
X59325000Y-9711557D01*
X59349019Y-9832306D01*
X59396132Y-9946048D01*
X59464531Y-10048414D01*
X59551586Y-10135469D01*
X59600001Y-10167819D01*
X59600000Y-12232812D01*
X59598307Y-12250000D01*
X59600000Y-12267188D01*
X59605065Y-12318611D01*
X59625078Y-12384586D01*
X59657578Y-12445389D01*
X59701315Y-12498684D01*
X59714676Y-12509649D01*
X59886360Y-12681334D01*
X59875000Y-12738443D01*
X59875000Y-12861557D01*
X59899019Y-12982306D01*
X59946132Y-13096048D01*
X60014531Y-13198414D01*
X60101586Y-13285469D01*
X60203952Y-13353868D01*
X60317694Y-13400981D01*
X60438443Y-13425000D01*
X60561557Y-13425000D01*
X60682306Y-13400981D01*
X60796048Y-13353868D01*
X60898414Y-13285469D01*
X60985469Y-13198414D01*
X61053868Y-13096048D01*
X61100981Y-12982306D01*
X61125000Y-12861557D01*
X61125000Y-12738443D01*
X61100981Y-12617694D01*
X61053868Y-12503952D01*
X60985469Y-12401586D01*
X60898414Y-12314531D01*
X60796048Y-12246132D01*
X60682306Y-12199019D01*
X60561557Y-12175000D01*
X60438443Y-12175000D01*
X60381334Y-12186360D01*
X60300000Y-12105027D01*
X60300000Y-10167818D01*
X60348414Y-10135469D01*
X60435469Y-10048414D01*
X60503868Y-9946048D01*
X60550981Y-9832306D01*
X60575000Y-9711557D01*
X60575000Y-9588443D01*
X60550981Y-9467694D01*
X60503868Y-9353952D01*
X60435469Y-9251586D01*
X60348414Y-9164531D01*
X60246048Y-9096132D01*
X60132306Y-9049019D01*
X60011557Y-9025000D01*
X59888443Y-9025000D01*
X59767694Y-9049019D01*
X59653952Y-9096132D01*
X59551586Y-9164531D01*
X59464531Y-9251586D01*
X59396132Y-9353952D01*
X59349019Y-9467694D01*
X59325000Y-9588443D01*
X58600000Y-9588443D01*
X58600000Y-8208527D01*
X63753536Y-3054992D01*
X63854122Y-3075000D01*
X64065878Y-3075000D01*
X64273566Y-3033688D01*
X64307770Y-3019520D01*
X69607621Y-8319372D01*
X69622499Y-8337501D01*
X69694827Y-8396859D01*
X69777346Y-8440966D01*
X69839722Y-8459888D01*
X69866883Y-8468127D01*
X69959999Y-8477298D01*
X69983331Y-8475000D01*
X73341111Y-8475000D01*
X73351580Y-8485469D01*
X73453946Y-8553868D01*
X73567688Y-8600981D01*
X73688437Y-8625000D01*
X73811551Y-8625000D01*
X73932300Y-8600981D01*
X74046042Y-8553868D01*
X74148408Y-8485469D01*
X74235463Y-8398414D01*
X74303862Y-8296048D01*
X74350975Y-8182306D01*
X74374994Y-8061557D01*
X74374994Y-7938443D01*
X74350975Y-7817694D01*
X74303862Y-7703952D01*
X74235463Y-7601586D01*
X74148408Y-7514531D01*
X74046042Y-7446132D01*
X73932300Y-7399019D01*
X73811551Y-7375000D01*
X73688437Y-7375000D01*
X73567688Y-7399019D01*
X73453946Y-7446132D01*
X73351580Y-7514531D01*
X73341111Y-7525000D01*
X70156751Y-7525000D01*
X69322656Y-6690905D01*
X73900000Y-6690905D01*
X73900000Y-6809095D01*
X73923058Y-6925014D01*
X73968287Y-7034207D01*
X74033950Y-7132478D01*
X74117522Y-7216050D01*
X74215793Y-7281713D01*
X74324986Y-7326942D01*
X74440905Y-7350000D01*
X74559095Y-7350000D01*
X74675014Y-7326942D01*
X74784207Y-7281713D01*
X74785725Y-7280698D01*
X77157620Y-9652595D01*
X77150000Y-9690905D01*
X77150000Y-9809095D01*
X77173058Y-9925014D01*
X77218287Y-10034207D01*
X77283950Y-10132478D01*
X77367522Y-10216050D01*
X77465793Y-10281713D01*
X77574986Y-10326942D01*
X77690905Y-10350000D01*
X77809095Y-10350000D01*
X77925014Y-10326942D01*
X78034207Y-10281713D01*
X78132478Y-10216050D01*
X78216050Y-10132478D01*
X78281713Y-10034207D01*
X78326942Y-9925014D01*
X78350000Y-9809095D01*
X78350000Y-9690905D01*
X78326942Y-9574986D01*
X78281713Y-9465793D01*
X78216050Y-9367522D01*
X78132478Y-9283950D01*
X78034207Y-9218287D01*
X77925014Y-9173058D01*
X77809095Y-9150000D01*
X77690905Y-9150000D01*
X77652595Y-9157620D01*
X75078676Y-6583703D01*
X75076942Y-6574986D01*
X75031713Y-6465793D01*
X74966050Y-6367522D01*
X74882478Y-6283950D01*
X74784207Y-6218287D01*
X74675014Y-6173058D01*
X74559095Y-6150000D01*
X74440905Y-6150000D01*
X74324986Y-6173058D01*
X74215793Y-6218287D01*
X74117522Y-6283950D01*
X74033950Y-6367522D01*
X73968287Y-6465793D01*
X73923058Y-6574986D01*
X73900000Y-6690905D01*
X69322656Y-6690905D01*
X65702004Y-3070253D01*
X74925000Y-3070253D01*
X74925000Y-3429747D01*
X74995134Y-3782333D01*
X75132706Y-4114461D01*
X75332430Y-4413369D01*
X75586631Y-4667570D01*
X75885539Y-4867294D01*
X76217667Y-5004866D01*
X76570253Y-5075000D01*
X76929747Y-5075000D01*
X77282333Y-5004866D01*
X77614461Y-4867294D01*
X77913369Y-4667570D01*
X78167570Y-4413369D01*
X78367294Y-4114461D01*
X78504866Y-3782333D01*
X78575000Y-3429747D01*
X78575000Y-3070253D01*
X78504866Y-2717667D01*
X78367294Y-2385539D01*
X78167570Y-2086631D01*
X77913369Y-1832430D01*
X77614461Y-1632706D01*
X77282333Y-1495134D01*
X76929747Y-1425000D01*
X76570253Y-1425000D01*
X76217667Y-1495134D01*
X75885539Y-1632706D01*
X75586631Y-1832430D01*
X75332430Y-2086631D01*
X75132706Y-2385539D01*
X74995134Y-2717667D01*
X74925000Y-3070253D01*
X65702004Y-3070253D01*
X64979520Y-2347770D01*
X64993688Y-2313566D01*
X65035000Y-2105878D01*
X65035000Y-1894122D01*
X64993688Y-1686434D01*
X64912652Y-1490797D01*
X64795007Y-1314728D01*
X64645272Y-1164993D01*
X64469203Y-1047348D01*
X64273566Y-966312D01*
X64065878Y-925000D01*
X63854122Y-925000D01*
X63646434Y-966312D01*
X63450797Y-1047348D01*
X63274728Y-1164993D01*
X63124993Y-1314728D01*
X63007348Y-1490797D01*
X62926312Y-1686434D01*
X62885000Y-1894122D01*
X62885000Y-2105878D01*
X62905008Y-2206464D01*
X59734858Y-5376615D01*
X59776942Y-5275014D01*
X59800000Y-5159095D01*
X59800000Y-5040905D01*
X59776942Y-4924986D01*
X59731713Y-4815793D01*
X59666050Y-4717522D01*
X59582478Y-4633950D01*
X59484207Y-4568287D01*
X59375014Y-4523058D01*
X59259095Y-4500000D01*
X59140905Y-4500000D01*
X59024986Y-4523058D01*
X58915793Y-4568287D01*
X58817522Y-4633950D01*
X58733950Y-4717522D01*
X58668287Y-4815793D01*
X58623058Y-4924986D01*
X58600000Y-5040905D01*
X58600000Y-5159095D01*
X58607620Y-5197405D01*
X54950011Y-8855016D01*
X54950011Y-8494962D01*
X60672348Y-2772627D01*
X60734728Y-2835007D01*
X60910797Y-2952652D01*
X61106434Y-3033688D01*
X61314122Y-3075000D01*
X61525878Y-3075000D01*
X61733566Y-3033688D01*
X61929203Y-2952652D01*
X62105272Y-2835007D01*
X62255007Y-2685272D01*
X62372652Y-2509203D01*
X62453688Y-2313566D01*
X62495000Y-2105878D01*
X62495000Y-1894122D01*
X62453688Y-1686434D01*
X62372652Y-1490797D01*
X62255007Y-1314728D01*
X62105272Y-1164993D01*
X61929203Y-1047348D01*
X61733566Y-966312D01*
X61525878Y-925000D01*
X61314122Y-925000D01*
X61106434Y-966312D01*
X60910797Y-1047348D01*
X60734728Y-1164993D01*
X60584993Y-1314728D01*
X60467348Y-1490797D01*
X60386312Y-1686434D01*
X60345000Y-1894122D01*
X60345000Y-2105878D01*
X60345688Y-2109337D01*
X54550000Y-7905027D01*
X54550000Y-5379273D01*
X55179285Y-4749989D01*
X56462823Y-4749989D01*
X56480011Y-4751682D01*
X56497199Y-4749989D01*
X56497200Y-4749989D01*
X56548623Y-4744924D01*
X56614598Y-4724911D01*
X56675401Y-4692411D01*
X56728696Y-4648674D01*
X56739665Y-4635308D01*
X58407230Y-2967743D01*
X58566434Y-3033688D01*
X58774122Y-3075000D01*
X58985878Y-3075000D01*
X59193566Y-3033688D01*
X59389203Y-2952652D01*
X59565272Y-2835007D01*
X59715007Y-2685272D01*
X59832652Y-2509203D01*
X59913688Y-2313566D01*
X59955000Y-2105878D01*
X59955000Y-1894122D01*
X59913688Y-1686434D01*
X59832652Y-1490797D01*
X59715007Y-1314728D01*
X59565272Y-1164993D01*
X59389203Y-1047348D01*
X59193566Y-966312D01*
X58985878Y-925000D01*
X58774122Y-925000D01*
X58566434Y-966312D01*
X58370797Y-1047348D01*
X58194728Y-1164993D01*
X58044993Y-1314728D01*
X57927348Y-1490797D01*
X57846312Y-1686434D01*
X57805000Y-1894122D01*
X57805000Y-2105878D01*
X57846312Y-2313566D01*
X57912257Y-2472770D01*
X56335038Y-4049989D01*
X55051500Y-4049989D01*
X55034311Y-4048296D01*
X55017122Y-4049989D01*
X54965699Y-4055054D01*
X54899724Y-4075067D01*
X54838921Y-4107567D01*
X54785626Y-4151304D01*
X54774662Y-4164664D01*
X54150000Y-4789327D01*
X54150000Y-4684973D01*
X55867231Y-2967744D01*
X56026434Y-3033688D01*
X56234122Y-3075000D01*
X56445878Y-3075000D01*
X56653566Y-3033688D01*
X56849203Y-2952652D01*
X57025272Y-2835007D01*
X57175007Y-2685272D01*
X57292652Y-2509203D01*
X57373688Y-2313566D01*
X57415000Y-2105878D01*
X57415000Y-1894122D01*
X57373688Y-1686434D01*
X57292652Y-1490797D01*
X57175007Y-1314728D01*
X57025272Y-1164993D01*
X56849203Y-1047348D01*
X56653566Y-966312D01*
X56445878Y-925000D01*
X56234122Y-925000D01*
X56026434Y-966312D01*
X55830797Y-1047348D01*
X55654728Y-1164993D01*
X55504993Y-1314728D01*
X55387348Y-1490797D01*
X55306312Y-1686434D01*
X55265000Y-1894122D01*
X55265000Y-2105878D01*
X55306312Y-2313566D01*
X55372256Y-2472769D01*
X53564676Y-4280351D01*
X53551315Y-4291316D01*
X53507578Y-4344611D01*
X53475078Y-4405414D01*
X53467199Y-4431389D01*
X53455065Y-4471389D01*
X53448307Y-4540000D01*
X53450000Y-4557188D01*
X53450001Y-14417027D01*
X52400004Y-15467025D01*
X52400004Y-15440905D01*
X52376946Y-15324986D01*
X52331717Y-15215793D01*
X52266054Y-15117522D01*
X52182482Y-15033950D01*
X52084211Y-14968287D01*
X51975018Y-14923058D01*
X51859099Y-14900000D01*
X51740909Y-14900000D01*
X51702598Y-14907621D01*
X51584658Y-14789681D01*
X51573690Y-14776316D01*
X51520395Y-14732579D01*
X51459592Y-14700079D01*
X51393617Y-14680066D01*
X51342194Y-14675001D01*
X51342193Y-14675001D01*
X51325005Y-14673308D01*
X51307817Y-14675001D01*
X50751231Y-14675001D01*
X42688551Y-6612321D01*
X42752319Y-6599637D01*
X42861512Y-6554408D01*
X42959783Y-6488745D01*
X43043355Y-6405173D01*
X43109018Y-6306902D01*
X43154247Y-6197709D01*
X43177305Y-6081790D01*
X43177305Y-6037979D01*
X44524662Y-7385336D01*
X44535626Y-7398696D01*
X44588921Y-7442433D01*
X44649724Y-7474933D01*
X44715699Y-7494946D01*
X44784311Y-7501704D01*
X44801500Y-7500011D01*
X47105038Y-7500011D01*
X51507620Y-11902595D01*
X51505953Y-11910979D01*
X47959654Y-8364681D01*
X47948685Y-8351315D01*
X47895390Y-8307578D01*
X47834587Y-8275078D01*
X47768612Y-8255065D01*
X47717189Y-8250000D01*
X47717188Y-8250000D01*
X47700000Y-8248307D01*
X47687446Y-8249544D01*
X47666050Y-8217522D01*
X47582478Y-8133950D01*
X47484207Y-8068287D01*
X47375014Y-8023058D01*
X47259095Y-8000000D01*
X47140905Y-8000000D01*
X47024986Y-8023058D01*
X46915793Y-8068287D01*
X46817522Y-8133950D01*
X46733950Y-8217522D01*
X46668287Y-8315793D01*
X46623058Y-8424986D01*
X46600000Y-8540905D01*
X46600000Y-8605027D01*
X45959654Y-7964681D01*
X45948685Y-7951315D01*
X45895390Y-7907578D01*
X45834587Y-7875078D01*
X45768612Y-7855065D01*
X45717189Y-7850000D01*
X45717188Y-7850000D01*
X45700000Y-7848307D01*
X45687446Y-7849544D01*
X45666050Y-7817522D01*
X45582478Y-7733950D01*
X45484207Y-7668287D01*
X45375014Y-7623058D01*
X45259095Y-7600000D01*
X45140905Y-7600000D01*
X45024986Y-7623058D01*
X44915793Y-7668287D01*
X44817522Y-7733950D01*
X44733950Y-7817522D01*
X44668287Y-7915793D01*
X44623058Y-8024986D01*
X44600000Y-8140905D01*
X44600000Y-8259095D01*
X44623058Y-8375014D01*
X44668287Y-8484207D01*
X44733950Y-8582478D01*
X44817522Y-8666050D01*
X44915793Y-8731713D01*
X45024986Y-8776942D01*
X45140905Y-8800000D01*
X45259095Y-8800000D01*
X45375014Y-8776942D01*
X45484207Y-8731713D01*
X45582478Y-8666050D01*
X45626777Y-8621751D01*
X50907620Y-13902595D01*
X50900000Y-13940905D01*
X50900000Y-14059095D01*
X50923058Y-14175014D01*
X50968287Y-14284207D01*
X51033950Y-14382478D01*
X51117522Y-14466050D01*
X51215793Y-14531713D01*
X51324986Y-14576942D01*
X51440905Y-14600000D01*
X51559095Y-14600000D01*
X51675014Y-14576942D01*
X51784207Y-14531713D01*
X51882478Y-14466050D01*
X51966050Y-14382478D01*
X52031713Y-14284207D01*
X52076942Y-14175014D01*
X52100000Y-14059095D01*
X52100000Y-13940905D01*
X52076942Y-13824986D01*
X52031713Y-13715793D01*
X51966050Y-13617522D01*
X51882478Y-13533950D01*
X51784207Y-13468287D01*
X51675014Y-13423058D01*
X51559095Y-13400000D01*
X51440905Y-13400000D01*
X51402595Y-13407620D01*
X47194973Y-9200000D01*
X47259095Y-9200000D01*
X47375014Y-9176942D01*
X47484207Y-9131713D01*
X47582478Y-9066050D01*
X47626777Y-9021751D01*
X52107621Y-13502594D01*
X52100000Y-13540905D01*
X52100000Y-13659095D01*
X52123058Y-13775014D01*
X52168287Y-13884207D01*
X52233950Y-13982478D01*
X52317522Y-14066050D01*
X52415793Y-14131713D01*
X52524986Y-14176942D01*
X52640905Y-14200000D01*
X52759095Y-14200000D01*
X52875014Y-14176942D01*
X52984207Y-14131713D01*
X53082478Y-14066050D01*
X53166050Y-13982478D01*
X53231713Y-13884207D01*
X53276942Y-13775014D01*
X53300000Y-13659095D01*
X53300000Y-13540905D01*
X53276942Y-13424986D01*
X53231713Y-13315793D01*
X53166050Y-13217522D01*
X53082478Y-13133950D01*
X52984207Y-13068287D01*
X52875014Y-13023058D01*
X52759095Y-13000000D01*
X52640905Y-13000000D01*
X52602594Y-13007621D01*
X52189021Y-12594047D01*
X52275014Y-12576942D01*
X52384207Y-12531713D01*
X52482478Y-12466050D01*
X52566050Y-12382478D01*
X52631713Y-12284207D01*
X52676942Y-12175014D01*
X52700000Y-12059095D01*
X52700000Y-11940905D01*
X52676942Y-11824986D01*
X52631713Y-11715793D01*
X52566050Y-11617522D01*
X52482478Y-11533950D01*
X52384207Y-11468287D01*
X52275014Y-11423058D01*
X52159095Y-11400000D01*
X52040905Y-11400000D01*
X52002595Y-11407620D01*
X47694973Y-7100000D01*
X48205027Y-7100000D01*
X51107620Y-10002595D01*
X51100000Y-10040905D01*
X51100000Y-10159095D01*
X51123058Y-10275014D01*
X51168287Y-10384207D01*
X51233950Y-10482478D01*
X51317522Y-10566050D01*
X51415793Y-10631713D01*
X51524986Y-10676942D01*
X51640905Y-10700000D01*
X51759095Y-10700000D01*
X51875014Y-10676942D01*
X51984207Y-10631713D01*
X52082478Y-10566050D01*
X52166050Y-10482478D01*
X52231713Y-10384207D01*
X52276942Y-10275014D01*
X52300000Y-10159095D01*
X52300000Y-10040905D01*
X52276942Y-9924986D01*
X52231713Y-9815793D01*
X52166050Y-9717522D01*
X52082478Y-9633950D01*
X51984207Y-9568287D01*
X51875014Y-9523058D01*
X51759095Y-9500000D01*
X51640905Y-9500000D01*
X51602595Y-9507620D01*
X48609654Y-6514680D01*
X48598685Y-6501315D01*
X48545390Y-6457578D01*
X48484587Y-6425078D01*
X48418612Y-6405065D01*
X48367189Y-6400000D01*
X48367188Y-6400000D01*
X48350000Y-6398307D01*
X48332812Y-6400000D01*
X46417503Y-6400000D01*
X46464653Y-6368495D01*
X46593495Y-6239653D01*
X46694725Y-6088152D01*
X46764453Y-5919813D01*
X46800000Y-5741105D01*
X46800000Y-5558895D01*
X49800000Y-5558895D01*
X49800000Y-5741105D01*
X49835547Y-5919813D01*
X49905275Y-6088152D01*
X50006505Y-6239653D01*
X50135347Y-6368495D01*
X50286848Y-6469725D01*
X50455187Y-6539453D01*
X50633895Y-6575000D01*
X50816105Y-6575000D01*
X50994813Y-6539453D01*
X51163152Y-6469725D01*
X51314653Y-6368495D01*
X51443495Y-6239653D01*
X51544725Y-6088152D01*
X51614453Y-5919813D01*
X51650000Y-5741105D01*
X51650000Y-5558895D01*
X51614453Y-5380187D01*
X51544725Y-5211848D01*
X51443495Y-5060347D01*
X51314653Y-4931505D01*
X51163152Y-4830275D01*
X50994813Y-4760547D01*
X50816105Y-4725000D01*
X50633895Y-4725000D01*
X50455187Y-4760547D01*
X50286848Y-4830275D01*
X50135347Y-4931505D01*
X50006505Y-5060347D01*
X49905275Y-5211848D01*
X49835547Y-5380187D01*
X49800000Y-5558895D01*
X46800000Y-5558895D01*
X46764453Y-5380187D01*
X46694725Y-5211848D01*
X46593495Y-5060347D01*
X46464653Y-4931505D01*
X46313152Y-4830275D01*
X46144813Y-4760547D01*
X45966105Y-4725000D01*
X45783895Y-4725000D01*
X45605187Y-4760547D01*
X45436848Y-4830275D01*
X45285347Y-4931505D01*
X45156505Y-5060347D01*
X45055275Y-5211848D01*
X44985547Y-5380187D01*
X44950000Y-5558895D01*
X44950000Y-5741105D01*
X44985547Y-5919813D01*
X45055275Y-6088152D01*
X45156505Y-6239653D01*
X45285347Y-6368495D01*
X45332497Y-6400000D01*
X45094974Y-6400000D01*
X41309548Y-2614574D01*
X43325000Y-2614574D01*
X43325000Y-2885426D01*
X43377841Y-3151073D01*
X43481491Y-3401307D01*
X43631968Y-3626511D01*
X43823489Y-3818032D01*
X44048693Y-3968509D01*
X44298927Y-4072159D01*
X44564574Y-4125000D01*
X44835426Y-4125000D01*
X45101073Y-4072159D01*
X45351307Y-3968509D01*
X45576511Y-3818032D01*
X45768032Y-3626511D01*
X45918509Y-3401307D01*
X46022159Y-3151073D01*
X46075000Y-2885426D01*
X46075000Y-2614574D01*
X50525000Y-2614574D01*
X50525000Y-2885426D01*
X50577841Y-3151073D01*
X50681491Y-3401307D01*
X50831968Y-3626511D01*
X51023489Y-3818032D01*
X51248693Y-3968509D01*
X51498927Y-4072159D01*
X51764574Y-4125000D01*
X52035426Y-4125000D01*
X52301073Y-4072159D01*
X52551307Y-3968509D01*
X52776511Y-3818032D01*
X52968032Y-3626511D01*
X53118509Y-3401307D01*
X53222159Y-3151073D01*
X53275000Y-2885426D01*
X53275000Y-2614574D01*
X53222159Y-2348927D01*
X53118509Y-2098693D01*
X52968032Y-1873489D01*
X52776511Y-1681968D01*
X52551307Y-1531491D01*
X52301073Y-1427841D01*
X52035426Y-1375000D01*
X51764574Y-1375000D01*
X51498927Y-1427841D01*
X51248693Y-1531491D01*
X51023489Y-1681968D01*
X50831968Y-1873489D01*
X50681491Y-2098693D01*
X50577841Y-2348927D01*
X50525000Y-2614574D01*
X46075000Y-2614574D01*
X46022159Y-2348927D01*
X45918509Y-2098693D01*
X45768032Y-1873489D01*
X45576511Y-1681968D01*
X45351307Y-1531491D01*
X45101073Y-1427841D01*
X44835426Y-1375000D01*
X44564574Y-1375000D01*
X44298927Y-1427841D01*
X44048693Y-1531491D01*
X43823489Y-1681968D01*
X43631968Y-1873489D01*
X43481491Y-2098693D01*
X43377841Y-2348927D01*
X43325000Y-2614574D01*
X41309548Y-2614574D01*
X40059654Y-1364681D01*
X40048685Y-1351315D01*
X39995390Y-1307578D01*
X39934587Y-1275078D01*
X39868612Y-1255065D01*
X39817189Y-1250000D01*
X39817188Y-1250000D01*
X39800000Y-1248307D01*
X39782812Y-1250000D01*
X34098528Y-1250000D01*
X34153550Y-1194978D01*
X34219213Y-1096707D01*
X34264442Y-987514D01*
X34287500Y-871595D01*
X34287500Y-753405D01*
X34264442Y-637486D01*
X34219213Y-528293D01*
X34153550Y-430022D01*
X34069978Y-346450D01*
X33971707Y-280787D01*
X33897380Y-250000D01*
X79750001Y-250000D01*
X79750000Y-24750032D01*
X39575276Y-24755054D01*
X39601863Y-24737289D01*
X39644302Y-24714605D01*
X39681502Y-24684076D01*
X39721527Y-24657332D01*
X39755566Y-24623293D01*
X39792765Y-24592765D01*
X39823295Y-24555564D01*
X39857332Y-24521527D01*
X39884076Y-24481502D01*
X39914605Y-24444302D01*
X39937289Y-24401863D01*
X39964034Y-24361836D01*
X39982458Y-24317356D01*
X40005140Y-24274921D01*
X40019107Y-24228879D01*
X40037532Y-24184397D01*
X40046924Y-24137178D01*
X40060892Y-24091133D01*
X40065609Y-24043243D01*
X40075000Y-23996029D01*
X40075000Y-23947892D01*
X40079717Y-23900000D01*
X40075000Y-23852108D01*
X40075000Y-23803971D01*
X40065609Y-23756757D01*
X40060892Y-23708867D01*
X40046924Y-23662822D01*
X40037532Y-23615603D01*
X40019107Y-23571121D01*
X40005140Y-23525079D01*
X39982458Y-23482644D01*
X39964034Y-23438164D01*
X39937289Y-23398137D01*
X39914605Y-23355698D01*
X39884076Y-23318498D01*
X39857332Y-23278473D01*
X39823294Y-23244435D01*
X39792765Y-23207235D01*
X39755564Y-23176705D01*
X39721527Y-23142668D01*
X39681502Y-23115924D01*
X39644302Y-23085395D01*
X39601863Y-23062711D01*
X39561836Y-23035966D01*
X39517356Y-23017542D01*
X39474921Y-22994860D01*
X39428879Y-22980893D01*
X39384397Y-22962468D01*
X39337178Y-22953076D01*
X39291133Y-22939108D01*
X39243243Y-22934391D01*
X39196029Y-22925000D01*
X38443198Y-22925000D01*
X38442320Y-22924122D01*
X75775000Y-22924122D01*
X75775000Y-23135878D01*
X75816312Y-23343566D01*
X75897348Y-23539203D01*
X76014993Y-23715272D01*
X76164728Y-23865007D01*
X76340797Y-23982652D01*
X76536434Y-24063688D01*
X76744122Y-24105000D01*
X76955878Y-24105000D01*
X77163566Y-24063688D01*
X77359203Y-23982652D01*
X77535272Y-23865007D01*
X77685007Y-23715272D01*
X77802652Y-23539203D01*
X77883688Y-23343566D01*
X77925000Y-23135878D01*
X77925000Y-22924122D01*
X77883688Y-22716434D01*
X77802652Y-22520797D01*
X77685007Y-22344728D01*
X77535272Y-22194993D01*
X77359203Y-22077348D01*
X77163566Y-21996312D01*
X76955878Y-21955000D01*
X76744122Y-21955000D01*
X76536434Y-21996312D01*
X76340797Y-22077348D01*
X76164728Y-22194993D01*
X76014993Y-22344728D01*
X75897348Y-22520797D01*
X75816312Y-22716434D01*
X75775000Y-22924122D01*
X38442320Y-22924122D01*
X37874700Y-22356503D01*
X37874700Y-15404319D01*
X37865309Y-15357105D01*
X37860592Y-15309215D01*
X37846624Y-15263170D01*
X37837232Y-15215951D01*
X37818807Y-15171469D01*
X37804840Y-15125427D01*
X37782158Y-15082992D01*
X37763734Y-15038512D01*
X37736989Y-14998485D01*
X37714305Y-14956046D01*
X37683776Y-14918846D01*
X37657032Y-14878821D01*
X37622995Y-14844784D01*
X37600000Y-14816764D01*
X37600000Y-14400026D01*
X40597097Y-14400026D01*
X40600001Y-14429510D01*
X40600000Y-18740905D01*
X40600000Y-18770527D01*
X40600001Y-20170517D01*
X40597097Y-20200000D01*
X40608682Y-20317620D01*
X40630691Y-20390174D01*
X40642991Y-20430721D01*
X40698705Y-20534955D01*
X40773684Y-20626317D01*
X40796581Y-20645109D01*
X42154891Y-22003419D01*
X42173683Y-22026317D01*
X42265045Y-22101296D01*
X42369279Y-22157010D01*
X42458937Y-22184207D01*
X42482379Y-22191318D01*
X42600000Y-22202903D01*
X42629474Y-22200000D01*
X43159095Y-22200000D01*
X43188148Y-22194221D01*
X43217621Y-22191318D01*
X43245963Y-22182721D01*
X43275014Y-22176942D01*
X43302377Y-22165608D01*
X43330721Y-22157010D01*
X43356844Y-22143047D01*
X43384207Y-22131713D01*
X43408832Y-22115259D01*
X43434955Y-22101296D01*
X43457853Y-22082504D01*
X43482478Y-22066050D01*
X43503419Y-22045109D01*
X43526317Y-22026317D01*
X43545109Y-22003419D01*
X43566050Y-21982478D01*
X43582504Y-21957853D01*
X43601296Y-21934955D01*
X43615259Y-21908832D01*
X43631713Y-21884207D01*
X43643047Y-21856844D01*
X43651566Y-21840905D01*
X48200000Y-21840905D01*
X48200000Y-21959095D01*
X48223058Y-22075014D01*
X48268287Y-22184207D01*
X48333950Y-22282478D01*
X48417522Y-22366050D01*
X48515793Y-22431713D01*
X48624986Y-22476942D01*
X48740905Y-22500000D01*
X48859095Y-22500000D01*
X48975014Y-22476942D01*
X49084207Y-22431713D01*
X49182478Y-22366050D01*
X49266050Y-22282478D01*
X49331713Y-22184207D01*
X49376942Y-22075014D01*
X49400000Y-21959095D01*
X49400000Y-21840905D01*
X49376942Y-21724986D01*
X49331713Y-21615793D01*
X49266050Y-21517522D01*
X49182478Y-21433950D01*
X49084207Y-21368287D01*
X48975014Y-21323058D01*
X48859095Y-21300000D01*
X48740905Y-21300000D01*
X48624986Y-21323058D01*
X48515793Y-21368287D01*
X48417522Y-21433950D01*
X48333950Y-21517522D01*
X48268287Y-21615793D01*
X48223058Y-21724986D01*
X48200000Y-21840905D01*
X43651566Y-21840905D01*
X43657010Y-21830721D01*
X43665608Y-21802377D01*
X43676942Y-21775014D01*
X43682721Y-21745963D01*
X43691318Y-21717621D01*
X43694221Y-21688148D01*
X43700000Y-21659095D01*
X43700000Y-21629474D01*
X43702903Y-21600000D01*
X43700000Y-21570526D01*
X43700000Y-21540905D01*
X43694221Y-21511852D01*
X43691318Y-21482379D01*
X43682721Y-21454037D01*
X43676942Y-21424986D01*
X43665608Y-21397623D01*
X43657010Y-21369279D01*
X43643047Y-21343156D01*
X43631713Y-21315793D01*
X43615259Y-21291168D01*
X43601296Y-21265045D01*
X43582504Y-21242147D01*
X43566050Y-21217522D01*
X43545109Y-21196581D01*
X43526317Y-21173683D01*
X43503419Y-21154891D01*
X43482478Y-21133950D01*
X43457853Y-21117496D01*
X43434955Y-21098704D01*
X43408832Y-21084741D01*
X43384207Y-21068287D01*
X43356844Y-21056953D01*
X43330721Y-21042990D01*
X43302377Y-21034392D01*
X43275014Y-21023058D01*
X43245963Y-21017279D01*
X43217621Y-21008682D01*
X43188148Y-21005779D01*
X43159095Y-21000000D01*
X42848528Y-21000000D01*
X41800000Y-19951473D01*
X41800000Y-14648553D01*
X42545131Y-13903423D01*
X42566076Y-13882478D01*
X42582534Y-13857848D01*
X42601321Y-13834955D01*
X42615281Y-13808839D01*
X42631739Y-13784207D01*
X42643075Y-13756839D01*
X42657035Y-13730722D01*
X42665632Y-13702382D01*
X42676968Y-13675014D01*
X42682747Y-13645961D01*
X42691344Y-13617621D01*
X42694247Y-13588148D01*
X42700026Y-13559095D01*
X42700026Y-13529474D01*
X42702929Y-13500000D01*
X42700026Y-13470526D01*
X42700026Y-13440905D01*
X42694247Y-13411851D01*
X42691344Y-13382380D01*
X42682748Y-13354042D01*
X42676968Y-13324986D01*
X42665631Y-13297616D01*
X42657035Y-13269279D01*
X42643077Y-13243166D01*
X42631739Y-13215793D01*
X42615278Y-13191157D01*
X42601321Y-13165046D01*
X42582538Y-13142159D01*
X42566076Y-13117522D01*
X42545125Y-13096571D01*
X42526342Y-13073684D01*
X42503455Y-13054901D01*
X42482504Y-13033950D01*
X42457867Y-13017488D01*
X42434980Y-12998705D01*
X42408869Y-12984748D01*
X42384233Y-12968287D01*
X42356860Y-12956949D01*
X42330747Y-12942991D01*
X42302410Y-12934395D01*
X42275040Y-12923058D01*
X42245984Y-12917278D01*
X42217646Y-12908682D01*
X42188175Y-12905779D01*
X42159121Y-12900000D01*
X42129500Y-12900000D01*
X42100026Y-12897097D01*
X42070552Y-12900000D01*
X42040931Y-12900000D01*
X42011878Y-12905779D01*
X41982405Y-12908682D01*
X41954065Y-12917279D01*
X41925012Y-12923058D01*
X41897644Y-12934394D01*
X41869304Y-12942991D01*
X41843187Y-12956951D01*
X41815819Y-12968287D01*
X41791187Y-12984745D01*
X41765071Y-12998705D01*
X41742178Y-13017492D01*
X41717548Y-13033950D01*
X41696603Y-13054895D01*
X40796581Y-13954918D01*
X40773684Y-13973709D01*
X40698705Y-14065071D01*
X40663084Y-14131713D01*
X40642991Y-14169305D01*
X40608682Y-14282406D01*
X40597097Y-14400026D01*
X37600000Y-14400026D01*
X37600000Y-11998527D01*
X38793680Y-10804849D01*
X38796048Y-10803868D01*
X38898414Y-10735469D01*
X38985469Y-10648414D01*
X39053868Y-10546048D01*
X39100981Y-10432306D01*
X39125000Y-10311557D01*
X39125000Y-10188443D01*
X39100981Y-10067694D01*
X39053868Y-9953952D01*
X38985469Y-9851586D01*
X38898414Y-9764531D01*
X38796048Y-9696132D01*
X38682306Y-9649019D01*
X38561557Y-9625000D01*
X38438443Y-9625000D01*
X38317694Y-9649019D01*
X38203952Y-9696132D01*
X38101586Y-9764531D01*
X38014531Y-9851586D01*
X37946132Y-9953952D01*
X37945151Y-9956320D01*
X36596586Y-11304887D01*
X36573683Y-11323683D01*
X36498704Y-11415046D01*
X36442990Y-11519280D01*
X36413189Y-11617522D01*
X36408682Y-11632380D01*
X36397097Y-11750000D01*
X36400000Y-11779474D01*
X36400001Y-14661613D01*
X36397837Y-14663059D01*
X36355398Y-14685743D01*
X36318198Y-14716272D01*
X36278173Y-14743016D01*
X36244136Y-14777053D01*
X36206935Y-14807583D01*
X36176405Y-14844784D01*
X36142368Y-14878821D01*
X36115624Y-14918846D01*
X36085095Y-14956046D01*
X36062412Y-14998484D01*
X36035666Y-15038512D01*
X36017240Y-15082996D01*
X35994560Y-15125428D01*
X35980594Y-15171466D01*
X35962168Y-15215951D01*
X35952775Y-15263173D01*
X35938808Y-15309216D01*
X35934091Y-15357104D01*
X35924700Y-15404319D01*
X35924700Y-15452457D01*
X35924701Y-22712458D01*
X35919983Y-22760360D01*
X35938808Y-22951493D01*
X35979428Y-23085395D01*
X35994561Y-23135281D01*
X36085096Y-23304662D01*
X36206936Y-23453125D01*
X36244142Y-23483659D01*
X37316040Y-24555558D01*
X37346575Y-24592765D01*
X37495038Y-24714605D01*
X37571182Y-24755304D01*
X250000Y-24759969D01*
X250000Y-23240901D01*
X7400000Y-23240901D01*
X7400000Y-23359091D01*
X7423058Y-23475010D01*
X7468287Y-23584203D01*
X7533950Y-23682474D01*
X7617522Y-23766046D01*
X7715793Y-23831709D01*
X7824986Y-23876938D01*
X7940905Y-23899996D01*
X8059095Y-23899996D01*
X8175014Y-23876938D01*
X8284207Y-23831709D01*
X8369083Y-23774996D01*
X9201672Y-23774996D01*
X9225004Y-23777294D01*
X9248336Y-23774996D01*
X9318120Y-23768123D01*
X9407658Y-23740962D01*
X9490177Y-23696855D01*
X9562505Y-23637497D01*
X9577388Y-23619362D01*
X12474893Y-20721857D01*
X12575014Y-20701942D01*
X12684207Y-20656713D01*
X12782478Y-20591050D01*
X12866050Y-20507478D01*
X12931713Y-20409207D01*
X12976942Y-20300014D01*
X13000000Y-20184095D01*
X13000000Y-20065905D01*
X12976942Y-19949986D01*
X12931713Y-19840793D01*
X12866050Y-19742522D01*
X12782478Y-19658950D01*
X12684207Y-19593287D01*
X12575014Y-19548058D01*
X12459095Y-19525000D01*
X12340905Y-19525000D01*
X12224986Y-19548058D01*
X12115793Y-19593287D01*
X12017522Y-19658950D01*
X11933950Y-19742522D01*
X11868287Y-19840793D01*
X11823058Y-19949986D01*
X11803143Y-20050107D01*
X9028254Y-22824996D01*
X8369083Y-22824996D01*
X8284207Y-22768283D01*
X8175014Y-22723054D01*
X8059095Y-22699996D01*
X7940905Y-22699996D01*
X7824986Y-22723054D01*
X7715793Y-22768283D01*
X7617522Y-22833946D01*
X7533950Y-22917518D01*
X7468287Y-23015789D01*
X7423058Y-23124982D01*
X7400000Y-23240901D01*
X250000Y-23240901D01*
X250000Y-15820253D01*
X1525000Y-15820253D01*
X1525000Y-16179747D01*
X1595134Y-16532333D01*
X1732706Y-16864461D01*
X1932430Y-17163369D01*
X2186631Y-17417570D01*
X2485539Y-17617294D01*
X2817667Y-17754866D01*
X3170253Y-17825000D01*
X3529747Y-17825000D01*
X3882333Y-17754866D01*
X4214461Y-17617294D01*
X4328785Y-17540905D01*
X11455050Y-17540905D01*
X11455050Y-17659095D01*
X11478108Y-17775014D01*
X11523337Y-17884207D01*
X11589000Y-17982478D01*
X11672572Y-18066050D01*
X11770843Y-18131713D01*
X11880036Y-18176942D01*
X11980157Y-18196858D01*
X13699999Y-19916701D01*
X13700000Y-22708157D01*
X13624986Y-22723078D01*
X13515793Y-22768307D01*
X13417522Y-22833970D01*
X13333950Y-22917542D01*
X13268287Y-23015813D01*
X13223058Y-23125006D01*
X13200000Y-23240925D01*
X13200000Y-23359115D01*
X13223058Y-23475034D01*
X13268287Y-23584227D01*
X13333950Y-23682498D01*
X13417522Y-23766070D01*
X13515793Y-23831733D01*
X13624986Y-23876962D01*
X13740905Y-23900020D01*
X13859095Y-23900020D01*
X13975014Y-23876962D01*
X14084207Y-23831733D01*
X14182478Y-23766070D01*
X14266050Y-23682498D01*
X14331713Y-23584227D01*
X14376942Y-23475034D01*
X14396857Y-23374914D01*
X14494375Y-23277397D01*
X14512500Y-23262522D01*
X14571858Y-23190194D01*
X14615965Y-23107675D01*
X14643126Y-23018137D01*
X14649999Y-22948353D01*
X14652297Y-22925021D01*
X14649999Y-22901689D01*
X14649999Y-19743281D01*
X14652297Y-19719949D01*
X14643126Y-19626833D01*
X14615965Y-19537295D01*
X14609393Y-19525000D01*
X14571858Y-19454776D01*
X14512500Y-19382448D01*
X14494376Y-19367574D01*
X12651908Y-17525107D01*
X12631992Y-17424986D01*
X12586763Y-17315793D01*
X12521100Y-17217522D01*
X12437528Y-17133950D01*
X12339257Y-17068287D01*
X12230064Y-17023058D01*
X12114145Y-17000000D01*
X11995955Y-17000000D01*
X11880036Y-17023058D01*
X11770843Y-17068287D01*
X11672572Y-17133950D01*
X11589000Y-17217522D01*
X11523337Y-17315793D01*
X11478108Y-17424986D01*
X11455050Y-17540905D01*
X4328785Y-17540905D01*
X4513369Y-17417570D01*
X4767570Y-17163369D01*
X4967294Y-16864461D01*
X5104866Y-16532333D01*
X5175000Y-16179747D01*
X5175000Y-15820253D01*
X5104866Y-15467667D01*
X4967294Y-15135539D01*
X4767570Y-14836631D01*
X4513369Y-14582430D01*
X4214461Y-14382706D01*
X3882333Y-14245134D01*
X3529747Y-14175000D01*
X3170253Y-14175000D01*
X2817667Y-14245134D01*
X2485539Y-14382706D01*
X2186631Y-14582430D01*
X1932430Y-14836631D01*
X1732706Y-15135539D01*
X1595134Y-15467667D01*
X1525000Y-15820253D01*
X250000Y-15820253D01*
X250000Y-2718745D01*
X8675000Y-2718745D01*
X8675000Y-2881255D01*
X8706704Y-3040644D01*
X8768894Y-3190784D01*
X8859181Y-3325907D01*
X8974093Y-3440819D01*
X9109216Y-3531106D01*
X9259356Y-3593296D01*
X9418745Y-3625000D01*
X9581255Y-3625000D01*
X9740644Y-3593296D01*
X9890784Y-3531106D01*
X10025907Y-3440819D01*
X10140819Y-3325907D01*
X10231106Y-3190784D01*
X10293296Y-3040644D01*
X10325000Y-2881255D01*
X10325000Y-2718745D01*
X11775000Y-2718745D01*
X11775000Y-2881255D01*
X11806704Y-3040644D01*
X11868894Y-3190784D01*
X11959181Y-3325907D01*
X12074093Y-3440819D01*
X12209216Y-3531106D01*
X12359356Y-3593296D01*
X12518745Y-3625000D01*
X12681255Y-3625000D01*
X12840644Y-3593296D01*
X12990784Y-3531106D01*
X13125907Y-3440819D01*
X13240819Y-3325907D01*
X13331106Y-3190784D01*
X13393296Y-3040644D01*
X13425000Y-2881255D01*
X13425000Y-2718745D01*
X13393296Y-2559356D01*
X13331106Y-2409216D01*
X13240819Y-2274093D01*
X13125907Y-2159181D01*
X12990784Y-2068894D01*
X12840644Y-2006704D01*
X12681255Y-1975000D01*
X12518745Y-1975000D01*
X12359356Y-2006704D01*
X12209216Y-2068894D01*
X12074093Y-2159181D01*
X11959181Y-2274093D01*
X11868894Y-2409216D01*
X11806704Y-2559356D01*
X11775000Y-2718745D01*
X10325000Y-2718745D01*
X10293296Y-2559356D01*
X10231106Y-2409216D01*
X10140819Y-2274093D01*
X10025907Y-2159181D01*
X9890784Y-2068894D01*
X9740644Y-2006704D01*
X9581255Y-1975000D01*
X9418745Y-1975000D01*
X9259356Y-2006704D01*
X9109216Y-2068894D01*
X8974093Y-2159181D01*
X8859181Y-2274093D01*
X8768894Y-2409216D01*
X8706704Y-2559356D01*
X8675000Y-2718745D01*
X250000Y-2718745D01*
X250000Y-250000D01*
X10483274Y-250000D01*
X10409181Y-324093D01*
G04 #@! TA.AperFunction,Conductor*
G36*
X10409181Y-324093D02*
G01*
X10318894Y-459216D01*
X10256704Y-609356D01*
X10225000Y-768745D01*
X10225000Y-931255D01*
X10256704Y-1090644D01*
X10318894Y-1240784D01*
X10409181Y-1375907D01*
X10524093Y-1490819D01*
X10659216Y-1581106D01*
X10809356Y-1643296D01*
X10968745Y-1675000D01*
X11131255Y-1675000D01*
X11290644Y-1643296D01*
X11440784Y-1581106D01*
X11575907Y-1490819D01*
X11690819Y-1375907D01*
X11781106Y-1240784D01*
X11843296Y-1090644D01*
X11875000Y-931255D01*
X11875000Y-768745D01*
X11843296Y-609356D01*
X11781106Y-459216D01*
X11690819Y-324093D01*
X11616726Y-250000D01*
X33477620Y-250000D01*
X33417264Y-275000D01*
X18023332Y-275000D01*
X18000000Y-272702D01*
X17906883Y-281873D01*
X17879722Y-290112D01*
X17817346Y-309034D01*
X17734827Y-353141D01*
X17662499Y-412499D01*
X17647621Y-430628D01*
X7455638Y-10622612D01*
X7437509Y-10637490D01*
X7378151Y-10709818D01*
X7338529Y-10783947D01*
X7334044Y-10792337D01*
X7306882Y-10881875D01*
X7297711Y-10974991D01*
X7300010Y-10998333D01*
X7300009Y-12090425D01*
X7243296Y-12175302D01*
X7198067Y-12284495D01*
X7175009Y-12400414D01*
X7175009Y-12518604D01*
X7198067Y-12634523D01*
X7243296Y-12743716D01*
X7308959Y-12841987D01*
X7392531Y-12925559D01*
X7490802Y-12991222D01*
X7599995Y-13036451D01*
X7715914Y-13059509D01*
X7834104Y-13059509D01*
X7950023Y-13036451D01*
X8059216Y-12991222D01*
X8157487Y-12925559D01*
X8241059Y-12841987D01*
X8306722Y-12743716D01*
X8351951Y-12634523D01*
X8375009Y-12518604D01*
X8375009Y-12400414D01*
X8351951Y-12284495D01*
X8306722Y-12175302D01*
X8250009Y-12090426D01*
X8250009Y-11171741D01*
X10571750Y-8850000D01*
X14497097Y-8850000D01*
X14500000Y-8879474D01*
X14500000Y-8929474D01*
X14508682Y-9017621D01*
X14542990Y-9130721D01*
X14598704Y-9234955D01*
X14673684Y-9326317D01*
X14765046Y-9401296D01*
X14869280Y-9457010D01*
X14982380Y-9491318D01*
X15100000Y-9502903D01*
X15217621Y-9491318D01*
X15330721Y-9457010D01*
X15434955Y-9401296D01*
X15497459Y-9350000D01*
X21166117Y-9350000D01*
X21201586Y-9385469D01*
X21303952Y-9453868D01*
X21417694Y-9500981D01*
X21538443Y-9525000D01*
X21661557Y-9525000D01*
X21782306Y-9500981D01*
X21896048Y-9453868D01*
X21998414Y-9385469D01*
X22085469Y-9298414D01*
X22153868Y-9196048D01*
X22200981Y-9082306D01*
X22225000Y-8961557D01*
X22225000Y-8838443D01*
X22200981Y-8717694D01*
X22153868Y-8603952D01*
X22085469Y-8501586D01*
X21998414Y-8414531D01*
X21896048Y-8346132D01*
X21894067Y-8345311D01*
X21876317Y-8323683D01*
X21784955Y-8248704D01*
X21680721Y-8192990D01*
X21567621Y-8158682D01*
X21479474Y-8150000D01*
X21450000Y-8147097D01*
X21420526Y-8150000D01*
X15229473Y-8150000D01*
X15199999Y-8147097D01*
X15123833Y-8154599D01*
X15082379Y-8158682D01*
X14969279Y-8192990D01*
X14865045Y-8248704D01*
X14773683Y-8323683D01*
X14754890Y-8346582D01*
X14717524Y-8383949D01*
X14717522Y-8383950D01*
X14696581Y-8404891D01*
X14673683Y-8423683D01*
X14654894Y-8446578D01*
X14633950Y-8467522D01*
X14617494Y-8492151D01*
X14598704Y-8515046D01*
X14584744Y-8541164D01*
X14568287Y-8565793D01*
X14556951Y-8593161D01*
X14542990Y-8619280D01*
X14534393Y-8647620D01*
X14523058Y-8674986D01*
X14517278Y-8704042D01*
X14508682Y-8732380D01*
X14505779Y-8761851D01*
X14500000Y-8790905D01*
X14500000Y-8820526D01*
X14497097Y-8850000D01*
X10571750Y-8850000D01*
X13983308Y-5438442D01*
X24125001Y-5438442D01*
X24125001Y-5561556D01*
X24149020Y-5682305D01*
X24196133Y-5796047D01*
X24264532Y-5898413D01*
X24351587Y-5985468D01*
X24453953Y-6053867D01*
X24567695Y-6100980D01*
X24688444Y-6124999D01*
X24811558Y-6124999D01*
X24932307Y-6100980D01*
X25046049Y-6053867D01*
X25148415Y-5985468D01*
X25235470Y-5898413D01*
X25303869Y-5796047D01*
X25350982Y-5682305D01*
X25375001Y-5561556D01*
X25375001Y-5546749D01*
X26820260Y-4101491D01*
X26938443Y-4125000D01*
X27061557Y-4125000D01*
X27182306Y-4100981D01*
X27296048Y-4053868D01*
X27398414Y-3985469D01*
X27485469Y-3898414D01*
X27553868Y-3796048D01*
X27600981Y-3682306D01*
X27625000Y-3561557D01*
X27625000Y-3438443D01*
X27600981Y-3317694D01*
X27553868Y-3203952D01*
X27485469Y-3101586D01*
X27398414Y-3014531D01*
X27296048Y-2946132D01*
X27182306Y-2899019D01*
X27061557Y-2875000D01*
X26938443Y-2875000D01*
X26817694Y-2899019D01*
X26703952Y-2946132D01*
X26601586Y-3014531D01*
X26545298Y-3070819D01*
X26484827Y-3103141D01*
X26412499Y-3162499D01*
X26397625Y-3180623D01*
X24703251Y-4874999D01*
X24688444Y-4874999D01*
X24567695Y-4899018D01*
X24453953Y-4946131D01*
X24351587Y-5014530D01*
X24264532Y-5101585D01*
X24196133Y-5203951D01*
X24149020Y-5317693D01*
X24125001Y-5438442D01*
X13983308Y-5438442D01*
X18196751Y-1225000D01*
X33251472Y-1225000D01*
X33276472Y-1250000D01*
X19617183Y-1250000D01*
X19599997Y-1248307D01*
X19582811Y-1250000D01*
X19582809Y-1250000D01*
X19531386Y-1255065D01*
X19465411Y-1275078D01*
X19404608Y-1307578D01*
X19351313Y-1351315D01*
X19340354Y-1364670D01*
X16797404Y-3907621D01*
X16759093Y-3900000D01*
X16640903Y-3900000D01*
X16524984Y-3923058D01*
X16415791Y-3968287D01*
X16317520Y-4033950D01*
X16233948Y-4117522D01*
X16168285Y-4215793D01*
X16123056Y-4324986D01*
X16099998Y-4440905D01*
X16099998Y-4559095D01*
X16123056Y-4675014D01*
X16168285Y-4784207D01*
X16233948Y-4882478D01*
X16317520Y-4966050D01*
X16415791Y-5031713D01*
X16524984Y-5076942D01*
X16640903Y-5100000D01*
X16759093Y-5100000D01*
X16875012Y-5076942D01*
X16984205Y-5031713D01*
X17082476Y-4966050D01*
X17166048Y-4882478D01*
X17231711Y-4784207D01*
X17276940Y-4675014D01*
X17299998Y-4559095D01*
X17299998Y-4440905D01*
X17292377Y-4402594D01*
X19744973Y-1950000D01*
X39655027Y-1950000D01*
X39755027Y-2050000D01*
X21617196Y-2050000D01*
X21600000Y-2048306D01*
X21531388Y-2055065D01*
X21465413Y-2075078D01*
X21404610Y-2107578D01*
X21351315Y-2151315D01*
X21340355Y-2164670D01*
X20847406Y-2657621D01*
X20809095Y-2650000D01*
X20690905Y-2650000D01*
X20574986Y-2673058D01*
X20465793Y-2718287D01*
X20367522Y-2783950D01*
X20283950Y-2867522D01*
X20218287Y-2965793D01*
X20173058Y-3074986D01*
X20150000Y-3190905D01*
X20150000Y-3309095D01*
X20173058Y-3425014D01*
X20218287Y-3534207D01*
X20283950Y-3632478D01*
X20367522Y-3716050D01*
X20465793Y-3781713D01*
X20574986Y-3826942D01*
X20690905Y-3850000D01*
X20809095Y-3850000D01*
X20925014Y-3826942D01*
X21034207Y-3781713D01*
X21132478Y-3716050D01*
X21216050Y-3632478D01*
X21281713Y-3534207D01*
X21326942Y-3425014D01*
X21350000Y-3309095D01*
X21350000Y-3190905D01*
X21342379Y-3152594D01*
X21744975Y-2750000D01*
X39889327Y-2750000D01*
X42562021Y-5422695D01*
X42518210Y-5422695D01*
X42479900Y-5430315D01*
X40014263Y-2964680D01*
X40003295Y-2951315D01*
X39950000Y-2907578D01*
X39889197Y-2875078D01*
X39823222Y-2855065D01*
X39771799Y-2850000D01*
X39771798Y-2850000D01*
X39754610Y-2848307D01*
X39737422Y-2850000D01*
X28817188Y-2850000D01*
X28799999Y-2848307D01*
X28731387Y-2855065D01*
X28711374Y-2861136D01*
X28665413Y-2875078D01*
X28604610Y-2907578D01*
X28551315Y-2951315D01*
X28540356Y-2964669D01*
X19355027Y-12150000D01*
X16437751Y-12150000D01*
X16416050Y-12117522D01*
X16332478Y-12033950D01*
X16234207Y-11968287D01*
X16125014Y-11923058D01*
X16009095Y-11900000D01*
X15890905Y-11900000D01*
X15774986Y-11923058D01*
X15665793Y-11968287D01*
X15567522Y-12033950D01*
X15483950Y-12117522D01*
X15418287Y-12215793D01*
X15373058Y-12324986D01*
X15350000Y-12440905D01*
X15350000Y-12559095D01*
X15373058Y-12675014D01*
X15418287Y-12784207D01*
X15483950Y-12882478D01*
X15567522Y-12966050D01*
X15665793Y-13031713D01*
X15774986Y-13076942D01*
X15890905Y-13100000D01*
X16009095Y-13100000D01*
X16125014Y-13076942D01*
X16234207Y-13031713D01*
X16332478Y-12966050D01*
X16416050Y-12882478D01*
X16437751Y-12850000D01*
X19482812Y-12850000D01*
X19500000Y-12851693D01*
X19517188Y-12850000D01*
X19517189Y-12850000D01*
X19568612Y-12844935D01*
X19634587Y-12824922D01*
X19695390Y-12792422D01*
X19748685Y-12748685D01*
X19759654Y-12735319D01*
X28944975Y-3550000D01*
X39609637Y-3550000D01*
X39756385Y-3696748D01*
X39715843Y-3675078D01*
X39649868Y-3655065D01*
X39598445Y-3650000D01*
X39598444Y-3650000D01*
X39581256Y-3648307D01*
X39564068Y-3650000D01*
X29017185Y-3650000D01*
X28999999Y-3648307D01*
X28982813Y-3650000D01*
X28982811Y-3650000D01*
X28931388Y-3655065D01*
X28865413Y-3675078D01*
X28804610Y-3707578D01*
X28751315Y-3751315D01*
X28740356Y-3764669D01*
X18655027Y-13850000D01*
X17387751Y-13850000D01*
X17366050Y-13817522D01*
X17282478Y-13733950D01*
X17184207Y-13668287D01*
X17075014Y-13623058D01*
X16959095Y-13600000D01*
X16840905Y-13600000D01*
X16724986Y-13623058D01*
X16615793Y-13668287D01*
X16517522Y-13733950D01*
X16433950Y-13817522D01*
X16368287Y-13915793D01*
X16323058Y-14024986D01*
X16300000Y-14140905D01*
X16300000Y-14259095D01*
X16323058Y-14375014D01*
X16368287Y-14484207D01*
X16433950Y-14582478D01*
X16517522Y-14666050D01*
X16615793Y-14731713D01*
X16724986Y-14776942D01*
X16840905Y-14800000D01*
X16959095Y-14800000D01*
X17075014Y-14776942D01*
X17184207Y-14731713D01*
X17282478Y-14666050D01*
X17366050Y-14582478D01*
X17387751Y-14550000D01*
X18782812Y-14550000D01*
X18800000Y-14551693D01*
X18817188Y-14550000D01*
X18817189Y-14550000D01*
X18868612Y-14544935D01*
X18934587Y-14524922D01*
X18995390Y-14492422D01*
X19048685Y-14448685D01*
X19059654Y-14435319D01*
X29144975Y-4350000D01*
X39436283Y-4350000D01*
X49093033Y-14006751D01*
X49059095Y-14000000D01*
X48940905Y-14000000D01*
X48902594Y-14007621D01*
X39459654Y-4564681D01*
X39448685Y-4551315D01*
X39395390Y-4507578D01*
X39334587Y-4475078D01*
X39268612Y-4455065D01*
X39217189Y-4450000D01*
X39217188Y-4450000D01*
X39200000Y-4448307D01*
X39182812Y-4450000D01*
X29217189Y-4450000D01*
X29200000Y-4448307D01*
X29131388Y-4455065D01*
X29065412Y-4475078D01*
X29018787Y-4500000D01*
X29004610Y-4507578D01*
X28951315Y-4551315D01*
X28940356Y-4564669D01*
X18455027Y-15050000D01*
X13394975Y-15050000D01*
X12842379Y-14497406D01*
X12850000Y-14459095D01*
X12850000Y-14340905D01*
X12826942Y-14224986D01*
X12781713Y-14115793D01*
X12716050Y-14017522D01*
X12632478Y-13933950D01*
X12534207Y-13868287D01*
X12425014Y-13823058D01*
X12309095Y-13800000D01*
X12190905Y-13800000D01*
X12074986Y-13823058D01*
X11965793Y-13868287D01*
X11867522Y-13933950D01*
X11783950Y-14017522D01*
X11718287Y-14115793D01*
X11673058Y-14224986D01*
X11650000Y-14340905D01*
X11650000Y-14459095D01*
X11673058Y-14575014D01*
X11718287Y-14684207D01*
X11783950Y-14782478D01*
X11867522Y-14866050D01*
X11965793Y-14931713D01*
X12074986Y-14976942D01*
X12190905Y-15000000D01*
X12309095Y-15000000D01*
X12347406Y-14992379D01*
X12990355Y-15635330D01*
X13001315Y-15648685D01*
X13052403Y-15690611D01*
X13054610Y-15692422D01*
X13115413Y-15724922D01*
X13181388Y-15744935D01*
X13250000Y-15751694D01*
X13267196Y-15750000D01*
X18582812Y-15750000D01*
X18600000Y-15751693D01*
X18617188Y-15750000D01*
X18617189Y-15750000D01*
X18668612Y-15744935D01*
X18734587Y-15724922D01*
X18795390Y-15692422D01*
X18848685Y-15648685D01*
X18859654Y-15635319D01*
X27954069Y-6540905D01*
X28600000Y-6540905D01*
X28600000Y-6659095D01*
X28623058Y-6775014D01*
X28668287Y-6884207D01*
X28725001Y-6969085D01*
X28725000Y-11926668D01*
X28722702Y-11950000D01*
X28731873Y-12043116D01*
X28735360Y-12054611D01*
X28759034Y-12132653D01*
X28803141Y-12215173D01*
X28862499Y-12287501D01*
X28880634Y-12302384D01*
X29903143Y-13324894D01*
X29923058Y-13425014D01*
X29968287Y-13534207D01*
X30033950Y-13632478D01*
X30117522Y-13716050D01*
X30215793Y-13781713D01*
X30324986Y-13826942D01*
X30440905Y-13850000D01*
X30559095Y-13850000D01*
X30675014Y-13826942D01*
X30784207Y-13781713D01*
X30882478Y-13716050D01*
X30966050Y-13632478D01*
X31031713Y-13534207D01*
X31076942Y-13425014D01*
X31100000Y-13309095D01*
X31100000Y-13190905D01*
X31076942Y-13074986D01*
X31031713Y-12965793D01*
X30966050Y-12867522D01*
X30882478Y-12783950D01*
X30784207Y-12718287D01*
X30675014Y-12673058D01*
X30574894Y-12653143D01*
X29675000Y-11753250D01*
X29675000Y-6969083D01*
X29731713Y-6884207D01*
X29776942Y-6775014D01*
X29800000Y-6659095D01*
X29800000Y-6540905D01*
X29776942Y-6424986D01*
X29731713Y-6315793D01*
X29666050Y-6217522D01*
X29582478Y-6133950D01*
X29484207Y-6068287D01*
X29375014Y-6023058D01*
X29259095Y-6000000D01*
X29140905Y-6000000D01*
X29024986Y-6023058D01*
X28915793Y-6068287D01*
X28817522Y-6133950D01*
X28733950Y-6217522D01*
X28668287Y-6315793D01*
X28623058Y-6424986D01*
X28600000Y-6540905D01*
X27954069Y-6540905D01*
X29344975Y-5150000D01*
X39055027Y-5150000D01*
X48407621Y-14502594D01*
X48400000Y-14540905D01*
X48400000Y-14659095D01*
X48423058Y-14775014D01*
X48468287Y-14884207D01*
X48533950Y-14982478D01*
X48617522Y-15066050D01*
X48715793Y-15131713D01*
X48824986Y-15176942D01*
X48940905Y-15200000D01*
X49059095Y-15200000D01*
X49175014Y-15176942D01*
X49284207Y-15131713D01*
X49382478Y-15066050D01*
X49466050Y-14982478D01*
X49531713Y-14884207D01*
X49576942Y-14775014D01*
X49600000Y-14659095D01*
X49600000Y-14540905D01*
X49593249Y-14506967D01*
X50243212Y-15156930D01*
X50215793Y-15168287D01*
X50117522Y-15233950D01*
X50033950Y-15317522D01*
X50012249Y-15350000D01*
X46194974Y-15350000D01*
X42443226Y-11598253D01*
X42444221Y-11588148D01*
X42450000Y-11559095D01*
X42450000Y-10604474D01*
X42452903Y-10575000D01*
X42441318Y-10457379D01*
X42407010Y-10344279D01*
X42397743Y-10326942D01*
X42351296Y-10240045D01*
X42276317Y-10148683D01*
X42253419Y-10129891D01*
X37892350Y-5768823D01*
X37891368Y-5766452D01*
X37822969Y-5664086D01*
X37735914Y-5577031D01*
X37633548Y-5508632D01*
X37519806Y-5461519D01*
X37399057Y-5437500D01*
X37275943Y-5437500D01*
X37155194Y-5461519D01*
X37041452Y-5508632D01*
X36939086Y-5577031D01*
X36852031Y-5664086D01*
X36783632Y-5766452D01*
X36736519Y-5880194D01*
X36712500Y-6000943D01*
X36712500Y-6124057D01*
X36736519Y-6244806D01*
X36783632Y-6358548D01*
X36852031Y-6460914D01*
X36939086Y-6547969D01*
X37041452Y-6616368D01*
X37043823Y-6617350D01*
X41250001Y-10823529D01*
X41250000Y-11440905D01*
X41250000Y-11559095D01*
X41255779Y-11588149D01*
X41258682Y-11617620D01*
X41267279Y-11645960D01*
X41273058Y-11675014D01*
X41284393Y-11702380D01*
X41292990Y-11730720D01*
X41306951Y-11756839D01*
X41318287Y-11784207D01*
X41334744Y-11808836D01*
X41348704Y-11834954D01*
X41367494Y-11857849D01*
X41383950Y-11882478D01*
X41404892Y-11903420D01*
X41423683Y-11926317D01*
X41446581Y-11945109D01*
X41467522Y-11966050D01*
X41492147Y-11982504D01*
X41515045Y-12001296D01*
X41541168Y-12015259D01*
X41565793Y-12031713D01*
X41593156Y-12043047D01*
X41619279Y-12057010D01*
X41647623Y-12065608D01*
X41674986Y-12076942D01*
X41704037Y-12082721D01*
X41732379Y-12091318D01*
X41761852Y-12094221D01*
X41790905Y-12100000D01*
X41820526Y-12100000D01*
X41850000Y-12102903D01*
X41879474Y-12100000D01*
X41909095Y-12100000D01*
X41938149Y-12094221D01*
X41948253Y-12093226D01*
X45790351Y-15935325D01*
X45801315Y-15948685D01*
X45854610Y-15992422D01*
X45915413Y-16024922D01*
X45981388Y-16044935D01*
X46050000Y-16051693D01*
X46067189Y-16050000D01*
X50012249Y-16050000D01*
X50033950Y-16082478D01*
X50117522Y-16166050D01*
X50215793Y-16231713D01*
X50324986Y-16276942D01*
X50440905Y-16300000D01*
X50559095Y-16300000D01*
X50675014Y-16276942D01*
X50784207Y-16231713D01*
X50882478Y-16166050D01*
X50966050Y-16082478D01*
X51031713Y-15984207D01*
X51076942Y-15875014D01*
X51100000Y-15759095D01*
X51100000Y-15640905D01*
X51076942Y-15524986D01*
X51031713Y-15415793D01*
X51004456Y-15375001D01*
X51180032Y-15375001D01*
X51207625Y-15402594D01*
X51200004Y-15440905D01*
X51200004Y-15559095D01*
X51223062Y-15675014D01*
X51268291Y-15784207D01*
X51333954Y-15882478D01*
X51417526Y-15966050D01*
X51515797Y-16031713D01*
X51624990Y-16076942D01*
X51740909Y-16100000D01*
X51767029Y-16100000D01*
X51517021Y-16350008D01*
X50287751Y-16350008D01*
X50266050Y-16317530D01*
X50182478Y-16233958D01*
X50084207Y-16168295D01*
X49975014Y-16123066D01*
X49859095Y-16100008D01*
X49740905Y-16100008D01*
X49624986Y-16123066D01*
X49515793Y-16168295D01*
X49417522Y-16233958D01*
X49333950Y-16317530D01*
X49268287Y-16415801D01*
X49223058Y-16524994D01*
X49200000Y-16640913D01*
X49200000Y-16759103D01*
X49223058Y-16875022D01*
X49268287Y-16984215D01*
X49333950Y-17082486D01*
X49417522Y-17166058D01*
X49515793Y-17231721D01*
X49624986Y-17276950D01*
X49740905Y-17300008D01*
X49859095Y-17300008D01*
X49975014Y-17276950D01*
X50084207Y-17231721D01*
X50182478Y-17166058D01*
X50266050Y-17082486D01*
X50287751Y-17050008D01*
X51555019Y-17050008D01*
X51497406Y-17107621D01*
X51459095Y-17100000D01*
X51340905Y-17100000D01*
X51224986Y-17123058D01*
X51115793Y-17168287D01*
X51017522Y-17233950D01*
X50933950Y-17317522D01*
X50868287Y-17415793D01*
X50823058Y-17524986D01*
X50800000Y-17640905D01*
X50800000Y-17759095D01*
X50823058Y-17875014D01*
X50868287Y-17984207D01*
X50933950Y-18082478D01*
X51017522Y-18166050D01*
X51115793Y-18231713D01*
X51224986Y-18276942D01*
X51340905Y-18300000D01*
X51459095Y-18300000D01*
X51575014Y-18276942D01*
X51684207Y-18231713D01*
X51782478Y-18166050D01*
X51866050Y-18082478D01*
X51931713Y-17984207D01*
X51976942Y-17875014D01*
X52000000Y-17759095D01*
X52000000Y-17640905D01*
X51992379Y-17602594D01*
X53395255Y-16199719D01*
X53393175Y-16220832D01*
X53394868Y-16238021D01*
X53394869Y-17286634D01*
X53362390Y-17308336D01*
X53278818Y-17391908D01*
X53213155Y-17490179D01*
X53167926Y-17599372D01*
X53144868Y-17715291D01*
X53144868Y-17833481D01*
X53167926Y-17949400D01*
X53213155Y-18058593D01*
X53278818Y-18156864D01*
X53362390Y-18240436D01*
X53460661Y-18306099D01*
X53569854Y-18351328D01*
X53685773Y-18374386D01*
X53803963Y-18374386D01*
X53919882Y-18351328D01*
X54029075Y-18306099D01*
X54127346Y-18240436D01*
X54210918Y-18156864D01*
X54276581Y-18058593D01*
X54321810Y-17949400D01*
X54344868Y-17833481D01*
X54344868Y-17715291D01*
X54321810Y-17599372D01*
X54276581Y-17490179D01*
X54210918Y-17391908D01*
X54127346Y-17308336D01*
X54094868Y-17286635D01*
X54094868Y-16365805D01*
X54739847Y-15720827D01*
X54782911Y-15785277D01*
X54866483Y-15868849D01*
X54964754Y-15934512D01*
X55073947Y-15979741D01*
X55189866Y-16002799D01*
X55308056Y-16002799D01*
X55423975Y-15979741D01*
X55533168Y-15934512D01*
X55631439Y-15868849D01*
X55715011Y-15785277D01*
X55780674Y-15687006D01*
X55825903Y-15577813D01*
X55848961Y-15461894D01*
X55848961Y-15343704D01*
X55825903Y-15227785D01*
X55780674Y-15118592D01*
X55715011Y-15020321D01*
X55631439Y-14936749D01*
X55533168Y-14871086D01*
X55423975Y-14825857D01*
X55400000Y-14821088D01*
X55400000Y-9394973D01*
X59102595Y-5692380D01*
X59140905Y-5700000D01*
X59259095Y-5700000D01*
X59375014Y-5676942D01*
X59476615Y-5634858D01*
X57596582Y-7514891D01*
X57573684Y-7533683D01*
X57498705Y-7625045D01*
X57478686Y-7662499D01*
X57442991Y-7729279D01*
X57408682Y-7842380D01*
X57397097Y-7960000D01*
X57400001Y-7989484D01*
X57400000Y-10649997D01*
X57090908Y-10649997D01*
X57061855Y-10655776D01*
X57032382Y-10658679D01*
X57004040Y-10667276D01*
X56974989Y-10673055D01*
X56947626Y-10684389D01*
X56919282Y-10692987D01*
X56893159Y-10706950D01*
X56865796Y-10718284D01*
X56841171Y-10734738D01*
X56815048Y-10748701D01*
X56792150Y-10767493D01*
X56767525Y-10783947D01*
X56746584Y-10804888D01*
X56723686Y-10823680D01*
X56704894Y-10846578D01*
X56683953Y-10867519D01*
X56667499Y-10892144D01*
X56648707Y-10915042D01*
X56634744Y-10941165D01*
X56618290Y-10965790D01*
X56606956Y-10993153D01*
X56592993Y-11019276D01*
X56584395Y-11047620D01*
X56573061Y-11074983D01*
X56567282Y-11104034D01*
X56558685Y-11132376D01*
X56555782Y-11161849D01*
X56550003Y-11190902D01*
X56550003Y-11220523D01*
X56547100Y-11249997D01*
X56550003Y-11279471D01*
X56550003Y-11309092D01*
X56555782Y-11338145D01*
X56558685Y-11367618D01*
X56567282Y-11395960D01*
X56573061Y-11425011D01*
X56584395Y-11452374D01*
X56592993Y-11480718D01*
X56606956Y-11506841D01*
X56618290Y-11534204D01*
X56634744Y-11558829D01*
X56648707Y-11584952D01*
X56667499Y-11607850D01*
X56683953Y-11632475D01*
X56704894Y-11653416D01*
X56723686Y-11676314D01*
X56746584Y-11695106D01*
X56767525Y-11716047D01*
X56792150Y-11732501D01*
X56815048Y-11751293D01*
X56841171Y-11765256D01*
X56865796Y-11781710D01*
X56893159Y-11793044D01*
X56919282Y-11807007D01*
X56947626Y-11815605D01*
X56974989Y-11826939D01*
X57004040Y-11832718D01*
X57032382Y-11841315D01*
X57061855Y-11844218D01*
X57090908Y-11849997D01*
X57400001Y-11849997D01*
X57400000Y-13070526D01*
X57400000Y-13070527D01*
X57400001Y-17651471D01*
X57046576Y-18004896D01*
X57023684Y-18023683D01*
X57004897Y-18046575D01*
X56983950Y-18067522D01*
X56967492Y-18092153D01*
X56948705Y-18115045D01*
X56934746Y-18141160D01*
X56918287Y-18165793D01*
X56906949Y-18193165D01*
X56903296Y-18200000D01*
X56892991Y-18219279D01*
X56884395Y-18247616D01*
X56873058Y-18274986D01*
X56867278Y-18304042D01*
X56858682Y-18332380D01*
X56855779Y-18361851D01*
X56850000Y-18390905D01*
X56850000Y-18420526D01*
X56847097Y-18450000D01*
X56850000Y-18479474D01*
X56850000Y-18509095D01*
X56850001Y-18509100D01*
X56850000Y-20001471D01*
X55417525Y-21433948D01*
X55417522Y-21433950D01*
X55333950Y-21517522D01*
X55317489Y-21542158D01*
X55298705Y-21565046D01*
X55284748Y-21591157D01*
X55268287Y-21615793D01*
X55256949Y-21643166D01*
X55242991Y-21669279D01*
X55234395Y-21697616D01*
X55223058Y-21724986D01*
X55217278Y-21754042D01*
X55208682Y-21782380D01*
X55205779Y-21811851D01*
X55200000Y-21840905D01*
X55200000Y-21870526D01*
X55197097Y-21900000D01*
X55200000Y-21929474D01*
X55200000Y-21959095D01*
X55205779Y-21988149D01*
X55208682Y-22017620D01*
X55217278Y-22045958D01*
X55223058Y-22075014D01*
X55234395Y-22102384D01*
X55242991Y-22130721D01*
X55256949Y-22156834D01*
X55268287Y-22184207D01*
X55284748Y-22208843D01*
X55298705Y-22234954D01*
X55317488Y-22257841D01*
X55333950Y-22282478D01*
X55354901Y-22303429D01*
X55373684Y-22326316D01*
X55396571Y-22345099D01*
X55417522Y-22366050D01*
X55442159Y-22382512D01*
X55465046Y-22401295D01*
X55491157Y-22415252D01*
X55515793Y-22431713D01*
X55543166Y-22443051D01*
X55569279Y-22457009D01*
X55597616Y-22465605D01*
X55624986Y-22476942D01*
X55654042Y-22482722D01*
X55682380Y-22491318D01*
X55711851Y-22494221D01*
X55740905Y-22500000D01*
X55770526Y-22500000D01*
X55800000Y-22502903D01*
X55829474Y-22500000D01*
X55859095Y-22500000D01*
X55888149Y-22494221D01*
X55917620Y-22491318D01*
X55945958Y-22482722D01*
X55975014Y-22476942D01*
X56002384Y-22465605D01*
X56030721Y-22457009D01*
X56056834Y-22443051D01*
X56084207Y-22431713D01*
X56108843Y-22415252D01*
X56134954Y-22401295D01*
X56157842Y-22382511D01*
X56182478Y-22366050D01*
X56266050Y-22282478D01*
X56266052Y-22282475D01*
X57853426Y-20695103D01*
X57876317Y-20676317D01*
X57951296Y-20584955D01*
X58007010Y-20480721D01*
X58036312Y-20384122D01*
X75775000Y-20384122D01*
X75775000Y-20595878D01*
X75816312Y-20803566D01*
X75897348Y-20999203D01*
X76014993Y-21175272D01*
X76164728Y-21325007D01*
X76340797Y-21442652D01*
X76536434Y-21523688D01*
X76744122Y-21565000D01*
X76955878Y-21565000D01*
X77163566Y-21523688D01*
X77359203Y-21442652D01*
X77535272Y-21325007D01*
X77685007Y-21175272D01*
X77802652Y-20999203D01*
X77883688Y-20803566D01*
X77925000Y-20595878D01*
X77925000Y-20384122D01*
X77883688Y-20176434D01*
X77802652Y-19980797D01*
X77685007Y-19804728D01*
X77535272Y-19654993D01*
X77359203Y-19537348D01*
X77163566Y-19456312D01*
X76955878Y-19415000D01*
X76744122Y-19415000D01*
X76536434Y-19456312D01*
X76340797Y-19537348D01*
X76164728Y-19654993D01*
X76014993Y-19804728D01*
X75897348Y-19980797D01*
X75816312Y-20176434D01*
X75775000Y-20384122D01*
X58036312Y-20384122D01*
X58041318Y-20367621D01*
X58050000Y-20279474D01*
X58050000Y-20279473D01*
X58052903Y-20250001D01*
X58050000Y-20220527D01*
X58050000Y-18698528D01*
X58403424Y-18345105D01*
X58426317Y-18326317D01*
X58448979Y-18298704D01*
X58473941Y-18268287D01*
X58501296Y-18234955D01*
X58557010Y-18130721D01*
X58591318Y-18017621D01*
X58600000Y-17929474D01*
X58600000Y-17929467D01*
X58602902Y-17900001D01*
X58600000Y-17870535D01*
X58600000Y-11329473D01*
X58602903Y-11300000D01*
X58600000Y-11270526D01*
X58600000Y-9588443D01*
X59325000Y-9588443D01*
X59325000Y-9711557D01*
X59349019Y-9832306D01*
X59396132Y-9946048D01*
X59464531Y-10048414D01*
X59551586Y-10135469D01*
X59600001Y-10167819D01*
X59600000Y-12232812D01*
X59598307Y-12250000D01*
X59600000Y-12267188D01*
X59605065Y-12318611D01*
X59625078Y-12384586D01*
X59657578Y-12445389D01*
X59701315Y-12498684D01*
X59714676Y-12509649D01*
X59886360Y-12681334D01*
X59875000Y-12738443D01*
X59875000Y-12861557D01*
X59899019Y-12982306D01*
X59946132Y-13096048D01*
X60014531Y-13198414D01*
X60101586Y-13285469D01*
X60203952Y-13353868D01*
X60317694Y-13400981D01*
X60438443Y-13425000D01*
X60561557Y-13425000D01*
X60682306Y-13400981D01*
X60796048Y-13353868D01*
X60898414Y-13285469D01*
X60985469Y-13198414D01*
X61053868Y-13096048D01*
X61100981Y-12982306D01*
X61125000Y-12861557D01*
X61125000Y-12738443D01*
X61100981Y-12617694D01*
X61053868Y-12503952D01*
X60985469Y-12401586D01*
X60898414Y-12314531D01*
X60796048Y-12246132D01*
X60682306Y-12199019D01*
X60561557Y-12175000D01*
X60438443Y-12175000D01*
X60381334Y-12186360D01*
X60300000Y-12105027D01*
X60300000Y-10167818D01*
X60348414Y-10135469D01*
X60435469Y-10048414D01*
X60503868Y-9946048D01*
X60550981Y-9832306D01*
X60575000Y-9711557D01*
X60575000Y-9588443D01*
X60550981Y-9467694D01*
X60503868Y-9353952D01*
X60435469Y-9251586D01*
X60348414Y-9164531D01*
X60246048Y-9096132D01*
X60132306Y-9049019D01*
X60011557Y-9025000D01*
X59888443Y-9025000D01*
X59767694Y-9049019D01*
X59653952Y-9096132D01*
X59551586Y-9164531D01*
X59464531Y-9251586D01*
X59396132Y-9353952D01*
X59349019Y-9467694D01*
X59325000Y-9588443D01*
X58600000Y-9588443D01*
X58600000Y-8208527D01*
X63753536Y-3054992D01*
X63854122Y-3075000D01*
X64065878Y-3075000D01*
X64273566Y-3033688D01*
X64307770Y-3019520D01*
X69607621Y-8319372D01*
X69622499Y-8337501D01*
X69694827Y-8396859D01*
X69777346Y-8440966D01*
X69839722Y-8459888D01*
X69866883Y-8468127D01*
X69959999Y-8477298D01*
X69983331Y-8475000D01*
X73341111Y-8475000D01*
X73351580Y-8485469D01*
X73453946Y-8553868D01*
X73567688Y-8600981D01*
X73688437Y-8625000D01*
X73811551Y-8625000D01*
X73932300Y-8600981D01*
X74046042Y-8553868D01*
X74148408Y-8485469D01*
X74235463Y-8398414D01*
X74303862Y-8296048D01*
X74350975Y-8182306D01*
X74374994Y-8061557D01*
X74374994Y-7938443D01*
X74350975Y-7817694D01*
X74303862Y-7703952D01*
X74235463Y-7601586D01*
X74148408Y-7514531D01*
X74046042Y-7446132D01*
X73932300Y-7399019D01*
X73811551Y-7375000D01*
X73688437Y-7375000D01*
X73567688Y-7399019D01*
X73453946Y-7446132D01*
X73351580Y-7514531D01*
X73341111Y-7525000D01*
X70156751Y-7525000D01*
X69322656Y-6690905D01*
X73900000Y-6690905D01*
X73900000Y-6809095D01*
X73923058Y-6925014D01*
X73968287Y-7034207D01*
X74033950Y-7132478D01*
X74117522Y-7216050D01*
X74215793Y-7281713D01*
X74324986Y-7326942D01*
X74440905Y-7350000D01*
X74559095Y-7350000D01*
X74675014Y-7326942D01*
X74784207Y-7281713D01*
X74785725Y-7280698D01*
X77157620Y-9652595D01*
X77150000Y-9690905D01*
X77150000Y-9809095D01*
X77173058Y-9925014D01*
X77218287Y-10034207D01*
X77283950Y-10132478D01*
X77367522Y-10216050D01*
X77465793Y-10281713D01*
X77574986Y-10326942D01*
X77690905Y-10350000D01*
X77809095Y-10350000D01*
X77925014Y-10326942D01*
X78034207Y-10281713D01*
X78132478Y-10216050D01*
X78216050Y-10132478D01*
X78281713Y-10034207D01*
X78326942Y-9925014D01*
X78350000Y-9809095D01*
X78350000Y-9690905D01*
X78326942Y-9574986D01*
X78281713Y-9465793D01*
X78216050Y-9367522D01*
X78132478Y-9283950D01*
X78034207Y-9218287D01*
X77925014Y-9173058D01*
X77809095Y-9150000D01*
X77690905Y-9150000D01*
X77652595Y-9157620D01*
X75078676Y-6583703D01*
X75076942Y-6574986D01*
X75031713Y-6465793D01*
X74966050Y-6367522D01*
X74882478Y-6283950D01*
X74784207Y-6218287D01*
X74675014Y-6173058D01*
X74559095Y-6150000D01*
X74440905Y-6150000D01*
X74324986Y-6173058D01*
X74215793Y-6218287D01*
X74117522Y-6283950D01*
X74033950Y-6367522D01*
X73968287Y-6465793D01*
X73923058Y-6574986D01*
X73900000Y-6690905D01*
X69322656Y-6690905D01*
X65702004Y-3070253D01*
X74925000Y-3070253D01*
X74925000Y-3429747D01*
X74995134Y-3782333D01*
X75132706Y-4114461D01*
X75332430Y-4413369D01*
X75586631Y-4667570D01*
X75885539Y-4867294D01*
X76217667Y-5004866D01*
X76570253Y-5075000D01*
X76929747Y-5075000D01*
X77282333Y-5004866D01*
X77614461Y-4867294D01*
X77913369Y-4667570D01*
X78167570Y-4413369D01*
X78367294Y-4114461D01*
X78504866Y-3782333D01*
X78575000Y-3429747D01*
X78575000Y-3070253D01*
X78504866Y-2717667D01*
X78367294Y-2385539D01*
X78167570Y-2086631D01*
X77913369Y-1832430D01*
X77614461Y-1632706D01*
X77282333Y-1495134D01*
X76929747Y-1425000D01*
X76570253Y-1425000D01*
X76217667Y-1495134D01*
X75885539Y-1632706D01*
X75586631Y-1832430D01*
X75332430Y-2086631D01*
X75132706Y-2385539D01*
X74995134Y-2717667D01*
X74925000Y-3070253D01*
X65702004Y-3070253D01*
X64979520Y-2347770D01*
X64993688Y-2313566D01*
X65035000Y-2105878D01*
X65035000Y-1894122D01*
X64993688Y-1686434D01*
X64912652Y-1490797D01*
X64795007Y-1314728D01*
X64645272Y-1164993D01*
X64469203Y-1047348D01*
X64273566Y-966312D01*
X64065878Y-925000D01*
X63854122Y-925000D01*
X63646434Y-966312D01*
X63450797Y-1047348D01*
X63274728Y-1164993D01*
X63124993Y-1314728D01*
X63007348Y-1490797D01*
X62926312Y-1686434D01*
X62885000Y-1894122D01*
X62885000Y-2105878D01*
X62905008Y-2206464D01*
X59734858Y-5376615D01*
X59776942Y-5275014D01*
X59800000Y-5159095D01*
X59800000Y-5040905D01*
X59776942Y-4924986D01*
X59731713Y-4815793D01*
X59666050Y-4717522D01*
X59582478Y-4633950D01*
X59484207Y-4568287D01*
X59375014Y-4523058D01*
X59259095Y-4500000D01*
X59140905Y-4500000D01*
X59024986Y-4523058D01*
X58915793Y-4568287D01*
X58817522Y-4633950D01*
X58733950Y-4717522D01*
X58668287Y-4815793D01*
X58623058Y-4924986D01*
X58600000Y-5040905D01*
X58600000Y-5159095D01*
X58607620Y-5197405D01*
X54950011Y-8855016D01*
X54950011Y-8494962D01*
X60672348Y-2772627D01*
X60734728Y-2835007D01*
X60910797Y-2952652D01*
X61106434Y-3033688D01*
X61314122Y-3075000D01*
X61525878Y-3075000D01*
X61733566Y-3033688D01*
X61929203Y-2952652D01*
X62105272Y-2835007D01*
X62255007Y-2685272D01*
X62372652Y-2509203D01*
X62453688Y-2313566D01*
X62495000Y-2105878D01*
X62495000Y-1894122D01*
X62453688Y-1686434D01*
X62372652Y-1490797D01*
X62255007Y-1314728D01*
X62105272Y-1164993D01*
X61929203Y-1047348D01*
X61733566Y-966312D01*
X61525878Y-925000D01*
X61314122Y-925000D01*
X61106434Y-966312D01*
X60910797Y-1047348D01*
X60734728Y-1164993D01*
X60584993Y-1314728D01*
X60467348Y-1490797D01*
X60386312Y-1686434D01*
X60345000Y-1894122D01*
X60345000Y-2105878D01*
X60345688Y-2109337D01*
X54550000Y-7905027D01*
X54550000Y-5379273D01*
X55179285Y-4749989D01*
X56462823Y-4749989D01*
X56480011Y-4751682D01*
X56497199Y-4749989D01*
X56497200Y-4749989D01*
X56548623Y-4744924D01*
X56614598Y-4724911D01*
X56675401Y-4692411D01*
X56728696Y-4648674D01*
X56739665Y-4635308D01*
X58407230Y-2967743D01*
X58566434Y-3033688D01*
X58774122Y-3075000D01*
X58985878Y-3075000D01*
X59193566Y-3033688D01*
X59389203Y-2952652D01*
X59565272Y-2835007D01*
X59715007Y-2685272D01*
X59832652Y-2509203D01*
X59913688Y-2313566D01*
X59955000Y-2105878D01*
X59955000Y-1894122D01*
X59913688Y-1686434D01*
X59832652Y-1490797D01*
X59715007Y-1314728D01*
X59565272Y-1164993D01*
X59389203Y-1047348D01*
X59193566Y-966312D01*
X58985878Y-925000D01*
X58774122Y-925000D01*
X58566434Y-966312D01*
X58370797Y-1047348D01*
X58194728Y-1164993D01*
X58044993Y-1314728D01*
X57927348Y-1490797D01*
X57846312Y-1686434D01*
X57805000Y-1894122D01*
X57805000Y-2105878D01*
X57846312Y-2313566D01*
X57912257Y-2472770D01*
X56335038Y-4049989D01*
X55051500Y-4049989D01*
X55034311Y-4048296D01*
X55017122Y-4049989D01*
X54965699Y-4055054D01*
X54899724Y-4075067D01*
X54838921Y-4107567D01*
X54785626Y-4151304D01*
X54774662Y-4164664D01*
X54150000Y-4789327D01*
X54150000Y-4684973D01*
X55867231Y-2967744D01*
X56026434Y-3033688D01*
X56234122Y-3075000D01*
X56445878Y-3075000D01*
X56653566Y-3033688D01*
X56849203Y-2952652D01*
X57025272Y-2835007D01*
X57175007Y-2685272D01*
X57292652Y-2509203D01*
X57373688Y-2313566D01*
X57415000Y-2105878D01*
X57415000Y-1894122D01*
X57373688Y-1686434D01*
X57292652Y-1490797D01*
X57175007Y-1314728D01*
X57025272Y-1164993D01*
X56849203Y-1047348D01*
X56653566Y-966312D01*
X56445878Y-925000D01*
X56234122Y-925000D01*
X56026434Y-966312D01*
X55830797Y-1047348D01*
X55654728Y-1164993D01*
X55504993Y-1314728D01*
X55387348Y-1490797D01*
X55306312Y-1686434D01*
X55265000Y-1894122D01*
X55265000Y-2105878D01*
X55306312Y-2313566D01*
X55372256Y-2472769D01*
X53564676Y-4280351D01*
X53551315Y-4291316D01*
X53507578Y-4344611D01*
X53475078Y-4405414D01*
X53467199Y-4431389D01*
X53455065Y-4471389D01*
X53448307Y-4540000D01*
X53450000Y-4557188D01*
X53450001Y-14417027D01*
X52400004Y-15467025D01*
X52400004Y-15440905D01*
X52376946Y-15324986D01*
X52331717Y-15215793D01*
X52266054Y-15117522D01*
X52182482Y-15033950D01*
X52084211Y-14968287D01*
X51975018Y-14923058D01*
X51859099Y-14900000D01*
X51740909Y-14900000D01*
X51702598Y-14907621D01*
X51584658Y-14789681D01*
X51573690Y-14776316D01*
X51520395Y-14732579D01*
X51459592Y-14700079D01*
X51393617Y-14680066D01*
X51342194Y-14675001D01*
X51342193Y-14675001D01*
X51325005Y-14673308D01*
X51307817Y-14675001D01*
X50751231Y-14675001D01*
X42688551Y-6612321D01*
X42752319Y-6599637D01*
X42861512Y-6554408D01*
X42959783Y-6488745D01*
X43043355Y-6405173D01*
X43109018Y-6306902D01*
X43154247Y-6197709D01*
X43177305Y-6081790D01*
X43177305Y-6037979D01*
X44524662Y-7385336D01*
X44535626Y-7398696D01*
X44588921Y-7442433D01*
X44649724Y-7474933D01*
X44715699Y-7494946D01*
X44784311Y-7501704D01*
X44801500Y-7500011D01*
X47105038Y-7500011D01*
X51507620Y-11902595D01*
X51505953Y-11910979D01*
X47959654Y-8364681D01*
X47948685Y-8351315D01*
X47895390Y-8307578D01*
X47834587Y-8275078D01*
X47768612Y-8255065D01*
X47717189Y-8250000D01*
X47717188Y-8250000D01*
X47700000Y-8248307D01*
X47687446Y-8249544D01*
X47666050Y-8217522D01*
X47582478Y-8133950D01*
X47484207Y-8068287D01*
X47375014Y-8023058D01*
X47259095Y-8000000D01*
X47140905Y-8000000D01*
X47024986Y-8023058D01*
X46915793Y-8068287D01*
X46817522Y-8133950D01*
X46733950Y-8217522D01*
X46668287Y-8315793D01*
X46623058Y-8424986D01*
X46600000Y-8540905D01*
X46600000Y-8605027D01*
X45959654Y-7964681D01*
X45948685Y-7951315D01*
X45895390Y-7907578D01*
X45834587Y-7875078D01*
X45768612Y-7855065D01*
X45717189Y-7850000D01*
X45717188Y-7850000D01*
X45700000Y-7848307D01*
X45687446Y-7849544D01*
X45666050Y-7817522D01*
X45582478Y-7733950D01*
X45484207Y-7668287D01*
X45375014Y-7623058D01*
X45259095Y-7600000D01*
X45140905Y-7600000D01*
X45024986Y-7623058D01*
X44915793Y-7668287D01*
X44817522Y-7733950D01*
X44733950Y-7817522D01*
X44668287Y-7915793D01*
X44623058Y-8024986D01*
X44600000Y-8140905D01*
X44600000Y-8259095D01*
X44623058Y-8375014D01*
X44668287Y-8484207D01*
X44733950Y-8582478D01*
X44817522Y-8666050D01*
X44915793Y-8731713D01*
X45024986Y-8776942D01*
X45140905Y-8800000D01*
X45259095Y-8800000D01*
X45375014Y-8776942D01*
X45484207Y-8731713D01*
X45582478Y-8666050D01*
X45626777Y-8621751D01*
X50907620Y-13902595D01*
X50900000Y-13940905D01*
X50900000Y-14059095D01*
X50923058Y-14175014D01*
X50968287Y-14284207D01*
X51033950Y-14382478D01*
X51117522Y-14466050D01*
X51215793Y-14531713D01*
X51324986Y-14576942D01*
X51440905Y-14600000D01*
X51559095Y-14600000D01*
X51675014Y-14576942D01*
X51784207Y-14531713D01*
X51882478Y-14466050D01*
X51966050Y-14382478D01*
X52031713Y-14284207D01*
X52076942Y-14175014D01*
X52100000Y-14059095D01*
X52100000Y-13940905D01*
X52076942Y-13824986D01*
X52031713Y-13715793D01*
X51966050Y-13617522D01*
X51882478Y-13533950D01*
X51784207Y-13468287D01*
X51675014Y-13423058D01*
X51559095Y-13400000D01*
X51440905Y-13400000D01*
X51402595Y-13407620D01*
X47194973Y-9200000D01*
X47259095Y-9200000D01*
X47375014Y-9176942D01*
X47484207Y-9131713D01*
X47582478Y-9066050D01*
X47626777Y-9021751D01*
X52107621Y-13502594D01*
X52100000Y-13540905D01*
X52100000Y-13659095D01*
X52123058Y-13775014D01*
X52168287Y-13884207D01*
X52233950Y-13982478D01*
X52317522Y-14066050D01*
X52415793Y-14131713D01*
X52524986Y-14176942D01*
X52640905Y-14200000D01*
X52759095Y-14200000D01*
X52875014Y-14176942D01*
X52984207Y-14131713D01*
X53082478Y-14066050D01*
X53166050Y-13982478D01*
X53231713Y-13884207D01*
X53276942Y-13775014D01*
X53300000Y-13659095D01*
X53300000Y-13540905D01*
X53276942Y-13424986D01*
X53231713Y-13315793D01*
X53166050Y-13217522D01*
X53082478Y-13133950D01*
X52984207Y-13068287D01*
X52875014Y-13023058D01*
X52759095Y-13000000D01*
X52640905Y-13000000D01*
X52602594Y-13007621D01*
X52189021Y-12594047D01*
X52275014Y-12576942D01*
X52384207Y-12531713D01*
X52482478Y-12466050D01*
X52566050Y-12382478D01*
X52631713Y-12284207D01*
X52676942Y-12175014D01*
X52700000Y-12059095D01*
X52700000Y-11940905D01*
X52676942Y-11824986D01*
X52631713Y-11715793D01*
X52566050Y-11617522D01*
X52482478Y-11533950D01*
X52384207Y-11468287D01*
X52275014Y-11423058D01*
X52159095Y-11400000D01*
X52040905Y-11400000D01*
X52002595Y-11407620D01*
X47694973Y-7100000D01*
X48205027Y-7100000D01*
X51107620Y-10002595D01*
X51100000Y-10040905D01*
X51100000Y-10159095D01*
X51123058Y-10275014D01*
X51168287Y-10384207D01*
X51233950Y-10482478D01*
X51317522Y-10566050D01*
X51415793Y-10631713D01*
X51524986Y-10676942D01*
X51640905Y-10700000D01*
X51759095Y-10700000D01*
X51875014Y-10676942D01*
X51984207Y-10631713D01*
X52082478Y-10566050D01*
X52166050Y-10482478D01*
X52231713Y-10384207D01*
X52276942Y-10275014D01*
X52300000Y-10159095D01*
X52300000Y-10040905D01*
X52276942Y-9924986D01*
X52231713Y-9815793D01*
X52166050Y-9717522D01*
X52082478Y-9633950D01*
X51984207Y-9568287D01*
X51875014Y-9523058D01*
X51759095Y-9500000D01*
X51640905Y-9500000D01*
X51602595Y-9507620D01*
X48609654Y-6514680D01*
X48598685Y-6501315D01*
X48545390Y-6457578D01*
X48484587Y-6425078D01*
X48418612Y-6405065D01*
X48367189Y-6400000D01*
X48367188Y-6400000D01*
X48350000Y-6398307D01*
X48332812Y-6400000D01*
X46417503Y-6400000D01*
X46464653Y-6368495D01*
X46593495Y-6239653D01*
X46694725Y-6088152D01*
X46764453Y-5919813D01*
X46800000Y-5741105D01*
X46800000Y-5558895D01*
X49800000Y-5558895D01*
X49800000Y-5741105D01*
X49835547Y-5919813D01*
X49905275Y-6088152D01*
X50006505Y-6239653D01*
X50135347Y-6368495D01*
X50286848Y-6469725D01*
X50455187Y-6539453D01*
X50633895Y-6575000D01*
X50816105Y-6575000D01*
X50994813Y-6539453D01*
X51163152Y-6469725D01*
X51314653Y-6368495D01*
X51443495Y-6239653D01*
X51544725Y-6088152D01*
X51614453Y-5919813D01*
X51650000Y-5741105D01*
X51650000Y-5558895D01*
X51614453Y-5380187D01*
X51544725Y-5211848D01*
X51443495Y-5060347D01*
X51314653Y-4931505D01*
X51163152Y-4830275D01*
X50994813Y-4760547D01*
X50816105Y-4725000D01*
X50633895Y-4725000D01*
X50455187Y-4760547D01*
X50286848Y-4830275D01*
X50135347Y-4931505D01*
X50006505Y-5060347D01*
X49905275Y-5211848D01*
X49835547Y-5380187D01*
X49800000Y-5558895D01*
X46800000Y-5558895D01*
X46764453Y-5380187D01*
X46694725Y-5211848D01*
X46593495Y-5060347D01*
X46464653Y-4931505D01*
X46313152Y-4830275D01*
X46144813Y-4760547D01*
X45966105Y-4725000D01*
X45783895Y-4725000D01*
X45605187Y-4760547D01*
X45436848Y-4830275D01*
X45285347Y-4931505D01*
X45156505Y-5060347D01*
X45055275Y-5211848D01*
X44985547Y-5380187D01*
X44950000Y-5558895D01*
X44950000Y-5741105D01*
X44985547Y-5919813D01*
X45055275Y-6088152D01*
X45156505Y-6239653D01*
X45285347Y-6368495D01*
X45332497Y-6400000D01*
X45094974Y-6400000D01*
X41309548Y-2614574D01*
X43325000Y-2614574D01*
X43325000Y-2885426D01*
X43377841Y-3151073D01*
X43481491Y-3401307D01*
X43631968Y-3626511D01*
X43823489Y-3818032D01*
X44048693Y-3968509D01*
X44298927Y-4072159D01*
X44564574Y-4125000D01*
X44835426Y-4125000D01*
X45101073Y-4072159D01*
X45351307Y-3968509D01*
X45576511Y-3818032D01*
X45768032Y-3626511D01*
X45918509Y-3401307D01*
X46022159Y-3151073D01*
X46075000Y-2885426D01*
X46075000Y-2614574D01*
X50525000Y-2614574D01*
X50525000Y-2885426D01*
X50577841Y-3151073D01*
X50681491Y-3401307D01*
X50831968Y-3626511D01*
X51023489Y-3818032D01*
X51248693Y-3968509D01*
X51498927Y-4072159D01*
X51764574Y-4125000D01*
X52035426Y-4125000D01*
X52301073Y-4072159D01*
X52551307Y-3968509D01*
X52776511Y-3818032D01*
X52968032Y-3626511D01*
X53118509Y-3401307D01*
X53222159Y-3151073D01*
X53275000Y-2885426D01*
X53275000Y-2614574D01*
X53222159Y-2348927D01*
X53118509Y-2098693D01*
X52968032Y-1873489D01*
X52776511Y-1681968D01*
X52551307Y-1531491D01*
X52301073Y-1427841D01*
X52035426Y-1375000D01*
X51764574Y-1375000D01*
X51498927Y-1427841D01*
X51248693Y-1531491D01*
X51023489Y-1681968D01*
X50831968Y-1873489D01*
X50681491Y-2098693D01*
X50577841Y-2348927D01*
X50525000Y-2614574D01*
X46075000Y-2614574D01*
X46022159Y-2348927D01*
X45918509Y-2098693D01*
X45768032Y-1873489D01*
X45576511Y-1681968D01*
X45351307Y-1531491D01*
X45101073Y-1427841D01*
X44835426Y-1375000D01*
X44564574Y-1375000D01*
X44298927Y-1427841D01*
X44048693Y-1531491D01*
X43823489Y-1681968D01*
X43631968Y-1873489D01*
X43481491Y-2098693D01*
X43377841Y-2348927D01*
X43325000Y-2614574D01*
X41309548Y-2614574D01*
X40059654Y-1364681D01*
X40048685Y-1351315D01*
X39995390Y-1307578D01*
X39934587Y-1275078D01*
X39868612Y-1255065D01*
X39817189Y-1250000D01*
X39817188Y-1250000D01*
X39800000Y-1248307D01*
X39782812Y-1250000D01*
X34098528Y-1250000D01*
X34153550Y-1194978D01*
X34219213Y-1096707D01*
X34264442Y-987514D01*
X34287500Y-871595D01*
X34287500Y-753405D01*
X34264442Y-637486D01*
X34219213Y-528293D01*
X34153550Y-430022D01*
X34069978Y-346450D01*
X33971707Y-280787D01*
X33897380Y-250000D01*
X79750001Y-250000D01*
X79750000Y-24750032D01*
X39575276Y-24755054D01*
X39601863Y-24737289D01*
X39644302Y-24714605D01*
X39681502Y-24684076D01*
X39721527Y-24657332D01*
X39755566Y-24623293D01*
X39792765Y-24592765D01*
X39823295Y-24555564D01*
X39857332Y-24521527D01*
X39884076Y-24481502D01*
X39914605Y-24444302D01*
X39937289Y-24401863D01*
X39964034Y-24361836D01*
X39982458Y-24317356D01*
X40005140Y-24274921D01*
X40019107Y-24228879D01*
X40037532Y-24184397D01*
X40046924Y-24137178D01*
X40060892Y-24091133D01*
X40065609Y-24043243D01*
X40075000Y-23996029D01*
X40075000Y-23947892D01*
X40079717Y-23900000D01*
X40075000Y-23852108D01*
X40075000Y-23803971D01*
X40065609Y-23756757D01*
X40060892Y-23708867D01*
X40046924Y-23662822D01*
X40037532Y-23615603D01*
X40019107Y-23571121D01*
X40005140Y-23525079D01*
X39982458Y-23482644D01*
X39964034Y-23438164D01*
X39937289Y-23398137D01*
X39914605Y-23355698D01*
X39884076Y-23318498D01*
X39857332Y-23278473D01*
X39823294Y-23244435D01*
X39792765Y-23207235D01*
X39755564Y-23176705D01*
X39721527Y-23142668D01*
X39681502Y-23115924D01*
X39644302Y-23085395D01*
X39601863Y-23062711D01*
X39561836Y-23035966D01*
X39517356Y-23017542D01*
X39474921Y-22994860D01*
X39428879Y-22980893D01*
X39384397Y-22962468D01*
X39337178Y-22953076D01*
X39291133Y-22939108D01*
X39243243Y-22934391D01*
X39196029Y-22925000D01*
X38443198Y-22925000D01*
X38442320Y-22924122D01*
X75775000Y-22924122D01*
X75775000Y-23135878D01*
X75816312Y-23343566D01*
X75897348Y-23539203D01*
X76014993Y-23715272D01*
X76164728Y-23865007D01*
X76340797Y-23982652D01*
X76536434Y-24063688D01*
X76744122Y-24105000D01*
X76955878Y-24105000D01*
X77163566Y-24063688D01*
X77359203Y-23982652D01*
X77535272Y-23865007D01*
X77685007Y-23715272D01*
X77802652Y-23539203D01*
X77883688Y-23343566D01*
X77925000Y-23135878D01*
X77925000Y-22924122D01*
X77883688Y-22716434D01*
X77802652Y-22520797D01*
X77685007Y-22344728D01*
X77535272Y-22194993D01*
X77359203Y-22077348D01*
X77163566Y-21996312D01*
X76955878Y-21955000D01*
X76744122Y-21955000D01*
X76536434Y-21996312D01*
X76340797Y-22077348D01*
X76164728Y-22194993D01*
X76014993Y-22344728D01*
X75897348Y-22520797D01*
X75816312Y-22716434D01*
X75775000Y-22924122D01*
X38442320Y-22924122D01*
X37874700Y-22356503D01*
X37874700Y-15404319D01*
X37865309Y-15357105D01*
X37860592Y-15309215D01*
X37846624Y-15263170D01*
X37837232Y-15215951D01*
X37818807Y-15171469D01*
X37804840Y-15125427D01*
X37782158Y-15082992D01*
X37763734Y-15038512D01*
X37736989Y-14998485D01*
X37714305Y-14956046D01*
X37683776Y-14918846D01*
X37657032Y-14878821D01*
X37622995Y-14844784D01*
X37600000Y-14816764D01*
X37600000Y-14400026D01*
X40597097Y-14400026D01*
X40600001Y-14429510D01*
X40600000Y-18740905D01*
X40600000Y-18770527D01*
X40600001Y-20170517D01*
X40597097Y-20200000D01*
X40608682Y-20317620D01*
X40630691Y-20390174D01*
X40642991Y-20430721D01*
X40698705Y-20534955D01*
X40773684Y-20626317D01*
X40796581Y-20645109D01*
X42154891Y-22003419D01*
X42173683Y-22026317D01*
X42265045Y-22101296D01*
X42369279Y-22157010D01*
X42458937Y-22184207D01*
X42482379Y-22191318D01*
X42600000Y-22202903D01*
X42629474Y-22200000D01*
X43159095Y-22200000D01*
X43188148Y-22194221D01*
X43217621Y-22191318D01*
X43245963Y-22182721D01*
X43275014Y-22176942D01*
X43302377Y-22165608D01*
X43330721Y-22157010D01*
X43356844Y-22143047D01*
X43384207Y-22131713D01*
X43408832Y-22115259D01*
X43434955Y-22101296D01*
X43457853Y-22082504D01*
X43482478Y-22066050D01*
X43503419Y-22045109D01*
X43526317Y-22026317D01*
X43545109Y-22003419D01*
X43566050Y-21982478D01*
X43582504Y-21957853D01*
X43601296Y-21934955D01*
X43615259Y-21908832D01*
X43631713Y-21884207D01*
X43643047Y-21856844D01*
X43651566Y-21840905D01*
X48200000Y-21840905D01*
X48200000Y-21959095D01*
X48223058Y-22075014D01*
X48268287Y-22184207D01*
X48333950Y-22282478D01*
X48417522Y-22366050D01*
X48515793Y-22431713D01*
X48624986Y-22476942D01*
X48740905Y-22500000D01*
X48859095Y-22500000D01*
X48975014Y-22476942D01*
X49084207Y-22431713D01*
X49182478Y-22366050D01*
X49266050Y-22282478D01*
X49331713Y-22184207D01*
X49376942Y-22075014D01*
X49400000Y-21959095D01*
X49400000Y-21840905D01*
X49376942Y-21724986D01*
X49331713Y-21615793D01*
X49266050Y-21517522D01*
X49182478Y-21433950D01*
X49084207Y-21368287D01*
X48975014Y-21323058D01*
X48859095Y-21300000D01*
X48740905Y-21300000D01*
X48624986Y-21323058D01*
X48515793Y-21368287D01*
X48417522Y-21433950D01*
X48333950Y-21517522D01*
X48268287Y-21615793D01*
X48223058Y-21724986D01*
X48200000Y-21840905D01*
X43651566Y-21840905D01*
X43657010Y-21830721D01*
X43665608Y-21802377D01*
X43676942Y-21775014D01*
X43682721Y-21745963D01*
X43691318Y-21717621D01*
X43694221Y-21688148D01*
X43700000Y-21659095D01*
X43700000Y-21629474D01*
X43702903Y-21600000D01*
X43700000Y-21570526D01*
X43700000Y-21540905D01*
X43694221Y-21511852D01*
X43691318Y-21482379D01*
X43682721Y-21454037D01*
X43676942Y-21424986D01*
X43665608Y-21397623D01*
X43657010Y-21369279D01*
X43643047Y-21343156D01*
X43631713Y-21315793D01*
X43615259Y-21291168D01*
X43601296Y-21265045D01*
X43582504Y-21242147D01*
X43566050Y-21217522D01*
X43545109Y-21196581D01*
X43526317Y-21173683D01*
X43503419Y-21154891D01*
X43482478Y-21133950D01*
X43457853Y-21117496D01*
X43434955Y-21098704D01*
X43408832Y-21084741D01*
X43384207Y-21068287D01*
X43356844Y-21056953D01*
X43330721Y-21042990D01*
X43302377Y-21034392D01*
X43275014Y-21023058D01*
X43245963Y-21017279D01*
X43217621Y-21008682D01*
X43188148Y-21005779D01*
X43159095Y-21000000D01*
X42848528Y-21000000D01*
X41800000Y-19951473D01*
X41800000Y-14648553D01*
X42545131Y-13903423D01*
X42566076Y-13882478D01*
X42582534Y-13857848D01*
X42601321Y-13834955D01*
X42615281Y-13808839D01*
X42631739Y-13784207D01*
X42643075Y-13756839D01*
X42657035Y-13730722D01*
X42665632Y-13702382D01*
X42676968Y-13675014D01*
X42682747Y-13645961D01*
X42691344Y-13617621D01*
X42694247Y-13588148D01*
X42700026Y-13559095D01*
X42700026Y-13529474D01*
X42702929Y-13500000D01*
X42700026Y-13470526D01*
X42700026Y-13440905D01*
X42694247Y-13411851D01*
X42691344Y-13382380D01*
X42682748Y-13354042D01*
X42676968Y-13324986D01*
X42665631Y-13297616D01*
X42657035Y-13269279D01*
X42643077Y-13243166D01*
X42631739Y-13215793D01*
X42615278Y-13191157D01*
X42601321Y-13165046D01*
X42582538Y-13142159D01*
X42566076Y-13117522D01*
X42545125Y-13096571D01*
X42526342Y-13073684D01*
X42503455Y-13054901D01*
X42482504Y-13033950D01*
X42457867Y-13017488D01*
X42434980Y-12998705D01*
X42408869Y-12984748D01*
X42384233Y-12968287D01*
X42356860Y-12956949D01*
X42330747Y-12942991D01*
X42302410Y-12934395D01*
X42275040Y-12923058D01*
X42245984Y-12917278D01*
X42217646Y-12908682D01*
X42188175Y-12905779D01*
X42159121Y-12900000D01*
X42129500Y-12900000D01*
X42100026Y-12897097D01*
X42070552Y-12900000D01*
X42040931Y-12900000D01*
X42011878Y-12905779D01*
X41982405Y-12908682D01*
X41954065Y-12917279D01*
X41925012Y-12923058D01*
X41897644Y-12934394D01*
X41869304Y-12942991D01*
X41843187Y-12956951D01*
X41815819Y-12968287D01*
X41791187Y-12984745D01*
X41765071Y-12998705D01*
X41742178Y-13017492D01*
X41717548Y-13033950D01*
X41696603Y-13054895D01*
X40796581Y-13954918D01*
X40773684Y-13973709D01*
X40698705Y-14065071D01*
X40663084Y-14131713D01*
X40642991Y-14169305D01*
X40608682Y-14282406D01*
X40597097Y-14400026D01*
X37600000Y-14400026D01*
X37600000Y-11998527D01*
X38793680Y-10804849D01*
X38796048Y-10803868D01*
X38898414Y-10735469D01*
X38985469Y-10648414D01*
X39053868Y-10546048D01*
X39100981Y-10432306D01*
X39125000Y-10311557D01*
X39125000Y-10188443D01*
X39100981Y-10067694D01*
X39053868Y-9953952D01*
X38985469Y-9851586D01*
X38898414Y-9764531D01*
X38796048Y-9696132D01*
X38682306Y-9649019D01*
X38561557Y-9625000D01*
X38438443Y-9625000D01*
X38317694Y-9649019D01*
X38203952Y-9696132D01*
X38101586Y-9764531D01*
X38014531Y-9851586D01*
X37946132Y-9953952D01*
X37945151Y-9956320D01*
X36596586Y-11304887D01*
X36573683Y-11323683D01*
X36498704Y-11415046D01*
X36442990Y-11519280D01*
X36413189Y-11617522D01*
X36408682Y-11632380D01*
X36397097Y-11750000D01*
X36400000Y-11779474D01*
X36400001Y-14661613D01*
X36397837Y-14663059D01*
X36355398Y-14685743D01*
X36318198Y-14716272D01*
X36278173Y-14743016D01*
X36244136Y-14777053D01*
X36206935Y-14807583D01*
X36176405Y-14844784D01*
X36142368Y-14878821D01*
X36115624Y-14918846D01*
X36085095Y-14956046D01*
X36062412Y-14998484D01*
X36035666Y-15038512D01*
X36017240Y-15082996D01*
X35994560Y-15125428D01*
X35980594Y-15171466D01*
X35962168Y-15215951D01*
X35952775Y-15263173D01*
X35938808Y-15309216D01*
X35934091Y-15357104D01*
X35924700Y-15404319D01*
X35924700Y-15452457D01*
X35924701Y-22712458D01*
X35919983Y-22760360D01*
X35938808Y-22951493D01*
X35979428Y-23085395D01*
X35994561Y-23135281D01*
X36085096Y-23304662D01*
X36206936Y-23453125D01*
X36244142Y-23483659D01*
X37316040Y-24555558D01*
X37346575Y-24592765D01*
X37495038Y-24714605D01*
X37571182Y-24755304D01*
X250000Y-24759969D01*
X250000Y-23240901D01*
X7400000Y-23240901D01*
X7400000Y-23359091D01*
X7423058Y-23475010D01*
X7468287Y-23584203D01*
X7533950Y-23682474D01*
X7617522Y-23766046D01*
X7715793Y-23831709D01*
X7824986Y-23876938D01*
X7940905Y-23899996D01*
X8059095Y-23899996D01*
X8175014Y-23876938D01*
X8284207Y-23831709D01*
X8369083Y-23774996D01*
X9201672Y-23774996D01*
X9225004Y-23777294D01*
X9248336Y-23774996D01*
X9318120Y-23768123D01*
X9407658Y-23740962D01*
X9490177Y-23696855D01*
X9562505Y-23637497D01*
X9577388Y-23619362D01*
X12474893Y-20721857D01*
X12575014Y-20701942D01*
X12684207Y-20656713D01*
X12782478Y-20591050D01*
X12866050Y-20507478D01*
X12931713Y-20409207D01*
X12976942Y-20300014D01*
X13000000Y-20184095D01*
X13000000Y-20065905D01*
X12976942Y-19949986D01*
X12931713Y-19840793D01*
X12866050Y-19742522D01*
X12782478Y-19658950D01*
X12684207Y-19593287D01*
X12575014Y-19548058D01*
X12459095Y-19525000D01*
X12340905Y-19525000D01*
X12224986Y-19548058D01*
X12115793Y-19593287D01*
X12017522Y-19658950D01*
X11933950Y-19742522D01*
X11868287Y-19840793D01*
X11823058Y-19949986D01*
X11803143Y-20050107D01*
X9028254Y-22824996D01*
X8369083Y-22824996D01*
X8284207Y-22768283D01*
X8175014Y-22723054D01*
X8059095Y-22699996D01*
X7940905Y-22699996D01*
X7824986Y-22723054D01*
X7715793Y-22768283D01*
X7617522Y-22833946D01*
X7533950Y-22917518D01*
X7468287Y-23015789D01*
X7423058Y-23124982D01*
X7400000Y-23240901D01*
X250000Y-23240901D01*
X250000Y-15820253D01*
X1525000Y-15820253D01*
X1525000Y-16179747D01*
X1595134Y-16532333D01*
X1732706Y-16864461D01*
X1932430Y-17163369D01*
X2186631Y-17417570D01*
X2485539Y-17617294D01*
X2817667Y-17754866D01*
X3170253Y-17825000D01*
X3529747Y-17825000D01*
X3882333Y-17754866D01*
X4214461Y-17617294D01*
X4328785Y-17540905D01*
X11455050Y-17540905D01*
X11455050Y-17659095D01*
X11478108Y-17775014D01*
X11523337Y-17884207D01*
X11589000Y-17982478D01*
X11672572Y-18066050D01*
X11770843Y-18131713D01*
X11880036Y-18176942D01*
X11980157Y-18196858D01*
X13699999Y-19916701D01*
X13700000Y-22708157D01*
X13624986Y-22723078D01*
X13515793Y-22768307D01*
X13417522Y-22833970D01*
X13333950Y-22917542D01*
X13268287Y-23015813D01*
X13223058Y-23125006D01*
X13200000Y-23240925D01*
X13200000Y-23359115D01*
X13223058Y-23475034D01*
X13268287Y-23584227D01*
X13333950Y-23682498D01*
X13417522Y-23766070D01*
X13515793Y-23831733D01*
X13624986Y-23876962D01*
X13740905Y-23900020D01*
X13859095Y-23900020D01*
X13975014Y-23876962D01*
X14084207Y-23831733D01*
X14182478Y-23766070D01*
X14266050Y-23682498D01*
X14331713Y-23584227D01*
X14376942Y-23475034D01*
X14396857Y-23374914D01*
X14494375Y-23277397D01*
X14512500Y-23262522D01*
X14571858Y-23190194D01*
X14615965Y-23107675D01*
X14643126Y-23018137D01*
X14649999Y-22948353D01*
X14652297Y-22925021D01*
X14649999Y-22901689D01*
X14649999Y-19743281D01*
X14652297Y-19719949D01*
X14643126Y-19626833D01*
X14615965Y-19537295D01*
X14609393Y-19525000D01*
X14571858Y-19454776D01*
X14512500Y-19382448D01*
X14494376Y-19367574D01*
X12651908Y-17525107D01*
X12631992Y-17424986D01*
X12586763Y-17315793D01*
X12521100Y-17217522D01*
X12437528Y-17133950D01*
X12339257Y-17068287D01*
X12230064Y-17023058D01*
X12114145Y-17000000D01*
X11995955Y-17000000D01*
X11880036Y-17023058D01*
X11770843Y-17068287D01*
X11672572Y-17133950D01*
X11589000Y-17217522D01*
X11523337Y-17315793D01*
X11478108Y-17424986D01*
X11455050Y-17540905D01*
X4328785Y-17540905D01*
X4513369Y-17417570D01*
X4767570Y-17163369D01*
X4967294Y-16864461D01*
X5104866Y-16532333D01*
X5175000Y-16179747D01*
X5175000Y-15820253D01*
X5104866Y-15467667D01*
X4967294Y-15135539D01*
X4767570Y-14836631D01*
X4513369Y-14582430D01*
X4214461Y-14382706D01*
X3882333Y-14245134D01*
X3529747Y-14175000D01*
X3170253Y-14175000D01*
X2817667Y-14245134D01*
X2485539Y-14382706D01*
X2186631Y-14582430D01*
X1932430Y-14836631D01*
X1732706Y-15135539D01*
X1595134Y-15467667D01*
X1525000Y-15820253D01*
X250000Y-15820253D01*
X250000Y-2718745D01*
X8675000Y-2718745D01*
X8675000Y-2881255D01*
X8706704Y-3040644D01*
X8768894Y-3190784D01*
X8859181Y-3325907D01*
X8974093Y-3440819D01*
X9109216Y-3531106D01*
X9259356Y-3593296D01*
X9418745Y-3625000D01*
X9581255Y-3625000D01*
X9740644Y-3593296D01*
X9890784Y-3531106D01*
X10025907Y-3440819D01*
X10140819Y-3325907D01*
X10231106Y-3190784D01*
X10293296Y-3040644D01*
X10325000Y-2881255D01*
X10325000Y-2718745D01*
X11775000Y-2718745D01*
X11775000Y-2881255D01*
X11806704Y-3040644D01*
X11868894Y-3190784D01*
X11959181Y-3325907D01*
X12074093Y-3440819D01*
X12209216Y-3531106D01*
X12359356Y-3593296D01*
X12518745Y-3625000D01*
X12681255Y-3625000D01*
X12840644Y-3593296D01*
X12990784Y-3531106D01*
X13125907Y-3440819D01*
X13240819Y-3325907D01*
X13331106Y-3190784D01*
X13393296Y-3040644D01*
X13425000Y-2881255D01*
X13425000Y-2718745D01*
X13393296Y-2559356D01*
X13331106Y-2409216D01*
X13240819Y-2274093D01*
X13125907Y-2159181D01*
X12990784Y-2068894D01*
X12840644Y-2006704D01*
X12681255Y-1975000D01*
X12518745Y-1975000D01*
X12359356Y-2006704D01*
X12209216Y-2068894D01*
X12074093Y-2159181D01*
X11959181Y-2274093D01*
X11868894Y-2409216D01*
X11806704Y-2559356D01*
X11775000Y-2718745D01*
X10325000Y-2718745D01*
X10293296Y-2559356D01*
X10231106Y-2409216D01*
X10140819Y-2274093D01*
X10025907Y-2159181D01*
X9890784Y-2068894D01*
X9740644Y-2006704D01*
X9581255Y-1975000D01*
X9418745Y-1975000D01*
X9259356Y-2006704D01*
X9109216Y-2068894D01*
X8974093Y-2159181D01*
X8859181Y-2274093D01*
X8768894Y-2409216D01*
X8706704Y-2559356D01*
X8675000Y-2718745D01*
X250000Y-2718745D01*
X250000Y-250000D01*
X10483274Y-250000D01*
X10409181Y-324093D01*
G37*
G04 #@! TD.AperFunction*
M02*
