G04 #@! TF.GenerationSoftware,KiCad,Pcbnew,(5.1.7)-1*
G04 #@! TF.CreationDate,2021-02-25T00:30:01+00:00*
G04 #@! TF.ProjectId,LedGateController,4c656447-6174-4654-936f-6e74726f6c6c,rev?*
G04 #@! TF.SameCoordinates,Original*
G04 #@! TF.FileFunction,Legend,Top*
G04 #@! TF.FilePolarity,Positive*
%FSLAX46Y46*%
G04 Gerber Fmt 4.6, Leading zero omitted, Abs format (unit mm)*
G04 Created by KiCad (PCBNEW (5.1.7)-1) date 2021-02-25 00:30:01*
%MOMM*%
%LPD*%
G01*
G04 APERTURE LIST*
G04 #@! TA.AperFunction,Profile*
%ADD10C,0.050000*%
G04 #@! TD*
%ADD11C,0.120000*%
%ADD12C,0.200000*%
%ADD13C,0.100000*%
%ADD14C,0.150000*%
%ADD15C,0.254000*%
G04 APERTURE END LIST*
D10*
X0Y0D02*
X0Y-25010000D01*
X0Y0D02*
X80000000Y0D01*
X80000000Y-25000000D02*
X80000000Y0D01*
X0Y-25010000D02*
X80000000Y-25000000D01*
D11*
X44072936Y-8765000D02*
X44527064Y-8765000D01*
X44072936Y-10235000D02*
X44527064Y-10235000D01*
X18835000Y-15672936D02*
X18835000Y-16127064D01*
X17365000Y-15672936D02*
X17365000Y-16127064D01*
X17072936Y-5565000D02*
X17527064Y-5565000D01*
X17072936Y-7035000D02*
X17527064Y-7035000D01*
X31965000Y-5377064D02*
X31965000Y-4922936D01*
X33435000Y-5377064D02*
X33435000Y-4922936D01*
X13010436Y-15065000D02*
X13464564Y-15065000D01*
X13010436Y-16535000D02*
X13464564Y-16535000D01*
X40472936Y-8135000D02*
X40927064Y-8135000D01*
X40472936Y-6665000D02*
X40927064Y-6665000D01*
X40465000Y-2727064D02*
X40465000Y-2272936D01*
X41935000Y-2727064D02*
X41935000Y-2272936D01*
X24727064Y-1935000D02*
X24272936Y-1935000D01*
X24727064Y-465000D02*
X24272936Y-465000D01*
X24727064Y-4035000D02*
X24272936Y-4035000D01*
X24727064Y-2565000D02*
X24272936Y-2565000D01*
X34965000Y-2727064D02*
X34965000Y-2272936D01*
X36435000Y-2727064D02*
X36435000Y-2272936D01*
X44072936Y-10765000D02*
X44527064Y-10765000D01*
X44072936Y-12235000D02*
X44527064Y-12235000D01*
X17777064Y-4035000D02*
X17322936Y-4035000D01*
X17777064Y-2565000D02*
X17322936Y-2565000D01*
X14165000Y-2227064D02*
X14165000Y-1772936D01*
X15635000Y-2227064D02*
X15635000Y-1772936D01*
X60427064Y-17065000D02*
X59972936Y-17065000D01*
X60427064Y-18535000D02*
X59972936Y-18535000D01*
X57565000Y-7060436D02*
X57565000Y-7514564D01*
X59035000Y-7060436D02*
X59035000Y-7514564D01*
X18835000Y-12272936D02*
X18835000Y-12727064D01*
X17365000Y-12272936D02*
X17365000Y-12727064D01*
X29772936Y-4465000D02*
X30227064Y-4465000D01*
X29772936Y-5935000D02*
X30227064Y-5935000D01*
X58665000Y-14785436D02*
X58665000Y-15239564D01*
X60135000Y-14785436D02*
X60135000Y-15239564D01*
X14265000Y-18927064D02*
X14265000Y-18472936D01*
X15735000Y-18927064D02*
X15735000Y-18472936D01*
X35435000Y-10627064D02*
X35435000Y-10172936D01*
X33965000Y-10627064D02*
X33965000Y-10172936D01*
X35965000Y-10172936D02*
X35965000Y-10627064D01*
X37435000Y-10172936D02*
X37435000Y-10627064D01*
X9572936Y-15065000D02*
X10027064Y-15065000D01*
X9572936Y-16535000D02*
X10027064Y-16535000D01*
X24235000Y-11027064D02*
X24235000Y-10572936D01*
X22765000Y-11027064D02*
X22765000Y-10572936D01*
X20865000Y-11027064D02*
X20865000Y-10572936D01*
X22335000Y-11027064D02*
X22335000Y-10572936D01*
X26420000Y-3260000D02*
X27350000Y-3260000D01*
X29580000Y-3260000D02*
X28650000Y-3260000D01*
X29580000Y-3260000D02*
X29580000Y-1100000D01*
X26420000Y-3260000D02*
X26420000Y-1800000D01*
X13000000Y-16990000D02*
X11200000Y-16990000D01*
X11200000Y-20210000D02*
X13650000Y-20210000D01*
X12150000Y-23910000D02*
X14350000Y-23910000D01*
X12150000Y-23910000D02*
X9950000Y-23910000D01*
X12150000Y-20690000D02*
X14350000Y-20690000D01*
X12150000Y-20690000D02*
X8550000Y-20690000D01*
D12*
X49700000Y-7250000D02*
X49700000Y-7250000D01*
X49600000Y-7250000D02*
X49600000Y-7250000D01*
X49700000Y-7250000D02*
X49700000Y-7250000D01*
D13*
X44300000Y-1000000D02*
X44300000Y-250000D01*
X44300000Y-1000000D02*
X44300000Y-1000000D01*
X44300000Y-250000D02*
X44300000Y-1000000D01*
X44300000Y-250000D02*
X44300000Y-250000D01*
X52300000Y-250000D02*
X52300000Y-1000000D01*
X52300000Y-250000D02*
X52300000Y-250000D01*
X52300000Y-1000000D02*
X52300000Y-250000D01*
X52300000Y-1000000D02*
X52300000Y-1000000D01*
X52300000Y-250000D02*
X52300000Y-250000D01*
X44300000Y-250000D02*
X52300000Y-250000D01*
X44300000Y-250000D02*
X44300000Y-250000D01*
X52300000Y-250000D02*
X44300000Y-250000D01*
D12*
X49600000Y-7250000D02*
G75*
G02*
X49700000Y-7250000I50000J0D01*
G01*
X49700000Y-7250000D02*
G75*
G02*
X49600000Y-7250000I-50000J0D01*
G01*
X49600000Y-7250000D02*
G75*
G02*
X49700000Y-7250000I50000J0D01*
G01*
D11*
X58135000Y-20911252D02*
X58135000Y-20388748D01*
X56665000Y-20911252D02*
X56665000Y-20388748D01*
X20395000Y-12785000D02*
X31895000Y-12785000D01*
X20395000Y-23085000D02*
X31895000Y-23085000D01*
D13*
X20395000Y-12785000D02*
X20395000Y-15685000D01*
X31895000Y-12785000D02*
X31895000Y-15685000D01*
X31895000Y-20185000D02*
X31895000Y-23085000D01*
X20395000Y-20185000D02*
X20395000Y-23085000D01*
D11*
X66315000Y-24125000D02*
X67565000Y-24125000D01*
X66940000Y-24750000D02*
X66940000Y-23500000D01*
X73595563Y-23260000D02*
X74660000Y-22195563D01*
X65204437Y-23260000D02*
X64140000Y-22195563D01*
X65204437Y-23260000D02*
X68190000Y-23260000D01*
X73595563Y-23260000D02*
X70610000Y-23260000D01*
X74660000Y-22195563D02*
X74660000Y-12740000D01*
X64140000Y-22195563D02*
X64140000Y-12740000D01*
X64140000Y-12740000D02*
X68190000Y-12740000D01*
X74660000Y-12740000D02*
X70610000Y-12740000D01*
X13350000Y-3750000D02*
X8750000Y-3750000D01*
X13300000Y-850000D02*
X11800000Y-850000D01*
X10250000Y-850000D02*
X8800000Y-850000D01*
X8750000Y-850000D02*
X8750000Y-3750000D01*
X13350000Y-850000D02*
X13350000Y-3750000D01*
X26960000Y-12380000D02*
X25500000Y-12380000D01*
X26960000Y-9220000D02*
X24800000Y-9220000D01*
X26960000Y-9220000D02*
X26960000Y-10150000D01*
X26960000Y-12380000D02*
X26960000Y-11450000D01*
X40930000Y-15265000D02*
X40930000Y-16725000D01*
X37770000Y-15265000D02*
X37770000Y-17425000D01*
X37770000Y-15265000D02*
X38700000Y-15265000D01*
X40930000Y-15265000D02*
X40000000Y-15265000D01*
X36630000Y-14310000D02*
X33330000Y-14310000D01*
X33330000Y-14310000D02*
X33330000Y-21210000D01*
X36630000Y-14310000D02*
X36630000Y-21210000D01*
X67830000Y-670000D02*
X67830000Y-2000000D01*
X66500000Y-670000D02*
X67830000Y-670000D01*
X65230000Y-670000D02*
X65230000Y-3330000D01*
X65230000Y-3330000D02*
X55010000Y-3330000D01*
X65230000Y-670000D02*
X55010000Y-670000D01*
X55010000Y-670000D02*
X55010000Y-3330000D01*
X75580000Y-16680000D02*
X76850000Y-16680000D01*
X75580000Y-17950000D02*
X75580000Y-16680000D01*
X77892929Y-23410000D02*
X78290000Y-23410000D01*
X77892929Y-22650000D02*
X78290000Y-22650000D01*
X86950000Y-23410000D02*
X80950000Y-23410000D01*
X86950000Y-22650000D02*
X86950000Y-23410000D01*
X80950000Y-22650000D02*
X86950000Y-22650000D01*
X78290000Y-21760000D02*
X80950000Y-21760000D01*
X77892929Y-20870000D02*
X78290000Y-20870000D01*
X77892929Y-20110000D02*
X78290000Y-20110000D01*
X86950000Y-20870000D02*
X80950000Y-20870000D01*
X86950000Y-20110000D02*
X86950000Y-20870000D01*
X80950000Y-20110000D02*
X86950000Y-20110000D01*
X78290000Y-19220000D02*
X80950000Y-19220000D01*
X77960000Y-18330000D02*
X78290000Y-18330000D01*
X77960000Y-17570000D02*
X78290000Y-17570000D01*
X80950000Y-18230000D02*
X86950000Y-18230000D01*
X80950000Y-18110000D02*
X86950000Y-18110000D01*
X80950000Y-17990000D02*
X86950000Y-17990000D01*
X80950000Y-17870000D02*
X86950000Y-17870000D01*
X80950000Y-17750000D02*
X86950000Y-17750000D01*
X80950000Y-17630000D02*
X86950000Y-17630000D01*
X86950000Y-18330000D02*
X80950000Y-18330000D01*
X86950000Y-17570000D02*
X86950000Y-18330000D01*
X80950000Y-17570000D02*
X86950000Y-17570000D01*
X80950000Y-16620000D02*
X78290000Y-16620000D01*
X80950000Y-24360000D02*
X80950000Y-16620000D01*
X78290000Y-24360000D02*
X80950000Y-24360000D01*
X78290000Y-16620000D02*
X78290000Y-24360000D01*
X18400000Y-24500000D02*
X16400000Y-24500000D01*
X18400000Y-21700000D02*
X18400000Y-24500000D01*
X16400000Y-21700000D02*
X18400000Y-21700000D01*
X16400000Y-24500000D02*
X16400000Y-21700000D01*
X15720000Y-9760000D02*
X15720000Y-8300000D01*
X18880000Y-9760000D02*
X18880000Y-7600000D01*
X18880000Y-9760000D02*
X17950000Y-9760000D01*
X15720000Y-9760000D02*
X16650000Y-9760000D01*
X57138748Y-10735000D02*
X57661252Y-10735000D01*
X57138748Y-9265000D02*
X57661252Y-9265000D01*
X29685000Y-11061252D02*
X29685000Y-10538748D01*
X28215000Y-11061252D02*
X28215000Y-10538748D01*
X47335000Y-21011252D02*
X47335000Y-20488748D01*
X45865000Y-21011252D02*
X45865000Y-20488748D01*
X44038748Y-14235000D02*
X44561252Y-14235000D01*
X44038748Y-12765000D02*
X44561252Y-12765000D01*
X9866690Y-18501248D02*
X9866690Y-19023752D01*
X8396690Y-18501248D02*
X8396690Y-19023752D01*
X45335000Y-21011252D02*
X45335000Y-20488748D01*
X43865000Y-21011252D02*
X43865000Y-20488748D01*
X62135000Y-20911252D02*
X62135000Y-20388748D01*
X60665000Y-20911252D02*
X60665000Y-20388748D01*
X35438748Y-13885000D02*
X35961252Y-13885000D01*
X35438748Y-12415000D02*
X35961252Y-12415000D01*
X39113748Y-13985000D02*
X39636252Y-13985000D01*
X39113748Y-12515000D02*
X39636252Y-12515000D01*
X39561252Y-19535000D02*
X39038748Y-19535000D01*
X39561252Y-18065000D02*
X39038748Y-18065000D01*
X73186252Y-8440000D02*
X72663748Y-8440000D01*
X73186252Y-9910000D02*
X72663748Y-9910000D01*
X73186252Y-10765000D02*
X72663748Y-10765000D01*
X73186252Y-12235000D02*
X72663748Y-12235000D01*
X60135000Y-20911252D02*
X60135000Y-20388748D01*
X58665000Y-20911252D02*
X58665000Y-20388748D01*
X17836252Y-2060000D02*
X17313748Y-2060000D01*
X17836252Y-590000D02*
X17313748Y-590000D01*
X38188748Y-1015000D02*
X38711252Y-1015000D01*
X38188748Y-2485000D02*
X38711252Y-2485000D01*
X13361252Y-8735000D02*
X12838748Y-8735000D01*
X13361252Y-7265000D02*
X12838748Y-7265000D01*
X9388748Y-7265000D02*
X9911252Y-7265000D01*
X9388748Y-8735000D02*
X9911252Y-8735000D01*
X31660000Y-2750000D02*
X31660000Y-65000D01*
X31660000Y-65000D02*
X29740000Y-65000D01*
X29740000Y-65000D02*
X29740000Y-2750000D01*
X41180000Y-9640000D02*
X41180000Y-11100000D01*
X38020000Y-9640000D02*
X38020000Y-11800000D01*
X38020000Y-9640000D02*
X38950000Y-9640000D01*
X41180000Y-9640000D02*
X40250000Y-9640000D01*
X20265000Y-720000D02*
X20265000Y-1650000D01*
X20265000Y-3880000D02*
X20265000Y-2950000D01*
X20265000Y-3880000D02*
X22425000Y-3880000D01*
X20265000Y-720000D02*
X21725000Y-720000D01*
X33660000Y-2750000D02*
X33660000Y-65000D01*
X33660000Y-65000D02*
X31740000Y-65000D01*
X31740000Y-65000D02*
X31740000Y-2750000D01*
D12*
X15275000Y-14480000D02*
X13750000Y-14480000D01*
D11*
X57100000Y-5900000D02*
X57100000Y-8700000D01*
X57100000Y-8700000D02*
X55100000Y-8700000D01*
X55100000Y-8700000D02*
X55100000Y-5900000D01*
X55100000Y-5900000D02*
X57100000Y-5900000D01*
X62860000Y-16580000D02*
X61400000Y-16580000D01*
X62860000Y-13420000D02*
X60700000Y-13420000D01*
X62860000Y-13420000D02*
X62860000Y-14350000D01*
X62860000Y-16580000D02*
X62860000Y-15650000D01*
X36870000Y-5260000D02*
X37800000Y-5260000D01*
X40030000Y-5260000D02*
X39100000Y-5260000D01*
X40030000Y-5260000D02*
X40030000Y-3100000D01*
X36870000Y-5260000D02*
X36870000Y-3800000D01*
X52268198Y-10962887D02*
X51950000Y-10644689D01*
X51950000Y-10644689D02*
X51631802Y-10962887D01*
X56737113Y-15431802D02*
X57055311Y-15750000D01*
X57055311Y-15750000D02*
X56737113Y-16068198D01*
X47162887Y-16068198D02*
X46844689Y-15750000D01*
X46844689Y-15750000D02*
X47162887Y-15431802D01*
X51631802Y-20537113D02*
X51950000Y-20855311D01*
X51950000Y-20855311D02*
X52268198Y-20537113D01*
X52268198Y-20537113D02*
X53180366Y-21449281D01*
X33410000Y-11450000D02*
X33410000Y-9000000D01*
X30190000Y-9650000D02*
X30190000Y-11450000D01*
X78568000Y-12801600D02*
X78568000Y-10351600D01*
X75348000Y-11001600D02*
X75348000Y-12801600D01*
X73200000Y-6500000D02*
G75*
G03*
X73200000Y-6500000I-700000J0D01*
G01*
X76700000Y-15000000D02*
G75*
G03*
X76700000Y-15000000I-700000J0D01*
G01*
D14*
X46544642Y-9952380D02*
X46211309Y-9476190D01*
X45973214Y-9952380D02*
X45973214Y-8952380D01*
X46354166Y-8952380D01*
X46449404Y-9000000D01*
X46497023Y-9047619D01*
X46544642Y-9142857D01*
X46544642Y-9285714D01*
X46497023Y-9380952D01*
X46449404Y-9428571D01*
X46354166Y-9476190D01*
X45973214Y-9476190D01*
X46925595Y-9047619D02*
X46973214Y-9000000D01*
X47068452Y-8952380D01*
X47306547Y-8952380D01*
X47401785Y-9000000D01*
X47449404Y-9047619D01*
X47497023Y-9142857D01*
X47497023Y-9238095D01*
X47449404Y-9380952D01*
X46877976Y-9952380D01*
X47497023Y-9952380D01*
X47877976Y-9047619D02*
X47925595Y-9000000D01*
X48020833Y-8952380D01*
X48258928Y-8952380D01*
X48354166Y-9000000D01*
X48401785Y-9047619D01*
X48449404Y-9142857D01*
X48449404Y-9238095D01*
X48401785Y-9380952D01*
X47830357Y-9952380D01*
X48449404Y-9952380D01*
X2842857Y-7361904D02*
X2842857Y-5838095D01*
X3604761Y-6600000D02*
X2080952Y-6600000D01*
X17052380Y-16442857D02*
X16576190Y-16776190D01*
X17052380Y-17014285D02*
X16052380Y-17014285D01*
X16052380Y-16633333D01*
X16100000Y-16538095D01*
X16147619Y-16490476D01*
X16242857Y-16442857D01*
X16385714Y-16442857D01*
X16480952Y-16490476D01*
X16528571Y-16538095D01*
X16576190Y-16633333D01*
X16576190Y-17014285D01*
X17052380Y-15490476D02*
X17052380Y-16061904D01*
X17052380Y-15776190D02*
X16052380Y-15776190D01*
X16195238Y-15871428D01*
X16290476Y-15966666D01*
X16338095Y-16061904D01*
X16052380Y-14871428D02*
X16052380Y-14776190D01*
X16100000Y-14680952D01*
X16147619Y-14633333D01*
X16242857Y-14585714D01*
X16433333Y-14538095D01*
X16671428Y-14538095D01*
X16861904Y-14585714D01*
X16957142Y-14633333D01*
X17004761Y-14680952D01*
X17052380Y-14776190D01*
X17052380Y-14871428D01*
X17004761Y-14966666D01*
X16957142Y-15014285D01*
X16861904Y-15061904D01*
X16671428Y-15109523D01*
X16433333Y-15109523D01*
X16242857Y-15061904D01*
X16147619Y-15014285D01*
X16100000Y-14966666D01*
X16052380Y-14871428D01*
X19757142Y-7752380D02*
X19423809Y-7276190D01*
X19185714Y-7752380D02*
X19185714Y-6752380D01*
X19566666Y-6752380D01*
X19661904Y-6800000D01*
X19709523Y-6847619D01*
X19757142Y-6942857D01*
X19757142Y-7085714D01*
X19709523Y-7180952D01*
X19661904Y-7228571D01*
X19566666Y-7276190D01*
X19185714Y-7276190D01*
X20138095Y-6847619D02*
X20185714Y-6800000D01*
X20280952Y-6752380D01*
X20519047Y-6752380D01*
X20614285Y-6800000D01*
X20661904Y-6847619D01*
X20709523Y-6942857D01*
X20709523Y-7038095D01*
X20661904Y-7180952D01*
X20090476Y-7752380D01*
X20709523Y-7752380D01*
X21328571Y-6752380D02*
X21423809Y-6752380D01*
X21519047Y-6800000D01*
X21566666Y-6847619D01*
X21614285Y-6942857D01*
X21661904Y-7133333D01*
X21661904Y-7371428D01*
X21614285Y-7561904D01*
X21566666Y-7657142D01*
X21519047Y-7704761D01*
X21423809Y-7752380D01*
X21328571Y-7752380D01*
X21233333Y-7704761D01*
X21185714Y-7657142D01*
X21138095Y-7561904D01*
X21090476Y-7371428D01*
X21090476Y-7133333D01*
X21138095Y-6942857D01*
X21185714Y-6847619D01*
X21233333Y-6800000D01*
X21328571Y-6752380D01*
X32057142Y-7852380D02*
X31723809Y-7376190D01*
X31485714Y-7852380D02*
X31485714Y-6852380D01*
X31866666Y-6852380D01*
X31961904Y-6900000D01*
X32009523Y-6947619D01*
X32057142Y-7042857D01*
X32057142Y-7185714D01*
X32009523Y-7280952D01*
X31961904Y-7328571D01*
X31866666Y-7376190D01*
X31485714Y-7376190D01*
X32438095Y-6947619D02*
X32485714Y-6900000D01*
X32580952Y-6852380D01*
X32819047Y-6852380D01*
X32914285Y-6900000D01*
X32961904Y-6947619D01*
X33009523Y-7042857D01*
X33009523Y-7138095D01*
X32961904Y-7280952D01*
X32390476Y-7852380D01*
X33009523Y-7852380D01*
X33866666Y-7185714D02*
X33866666Y-7852380D01*
X33628571Y-6804761D02*
X33390476Y-7519047D01*
X34009523Y-7519047D01*
X8052380Y-16242857D02*
X7576190Y-16576190D01*
X8052380Y-16814285D02*
X7052380Y-16814285D01*
X7052380Y-16433333D01*
X7100000Y-16338095D01*
X7147619Y-16290476D01*
X7242857Y-16242857D01*
X7385714Y-16242857D01*
X7480952Y-16290476D01*
X7528571Y-16338095D01*
X7576190Y-16433333D01*
X7576190Y-16814285D01*
X7147619Y-15861904D02*
X7100000Y-15814285D01*
X7052380Y-15719047D01*
X7052380Y-15480952D01*
X7100000Y-15385714D01*
X7147619Y-15338095D01*
X7242857Y-15290476D01*
X7338095Y-15290476D01*
X7480952Y-15338095D01*
X8052380Y-15909523D01*
X8052380Y-15290476D01*
X7052380Y-14957142D02*
X7052380Y-14338095D01*
X7433333Y-14671428D01*
X7433333Y-14528571D01*
X7480952Y-14433333D01*
X7528571Y-14385714D01*
X7623809Y-14338095D01*
X7861904Y-14338095D01*
X7957142Y-14385714D01*
X8004761Y-14433333D01*
X8052380Y-14528571D01*
X8052380Y-14814285D01*
X8004761Y-14909523D01*
X7957142Y-14957142D01*
X42957142Y-7852380D02*
X42623809Y-7376190D01*
X42385714Y-7852380D02*
X42385714Y-6852380D01*
X42766666Y-6852380D01*
X42861904Y-6900000D01*
X42909523Y-6947619D01*
X42957142Y-7042857D01*
X42957142Y-7185714D01*
X42909523Y-7280952D01*
X42861904Y-7328571D01*
X42766666Y-7376190D01*
X42385714Y-7376190D01*
X43338095Y-6947619D02*
X43385714Y-6900000D01*
X43480952Y-6852380D01*
X43719047Y-6852380D01*
X43814285Y-6900000D01*
X43861904Y-6947619D01*
X43909523Y-7042857D01*
X43909523Y-7138095D01*
X43861904Y-7280952D01*
X43290476Y-7852380D01*
X43909523Y-7852380D01*
X44861904Y-7852380D02*
X44290476Y-7852380D01*
X44576190Y-7852380D02*
X44576190Y-6852380D01*
X44480952Y-6995238D01*
X44385714Y-7090476D01*
X44290476Y-7138095D01*
X40957142Y-5252380D02*
X40623809Y-4776190D01*
X40385714Y-5252380D02*
X40385714Y-4252380D01*
X40766666Y-4252380D01*
X40861904Y-4300000D01*
X40909523Y-4347619D01*
X40957142Y-4442857D01*
X40957142Y-4585714D01*
X40909523Y-4680952D01*
X40861904Y-4728571D01*
X40766666Y-4776190D01*
X40385714Y-4776190D01*
X41909523Y-5252380D02*
X41338095Y-5252380D01*
X41623809Y-5252380D02*
X41623809Y-4252380D01*
X41528571Y-4395238D01*
X41433333Y-4490476D01*
X41338095Y-4538095D01*
X42385714Y-5252380D02*
X42576190Y-5252380D01*
X42671428Y-5204761D01*
X42719047Y-5157142D01*
X42814285Y-5014285D01*
X42861904Y-4823809D01*
X42861904Y-4442857D01*
X42814285Y-4347619D01*
X42766666Y-4300000D01*
X42671428Y-4252380D01*
X42480952Y-4252380D01*
X42385714Y-4300000D01*
X42338095Y-4347619D01*
X42290476Y-4442857D01*
X42290476Y-4680952D01*
X42338095Y-4776190D01*
X42385714Y-4823809D01*
X42480952Y-4871428D01*
X42671428Y-4871428D01*
X42766666Y-4823809D01*
X42814285Y-4776190D01*
X42861904Y-4680952D01*
X23857142Y-5352380D02*
X23523809Y-4876190D01*
X23285714Y-5352380D02*
X23285714Y-4352380D01*
X23666666Y-4352380D01*
X23761904Y-4400000D01*
X23809523Y-4447619D01*
X23857142Y-4542857D01*
X23857142Y-4685714D01*
X23809523Y-4780952D01*
X23761904Y-4828571D01*
X23666666Y-4876190D01*
X23285714Y-4876190D01*
X24809523Y-5352380D02*
X24238095Y-5352380D01*
X24523809Y-5352380D02*
X24523809Y-4352380D01*
X24428571Y-4495238D01*
X24333333Y-4590476D01*
X24238095Y-4638095D01*
X25380952Y-4780952D02*
X25285714Y-4733333D01*
X25238095Y-4685714D01*
X25190476Y-4590476D01*
X25190476Y-4542857D01*
X25238095Y-4447619D01*
X25285714Y-4400000D01*
X25380952Y-4352380D01*
X25571428Y-4352380D01*
X25666666Y-4400000D01*
X25714285Y-4447619D01*
X25761904Y-4542857D01*
X25761904Y-4590476D01*
X25714285Y-4685714D01*
X25666666Y-4733333D01*
X25571428Y-4780952D01*
X25380952Y-4780952D01*
X25285714Y-4828571D01*
X25238095Y-4876190D01*
X25190476Y-4971428D01*
X25190476Y-5161904D01*
X25238095Y-5257142D01*
X25285714Y-5304761D01*
X25380952Y-5352380D01*
X25571428Y-5352380D01*
X25666666Y-5304761D01*
X25714285Y-5257142D01*
X25761904Y-5161904D01*
X25761904Y-4971428D01*
X25714285Y-4876190D01*
X25666666Y-4828571D01*
X25571428Y-4780952D01*
X23857142Y-6752380D02*
X23523809Y-6276190D01*
X23285714Y-6752380D02*
X23285714Y-5752380D01*
X23666666Y-5752380D01*
X23761904Y-5800000D01*
X23809523Y-5847619D01*
X23857142Y-5942857D01*
X23857142Y-6085714D01*
X23809523Y-6180952D01*
X23761904Y-6228571D01*
X23666666Y-6276190D01*
X23285714Y-6276190D01*
X24809523Y-6752380D02*
X24238095Y-6752380D01*
X24523809Y-6752380D02*
X24523809Y-5752380D01*
X24428571Y-5895238D01*
X24333333Y-5990476D01*
X24238095Y-6038095D01*
X25142857Y-5752380D02*
X25809523Y-5752380D01*
X25380952Y-6752380D01*
X34657142Y-5152380D02*
X34323809Y-4676190D01*
X34085714Y-5152380D02*
X34085714Y-4152380D01*
X34466666Y-4152380D01*
X34561904Y-4200000D01*
X34609523Y-4247619D01*
X34657142Y-4342857D01*
X34657142Y-4485714D01*
X34609523Y-4580952D01*
X34561904Y-4628571D01*
X34466666Y-4676190D01*
X34085714Y-4676190D01*
X35609523Y-5152380D02*
X35038095Y-5152380D01*
X35323809Y-5152380D02*
X35323809Y-4152380D01*
X35228571Y-4295238D01*
X35133333Y-4390476D01*
X35038095Y-4438095D01*
X36466666Y-4152380D02*
X36276190Y-4152380D01*
X36180952Y-4200000D01*
X36133333Y-4247619D01*
X36038095Y-4390476D01*
X35990476Y-4580952D01*
X35990476Y-4961904D01*
X36038095Y-5057142D01*
X36085714Y-5104761D01*
X36180952Y-5152380D01*
X36371428Y-5152380D01*
X36466666Y-5104761D01*
X36514285Y-5057142D01*
X36561904Y-4961904D01*
X36561904Y-4723809D01*
X36514285Y-4628571D01*
X36466666Y-4580952D01*
X36371428Y-4533333D01*
X36180952Y-4533333D01*
X36085714Y-4580952D01*
X36038095Y-4628571D01*
X35990476Y-4723809D01*
X46507142Y-11402380D02*
X46173809Y-10926190D01*
X45935714Y-11402380D02*
X45935714Y-10402380D01*
X46316666Y-10402380D01*
X46411904Y-10450000D01*
X46459523Y-10497619D01*
X46507142Y-10592857D01*
X46507142Y-10735714D01*
X46459523Y-10830952D01*
X46411904Y-10878571D01*
X46316666Y-10926190D01*
X45935714Y-10926190D01*
X47459523Y-11402380D02*
X46888095Y-11402380D01*
X47173809Y-11402380D02*
X47173809Y-10402380D01*
X47078571Y-10545238D01*
X46983333Y-10640476D01*
X46888095Y-10688095D01*
X48364285Y-10402380D02*
X47888095Y-10402380D01*
X47840476Y-10878571D01*
X47888095Y-10830952D01*
X47983333Y-10783333D01*
X48221428Y-10783333D01*
X48316666Y-10830952D01*
X48364285Y-10878571D01*
X48411904Y-10973809D01*
X48411904Y-11211904D01*
X48364285Y-11307142D01*
X48316666Y-11354761D01*
X48221428Y-11402380D01*
X47983333Y-11402380D01*
X47888095Y-11354761D01*
X47840476Y-11307142D01*
X19757142Y-6452380D02*
X19423809Y-5976190D01*
X19185714Y-6452380D02*
X19185714Y-5452380D01*
X19566666Y-5452380D01*
X19661904Y-5500000D01*
X19709523Y-5547619D01*
X19757142Y-5642857D01*
X19757142Y-5785714D01*
X19709523Y-5880952D01*
X19661904Y-5928571D01*
X19566666Y-5976190D01*
X19185714Y-5976190D01*
X20709523Y-6452380D02*
X20138095Y-6452380D01*
X20423809Y-6452380D02*
X20423809Y-5452380D01*
X20328571Y-5595238D01*
X20233333Y-5690476D01*
X20138095Y-5738095D01*
X21566666Y-5785714D02*
X21566666Y-6452380D01*
X21328571Y-5404761D02*
X21090476Y-6119047D01*
X21709523Y-6119047D01*
X14157142Y-4652380D02*
X13823809Y-4176190D01*
X13585714Y-4652380D02*
X13585714Y-3652380D01*
X13966666Y-3652380D01*
X14061904Y-3700000D01*
X14109523Y-3747619D01*
X14157142Y-3842857D01*
X14157142Y-3985714D01*
X14109523Y-4080952D01*
X14061904Y-4128571D01*
X13966666Y-4176190D01*
X13585714Y-4176190D01*
X15109523Y-4652380D02*
X14538095Y-4652380D01*
X14823809Y-4652380D02*
X14823809Y-3652380D01*
X14728571Y-3795238D01*
X14633333Y-3890476D01*
X14538095Y-3938095D01*
X15442857Y-3652380D02*
X16061904Y-3652380D01*
X15728571Y-4033333D01*
X15871428Y-4033333D01*
X15966666Y-4080952D01*
X16014285Y-4128571D01*
X16061904Y-4223809D01*
X16061904Y-4461904D01*
X16014285Y-4557142D01*
X15966666Y-4604761D01*
X15871428Y-4652380D01*
X15585714Y-4652380D01*
X15490476Y-4604761D01*
X15442857Y-4557142D01*
X63452380Y-18892857D02*
X62976190Y-19226190D01*
X63452380Y-19464285D02*
X62452380Y-19464285D01*
X62452380Y-19083333D01*
X62500000Y-18988095D01*
X62547619Y-18940476D01*
X62642857Y-18892857D01*
X62785714Y-18892857D01*
X62880952Y-18940476D01*
X62928571Y-18988095D01*
X62976190Y-19083333D01*
X62976190Y-19464285D01*
X63452380Y-17940476D02*
X63452380Y-18511904D01*
X63452380Y-18226190D02*
X62452380Y-18226190D01*
X62595238Y-18321428D01*
X62690476Y-18416666D01*
X62738095Y-18511904D01*
X62547619Y-17559523D02*
X62500000Y-17511904D01*
X62452380Y-17416666D01*
X62452380Y-17178571D01*
X62500000Y-17083333D01*
X62547619Y-17035714D01*
X62642857Y-16988095D01*
X62738095Y-16988095D01*
X62880952Y-17035714D01*
X63452380Y-17607142D01*
X63452380Y-16988095D01*
X59907142Y-7752380D02*
X59573809Y-7276190D01*
X59335714Y-7752380D02*
X59335714Y-6752380D01*
X59716666Y-6752380D01*
X59811904Y-6800000D01*
X59859523Y-6847619D01*
X59907142Y-6942857D01*
X59907142Y-7085714D01*
X59859523Y-7180952D01*
X59811904Y-7228571D01*
X59716666Y-7276190D01*
X59335714Y-7276190D01*
X60859523Y-7752380D02*
X60288095Y-7752380D01*
X60573809Y-7752380D02*
X60573809Y-6752380D01*
X60478571Y-6895238D01*
X60383333Y-6990476D01*
X60288095Y-7038095D01*
X61811904Y-7752380D02*
X61240476Y-7752380D01*
X61526190Y-7752380D02*
X61526190Y-6752380D01*
X61430952Y-6895238D01*
X61335714Y-6990476D01*
X61240476Y-7038095D01*
X17052380Y-12466666D02*
X16576190Y-12800000D01*
X17052380Y-13038095D02*
X16052380Y-13038095D01*
X16052380Y-12657142D01*
X16100000Y-12561904D01*
X16147619Y-12514285D01*
X16242857Y-12466666D01*
X16385714Y-12466666D01*
X16480952Y-12514285D01*
X16528571Y-12561904D01*
X16576190Y-12657142D01*
X16576190Y-13038095D01*
X17052380Y-11990476D02*
X17052380Y-11800000D01*
X17004761Y-11704761D01*
X16957142Y-11657142D01*
X16814285Y-11561904D01*
X16623809Y-11514285D01*
X16242857Y-11514285D01*
X16147619Y-11561904D01*
X16100000Y-11609523D01*
X16052380Y-11704761D01*
X16052380Y-11895238D01*
X16100000Y-11990476D01*
X16147619Y-12038095D01*
X16242857Y-12085714D01*
X16480952Y-12085714D01*
X16576190Y-12038095D01*
X16623809Y-11990476D01*
X16671428Y-11895238D01*
X16671428Y-11704761D01*
X16623809Y-11609523D01*
X16576190Y-11561904D01*
X16480952Y-11514285D01*
X29083333Y-7202380D02*
X28750000Y-6726190D01*
X28511904Y-7202380D02*
X28511904Y-6202380D01*
X28892857Y-6202380D01*
X28988095Y-6250000D01*
X29035714Y-6297619D01*
X29083333Y-6392857D01*
X29083333Y-6535714D01*
X29035714Y-6630952D01*
X28988095Y-6678571D01*
X28892857Y-6726190D01*
X28511904Y-6726190D01*
X29654761Y-6630952D02*
X29559523Y-6583333D01*
X29511904Y-6535714D01*
X29464285Y-6440476D01*
X29464285Y-6392857D01*
X29511904Y-6297619D01*
X29559523Y-6250000D01*
X29654761Y-6202380D01*
X29845238Y-6202380D01*
X29940476Y-6250000D01*
X29988095Y-6297619D01*
X30035714Y-6392857D01*
X30035714Y-6440476D01*
X29988095Y-6535714D01*
X29940476Y-6583333D01*
X29845238Y-6630952D01*
X29654761Y-6630952D01*
X29559523Y-6678571D01*
X29511904Y-6726190D01*
X29464285Y-6821428D01*
X29464285Y-7011904D01*
X29511904Y-7107142D01*
X29559523Y-7154761D01*
X29654761Y-7202380D01*
X29845238Y-7202380D01*
X29940476Y-7154761D01*
X29988095Y-7107142D01*
X30035714Y-7011904D01*
X30035714Y-6821428D01*
X29988095Y-6726190D01*
X29940476Y-6678571D01*
X29845238Y-6630952D01*
X59233333Y-13302380D02*
X58900000Y-12826190D01*
X58661904Y-13302380D02*
X58661904Y-12302380D01*
X59042857Y-12302380D01*
X59138095Y-12350000D01*
X59185714Y-12397619D01*
X59233333Y-12492857D01*
X59233333Y-12635714D01*
X59185714Y-12730952D01*
X59138095Y-12778571D01*
X59042857Y-12826190D01*
X58661904Y-12826190D01*
X60090476Y-12302380D02*
X59900000Y-12302380D01*
X59804761Y-12350000D01*
X59757142Y-12397619D01*
X59661904Y-12540476D01*
X59614285Y-12730952D01*
X59614285Y-13111904D01*
X59661904Y-13207142D01*
X59709523Y-13254761D01*
X59804761Y-13302380D01*
X59995238Y-13302380D01*
X60090476Y-13254761D01*
X60138095Y-13207142D01*
X60185714Y-13111904D01*
X60185714Y-12873809D01*
X60138095Y-12778571D01*
X60090476Y-12730952D01*
X59995238Y-12683333D01*
X59804761Y-12683333D01*
X59709523Y-12730952D01*
X59661904Y-12778571D01*
X59614285Y-12873809D01*
X16633333Y-20052380D02*
X16300000Y-19576190D01*
X16061904Y-20052380D02*
X16061904Y-19052380D01*
X16442857Y-19052380D01*
X16538095Y-19100000D01*
X16585714Y-19147619D01*
X16633333Y-19242857D01*
X16633333Y-19385714D01*
X16585714Y-19480952D01*
X16538095Y-19528571D01*
X16442857Y-19576190D01*
X16061904Y-19576190D01*
X17538095Y-19052380D02*
X17061904Y-19052380D01*
X17014285Y-19528571D01*
X17061904Y-19480952D01*
X17157142Y-19433333D01*
X17395238Y-19433333D01*
X17490476Y-19480952D01*
X17538095Y-19528571D01*
X17585714Y-19623809D01*
X17585714Y-19861904D01*
X17538095Y-19957142D01*
X17490476Y-20004761D01*
X17395238Y-20052380D01*
X17157142Y-20052380D01*
X17061904Y-20004761D01*
X17014285Y-19957142D01*
X35033333Y-8752380D02*
X34700000Y-8276190D01*
X34461904Y-8752380D02*
X34461904Y-7752380D01*
X34842857Y-7752380D01*
X34938095Y-7800000D01*
X34985714Y-7847619D01*
X35033333Y-7942857D01*
X35033333Y-8085714D01*
X34985714Y-8180952D01*
X34938095Y-8228571D01*
X34842857Y-8276190D01*
X34461904Y-8276190D01*
X35890476Y-8085714D02*
X35890476Y-8752380D01*
X35652380Y-7704761D02*
X35414285Y-8419047D01*
X36033333Y-8419047D01*
X37133333Y-8652380D02*
X36800000Y-8176190D01*
X36561904Y-8652380D02*
X36561904Y-7652380D01*
X36942857Y-7652380D01*
X37038095Y-7700000D01*
X37085714Y-7747619D01*
X37133333Y-7842857D01*
X37133333Y-7985714D01*
X37085714Y-8080952D01*
X37038095Y-8128571D01*
X36942857Y-8176190D01*
X36561904Y-8176190D01*
X37466666Y-7652380D02*
X38085714Y-7652380D01*
X37752380Y-8033333D01*
X37895238Y-8033333D01*
X37990476Y-8080952D01*
X38038095Y-8128571D01*
X38085714Y-8223809D01*
X38085714Y-8461904D01*
X38038095Y-8557142D01*
X37990476Y-8604761D01*
X37895238Y-8652380D01*
X37609523Y-8652380D01*
X37514285Y-8604761D01*
X37466666Y-8557142D01*
X6552380Y-15966666D02*
X6076190Y-16300000D01*
X6552380Y-16538095D02*
X5552380Y-16538095D01*
X5552380Y-16157142D01*
X5600000Y-16061904D01*
X5647619Y-16014285D01*
X5742857Y-15966666D01*
X5885714Y-15966666D01*
X5980952Y-16014285D01*
X6028571Y-16061904D01*
X6076190Y-16157142D01*
X6076190Y-16538095D01*
X6552380Y-15014285D02*
X6552380Y-15585714D01*
X6552380Y-15300000D02*
X5552380Y-15300000D01*
X5695238Y-15395238D01*
X5790476Y-15490476D01*
X5838095Y-15585714D01*
X23433333Y-9152380D02*
X23100000Y-8676190D01*
X22861904Y-9152380D02*
X22861904Y-8152380D01*
X23242857Y-8152380D01*
X23338095Y-8200000D01*
X23385714Y-8247619D01*
X23433333Y-8342857D01*
X23433333Y-8485714D01*
X23385714Y-8580952D01*
X23338095Y-8628571D01*
X23242857Y-8676190D01*
X22861904Y-8676190D01*
X23766666Y-8152380D02*
X24433333Y-8152380D01*
X24004761Y-9152380D01*
X21433333Y-9052380D02*
X21100000Y-8576190D01*
X20861904Y-9052380D02*
X20861904Y-8052380D01*
X21242857Y-8052380D01*
X21338095Y-8100000D01*
X21385714Y-8147619D01*
X21433333Y-8242857D01*
X21433333Y-8385714D01*
X21385714Y-8480952D01*
X21338095Y-8528571D01*
X21242857Y-8576190D01*
X20861904Y-8576190D01*
X21814285Y-8147619D02*
X21861904Y-8100000D01*
X21957142Y-8052380D01*
X22195238Y-8052380D01*
X22290476Y-8100000D01*
X22338095Y-8147619D01*
X22385714Y-8242857D01*
X22385714Y-8338095D01*
X22338095Y-8480952D01*
X21766666Y-9052380D01*
X22385714Y-9052380D01*
X27329761Y-5322619D02*
X27234523Y-5275000D01*
X27139285Y-5179761D01*
X26996428Y-5036904D01*
X26901190Y-4989285D01*
X26805952Y-4989285D01*
X26853571Y-5227380D02*
X26758333Y-5179761D01*
X26663095Y-5084523D01*
X26615476Y-4894047D01*
X26615476Y-4560714D01*
X26663095Y-4370238D01*
X26758333Y-4275000D01*
X26853571Y-4227380D01*
X27044047Y-4227380D01*
X27139285Y-4275000D01*
X27234523Y-4370238D01*
X27282142Y-4560714D01*
X27282142Y-4894047D01*
X27234523Y-5084523D01*
X27139285Y-5179761D01*
X27044047Y-5227380D01*
X26853571Y-5227380D01*
X28186904Y-4227380D02*
X27710714Y-4227380D01*
X27663095Y-4703571D01*
X27710714Y-4655952D01*
X27805952Y-4608333D01*
X28044047Y-4608333D01*
X28139285Y-4655952D01*
X28186904Y-4703571D01*
X28234523Y-4798809D01*
X28234523Y-5036904D01*
X28186904Y-5132142D01*
X28139285Y-5179761D01*
X28044047Y-5227380D01*
X27805952Y-5227380D01*
X27710714Y-5179761D01*
X27663095Y-5132142D01*
X16038095Y-17652380D02*
X16038095Y-18461904D01*
X16085714Y-18557142D01*
X16133333Y-18604761D01*
X16228571Y-18652380D01*
X16419047Y-18652380D01*
X16514285Y-18604761D01*
X16561904Y-18557142D01*
X16609523Y-18461904D01*
X16609523Y-17652380D01*
X16990476Y-17652380D02*
X17609523Y-17652380D01*
X17276190Y-18033333D01*
X17419047Y-18033333D01*
X17514285Y-18080952D01*
X17561904Y-18128571D01*
X17609523Y-18223809D01*
X17609523Y-18461904D01*
X17561904Y-18557142D01*
X17514285Y-18604761D01*
X17419047Y-18652380D01*
X17133333Y-18652380D01*
X17038095Y-18604761D01*
X16990476Y-18557142D01*
X7504761Y-24147619D02*
X7409523Y-24100000D01*
X7314285Y-24004761D01*
X7171428Y-23861904D01*
X7076190Y-23814285D01*
X6980952Y-23814285D01*
X7028571Y-24052380D02*
X6933333Y-24004761D01*
X6838095Y-23909523D01*
X6790476Y-23719047D01*
X6790476Y-23385714D01*
X6838095Y-23195238D01*
X6933333Y-23100000D01*
X7028571Y-23052380D01*
X7219047Y-23052380D01*
X7314285Y-23100000D01*
X7409523Y-23195238D01*
X7457142Y-23385714D01*
X7457142Y-23719047D01*
X7409523Y-23909523D01*
X7314285Y-24004761D01*
X7219047Y-24052380D01*
X7028571Y-24052380D01*
X8409523Y-24052380D02*
X7838095Y-24052380D01*
X8123809Y-24052380D02*
X8123809Y-23052380D01*
X8028571Y-23195238D01*
X7933333Y-23290476D01*
X7838095Y-23338095D01*
D15*
X47876666Y-3079523D02*
X47876666Y-3986666D01*
X47816190Y-4168095D01*
X47695238Y-4289047D01*
X47513809Y-4349523D01*
X47392857Y-4349523D01*
X49025714Y-3502857D02*
X49025714Y-4349523D01*
X48723333Y-3019047D02*
X48420952Y-3926190D01*
X49207142Y-3926190D01*
D14*
X56233333Y-23307142D02*
X56185714Y-23354761D01*
X56042857Y-23402380D01*
X55947619Y-23402380D01*
X55804761Y-23354761D01*
X55709523Y-23259523D01*
X55661904Y-23164285D01*
X55614285Y-22973809D01*
X55614285Y-22830952D01*
X55661904Y-22640476D01*
X55709523Y-22545238D01*
X55804761Y-22450000D01*
X55947619Y-22402380D01*
X56042857Y-22402380D01*
X56185714Y-22450000D01*
X56233333Y-22497619D01*
X56804761Y-22830952D02*
X56709523Y-22783333D01*
X56661904Y-22735714D01*
X56614285Y-22640476D01*
X56614285Y-22592857D01*
X56661904Y-22497619D01*
X56709523Y-22450000D01*
X56804761Y-22402380D01*
X56995238Y-22402380D01*
X57090476Y-22450000D01*
X57138095Y-22497619D01*
X57185714Y-22592857D01*
X57185714Y-22640476D01*
X57138095Y-22735714D01*
X57090476Y-22783333D01*
X56995238Y-22830952D01*
X56804761Y-22830952D01*
X56709523Y-22878571D01*
X56661904Y-22926190D01*
X56614285Y-23021428D01*
X56614285Y-23211904D01*
X56661904Y-23307142D01*
X56709523Y-23354761D01*
X56804761Y-23402380D01*
X56995238Y-23402380D01*
X57090476Y-23354761D01*
X57138095Y-23307142D01*
X57185714Y-23211904D01*
X57185714Y-23021428D01*
X57138095Y-22926190D01*
X57090476Y-22878571D01*
X56995238Y-22830952D01*
X30733333Y-22652380D02*
X30257142Y-22652380D01*
X30257142Y-21652380D01*
X31590476Y-22652380D02*
X31019047Y-22652380D01*
X31304761Y-22652380D02*
X31304761Y-21652380D01*
X31209523Y-21795238D01*
X31114285Y-21890476D01*
X31019047Y-21938095D01*
X71457142Y-24557142D02*
X71409523Y-24604761D01*
X71266666Y-24652380D01*
X71171428Y-24652380D01*
X71028571Y-24604761D01*
X70933333Y-24509523D01*
X70885714Y-24414285D01*
X70838095Y-24223809D01*
X70838095Y-24080952D01*
X70885714Y-23890476D01*
X70933333Y-23795238D01*
X71028571Y-23700000D01*
X71171428Y-23652380D01*
X71266666Y-23652380D01*
X71409523Y-23700000D01*
X71457142Y-23747619D01*
X72409523Y-24652380D02*
X71838095Y-24652380D01*
X72123809Y-24652380D02*
X72123809Y-23652380D01*
X72028571Y-23795238D01*
X71933333Y-23890476D01*
X71838095Y-23938095D01*
X72742857Y-23652380D02*
X73361904Y-23652380D01*
X73028571Y-24033333D01*
X73171428Y-24033333D01*
X73266666Y-24080952D01*
X73314285Y-24128571D01*
X73361904Y-24223809D01*
X73361904Y-24461904D01*
X73314285Y-24557142D01*
X73266666Y-24604761D01*
X73171428Y-24652380D01*
X72885714Y-24652380D01*
X72790476Y-24604761D01*
X72742857Y-24557142D01*
X9716666Y-4904761D02*
X9859523Y-4952380D01*
X10097619Y-4952380D01*
X10192857Y-4904761D01*
X10240476Y-4857142D01*
X10288095Y-4761904D01*
X10288095Y-4666666D01*
X10240476Y-4571428D01*
X10192857Y-4523809D01*
X10097619Y-4476190D01*
X9907142Y-4428571D01*
X9811904Y-4380952D01*
X9764285Y-4333333D01*
X9716666Y-4238095D01*
X9716666Y-4142857D01*
X9764285Y-4047619D01*
X9811904Y-4000000D01*
X9907142Y-3952380D01*
X10145238Y-3952380D01*
X10288095Y-4000000D01*
X10621428Y-3952380D02*
X10859523Y-4952380D01*
X11050000Y-4238095D01*
X11240476Y-4952380D01*
X11478571Y-3952380D01*
X12383333Y-4952380D02*
X11811904Y-4952380D01*
X12097619Y-4952380D02*
X12097619Y-3952380D01*
X12002380Y-4095238D01*
X11907142Y-4190476D01*
X11811904Y-4238095D01*
X25804761Y-9047619D02*
X25709523Y-9000000D01*
X25614285Y-8904761D01*
X25471428Y-8761904D01*
X25376190Y-8714285D01*
X25280952Y-8714285D01*
X25328571Y-8952380D02*
X25233333Y-8904761D01*
X25138095Y-8809523D01*
X25090476Y-8619047D01*
X25090476Y-8285714D01*
X25138095Y-8095238D01*
X25233333Y-8000000D01*
X25328571Y-7952380D01*
X25519047Y-7952380D01*
X25614285Y-8000000D01*
X25709523Y-8095238D01*
X25757142Y-8285714D01*
X25757142Y-8619047D01*
X25709523Y-8809523D01*
X25614285Y-8904761D01*
X25519047Y-8952380D01*
X25328571Y-8952380D01*
X26138095Y-8047619D02*
X26185714Y-8000000D01*
X26280952Y-7952380D01*
X26519047Y-7952380D01*
X26614285Y-8000000D01*
X26661904Y-8047619D01*
X26709523Y-8142857D01*
X26709523Y-8238095D01*
X26661904Y-8380952D01*
X26090476Y-8952380D01*
X26709523Y-8952380D01*
X41238095Y-17352380D02*
X41238095Y-18161904D01*
X41285714Y-18257142D01*
X41333333Y-18304761D01*
X41428571Y-18352380D01*
X41619047Y-18352380D01*
X41714285Y-18304761D01*
X41761904Y-18257142D01*
X41809523Y-18161904D01*
X41809523Y-17352380D01*
X42714285Y-17685714D02*
X42714285Y-18352380D01*
X42476190Y-17304761D02*
X42238095Y-18019047D01*
X42857142Y-18019047D01*
X37852380Y-22838095D02*
X36852380Y-22838095D01*
X36852380Y-22600000D01*
X36900000Y-22457142D01*
X36995238Y-22361904D01*
X37090476Y-22314285D01*
X37280952Y-22266666D01*
X37423809Y-22266666D01*
X37614285Y-22314285D01*
X37709523Y-22361904D01*
X37804761Y-22457142D01*
X37852380Y-22600000D01*
X37852380Y-22838095D01*
X37852380Y-21314285D02*
X37852380Y-21885714D01*
X37852380Y-21600000D02*
X36852380Y-21600000D01*
X36995238Y-21695238D01*
X37090476Y-21790476D01*
X37138095Y-21885714D01*
X66116666Y-3352380D02*
X66116666Y-4066666D01*
X66069047Y-4209523D01*
X65973809Y-4304761D01*
X65830952Y-4352380D01*
X65735714Y-4352380D01*
X66545238Y-3447619D02*
X66592857Y-3400000D01*
X66688095Y-3352380D01*
X66926190Y-3352380D01*
X67021428Y-3400000D01*
X67069047Y-3447619D01*
X67116666Y-3542857D01*
X67116666Y-3638095D01*
X67069047Y-3780952D01*
X66497619Y-4352380D01*
X67116666Y-4352380D01*
X16566666Y-20452380D02*
X16566666Y-21166666D01*
X16519047Y-21309523D01*
X16423809Y-21404761D01*
X16280952Y-21452380D01*
X16185714Y-21452380D01*
X17042857Y-21452380D02*
X17042857Y-20452380D01*
X17423809Y-20452380D01*
X17519047Y-20500000D01*
X17566666Y-20547619D01*
X17614285Y-20642857D01*
X17614285Y-20785714D01*
X17566666Y-20880952D01*
X17519047Y-20928571D01*
X17423809Y-20976190D01*
X17042857Y-20976190D01*
X18566666Y-21452380D02*
X17995238Y-21452380D01*
X18280952Y-21452380D02*
X18280952Y-20452380D01*
X18185714Y-20595238D01*
X18090476Y-20690476D01*
X17995238Y-20738095D01*
X19604761Y-10947619D02*
X19509523Y-10900000D01*
X19414285Y-10804761D01*
X19271428Y-10661904D01*
X19176190Y-10614285D01*
X19080952Y-10614285D01*
X19128571Y-10852380D02*
X19033333Y-10804761D01*
X18938095Y-10709523D01*
X18890476Y-10519047D01*
X18890476Y-10185714D01*
X18938095Y-9995238D01*
X19033333Y-9900000D01*
X19128571Y-9852380D01*
X19319047Y-9852380D01*
X19414285Y-9900000D01*
X19509523Y-9995238D01*
X19557142Y-10185714D01*
X19557142Y-10519047D01*
X19509523Y-10709523D01*
X19414285Y-10804761D01*
X19319047Y-10852380D01*
X19128571Y-10852380D01*
X19890476Y-9852380D02*
X20509523Y-9852380D01*
X20176190Y-10233333D01*
X20319047Y-10233333D01*
X20414285Y-10280952D01*
X20461904Y-10328571D01*
X20509523Y-10423809D01*
X20509523Y-10661904D01*
X20461904Y-10757142D01*
X20414285Y-10804761D01*
X20319047Y-10852380D01*
X20033333Y-10852380D01*
X19938095Y-10804761D01*
X19890476Y-10757142D01*
X59683333Y-10357142D02*
X59635714Y-10404761D01*
X59492857Y-10452380D01*
X59397619Y-10452380D01*
X59254761Y-10404761D01*
X59159523Y-10309523D01*
X59111904Y-10214285D01*
X59064285Y-10023809D01*
X59064285Y-9880952D01*
X59111904Y-9690476D01*
X59159523Y-9595238D01*
X59254761Y-9500000D01*
X59397619Y-9452380D01*
X59492857Y-9452380D01*
X59635714Y-9500000D01*
X59683333Y-9547619D01*
X60635714Y-10452380D02*
X60064285Y-10452380D01*
X60350000Y-10452380D02*
X60350000Y-9452380D01*
X60254761Y-9595238D01*
X60159523Y-9690476D01*
X60064285Y-9738095D01*
X28133333Y-8957142D02*
X28085714Y-9004761D01*
X27942857Y-9052380D01*
X27847619Y-9052380D01*
X27704761Y-9004761D01*
X27609523Y-8909523D01*
X27561904Y-8814285D01*
X27514285Y-8623809D01*
X27514285Y-8480952D01*
X27561904Y-8290476D01*
X27609523Y-8195238D01*
X27704761Y-8100000D01*
X27847619Y-8052380D01*
X27942857Y-8052380D01*
X28085714Y-8100000D01*
X28133333Y-8147619D01*
X28514285Y-8147619D02*
X28561904Y-8100000D01*
X28657142Y-8052380D01*
X28895238Y-8052380D01*
X28990476Y-8100000D01*
X29038095Y-8147619D01*
X29085714Y-8242857D01*
X29085714Y-8338095D01*
X29038095Y-8480952D01*
X28466666Y-9052380D01*
X29085714Y-9052380D01*
X46433333Y-23357142D02*
X46385714Y-23404761D01*
X46242857Y-23452380D01*
X46147619Y-23452380D01*
X46004761Y-23404761D01*
X45909523Y-23309523D01*
X45861904Y-23214285D01*
X45814285Y-23023809D01*
X45814285Y-22880952D01*
X45861904Y-22690476D01*
X45909523Y-22595238D01*
X46004761Y-22500000D01*
X46147619Y-22452380D01*
X46242857Y-22452380D01*
X46385714Y-22500000D01*
X46433333Y-22547619D01*
X46766666Y-22452380D02*
X47385714Y-22452380D01*
X47052380Y-22833333D01*
X47195238Y-22833333D01*
X47290476Y-22880952D01*
X47338095Y-22928571D01*
X47385714Y-23023809D01*
X47385714Y-23261904D01*
X47338095Y-23357142D01*
X47290476Y-23404761D01*
X47195238Y-23452380D01*
X46909523Y-23452380D01*
X46814285Y-23404761D01*
X46766666Y-23357142D01*
X46583333Y-12757142D02*
X46535714Y-12804761D01*
X46392857Y-12852380D01*
X46297619Y-12852380D01*
X46154761Y-12804761D01*
X46059523Y-12709523D01*
X46011904Y-12614285D01*
X45964285Y-12423809D01*
X45964285Y-12280952D01*
X46011904Y-12090476D01*
X46059523Y-11995238D01*
X46154761Y-11900000D01*
X46297619Y-11852380D01*
X46392857Y-11852380D01*
X46535714Y-11900000D01*
X46583333Y-11947619D01*
X47440476Y-12185714D02*
X47440476Y-12852380D01*
X47202380Y-11804761D02*
X46964285Y-12519047D01*
X47583333Y-12519047D01*
X7133333Y-19157142D02*
X7085714Y-19204761D01*
X6942857Y-19252380D01*
X6847619Y-19252380D01*
X6704761Y-19204761D01*
X6609523Y-19109523D01*
X6561904Y-19014285D01*
X6514285Y-18823809D01*
X6514285Y-18680952D01*
X6561904Y-18490476D01*
X6609523Y-18395238D01*
X6704761Y-18300000D01*
X6847619Y-18252380D01*
X6942857Y-18252380D01*
X7085714Y-18300000D01*
X7133333Y-18347619D01*
X8038095Y-18252380D02*
X7561904Y-18252380D01*
X7514285Y-18728571D01*
X7561904Y-18680952D01*
X7657142Y-18633333D01*
X7895238Y-18633333D01*
X7990476Y-18680952D01*
X8038095Y-18728571D01*
X8085714Y-18823809D01*
X8085714Y-19061904D01*
X8038095Y-19157142D01*
X7990476Y-19204761D01*
X7895238Y-19252380D01*
X7657142Y-19252380D01*
X7561904Y-19204761D01*
X7514285Y-19157142D01*
X44433333Y-23407142D02*
X44385714Y-23454761D01*
X44242857Y-23502380D01*
X44147619Y-23502380D01*
X44004761Y-23454761D01*
X43909523Y-23359523D01*
X43861904Y-23264285D01*
X43814285Y-23073809D01*
X43814285Y-22930952D01*
X43861904Y-22740476D01*
X43909523Y-22645238D01*
X44004761Y-22550000D01*
X44147619Y-22502380D01*
X44242857Y-22502380D01*
X44385714Y-22550000D01*
X44433333Y-22597619D01*
X45290476Y-22502380D02*
X45100000Y-22502380D01*
X45004761Y-22550000D01*
X44957142Y-22597619D01*
X44861904Y-22740476D01*
X44814285Y-22930952D01*
X44814285Y-23311904D01*
X44861904Y-23407142D01*
X44909523Y-23454761D01*
X45004761Y-23502380D01*
X45195238Y-23502380D01*
X45290476Y-23454761D01*
X45338095Y-23407142D01*
X45385714Y-23311904D01*
X45385714Y-23073809D01*
X45338095Y-22978571D01*
X45290476Y-22930952D01*
X45195238Y-22883333D01*
X45004761Y-22883333D01*
X44909523Y-22930952D01*
X44861904Y-22978571D01*
X44814285Y-23073809D01*
X62083333Y-23207142D02*
X62035714Y-23254761D01*
X61892857Y-23302380D01*
X61797619Y-23302380D01*
X61654761Y-23254761D01*
X61559523Y-23159523D01*
X61511904Y-23064285D01*
X61464285Y-22873809D01*
X61464285Y-22730952D01*
X61511904Y-22540476D01*
X61559523Y-22445238D01*
X61654761Y-22350000D01*
X61797619Y-22302380D01*
X61892857Y-22302380D01*
X62035714Y-22350000D01*
X62083333Y-22397619D01*
X62416666Y-22302380D02*
X63083333Y-22302380D01*
X62654761Y-23302380D01*
X33033333Y-13557142D02*
X32985714Y-13604761D01*
X32842857Y-13652380D01*
X32747619Y-13652380D01*
X32604761Y-13604761D01*
X32509523Y-13509523D01*
X32461904Y-13414285D01*
X32414285Y-13223809D01*
X32414285Y-13080952D01*
X32461904Y-12890476D01*
X32509523Y-12795238D01*
X32604761Y-12700000D01*
X32747619Y-12652380D01*
X32842857Y-12652380D01*
X32985714Y-12700000D01*
X33033333Y-12747619D01*
X33509523Y-13652380D02*
X33700000Y-13652380D01*
X33795238Y-13604761D01*
X33842857Y-13557142D01*
X33938095Y-13414285D01*
X33985714Y-13223809D01*
X33985714Y-12842857D01*
X33938095Y-12747619D01*
X33890476Y-12700000D01*
X33795238Y-12652380D01*
X33604761Y-12652380D01*
X33509523Y-12700000D01*
X33461904Y-12747619D01*
X33414285Y-12842857D01*
X33414285Y-13080952D01*
X33461904Y-13176190D01*
X33509523Y-13223809D01*
X33604761Y-13271428D01*
X33795238Y-13271428D01*
X33890476Y-13223809D01*
X33938095Y-13176190D01*
X33985714Y-13080952D01*
X41857142Y-16957142D02*
X41809523Y-17004761D01*
X41666666Y-17052380D01*
X41571428Y-17052380D01*
X41428571Y-17004761D01*
X41333333Y-16909523D01*
X41285714Y-16814285D01*
X41238095Y-16623809D01*
X41238095Y-16480952D01*
X41285714Y-16290476D01*
X41333333Y-16195238D01*
X41428571Y-16100000D01*
X41571428Y-16052380D01*
X41666666Y-16052380D01*
X41809523Y-16100000D01*
X41857142Y-16147619D01*
X42809523Y-17052380D02*
X42238095Y-17052380D01*
X42523809Y-17052380D02*
X42523809Y-16052380D01*
X42428571Y-16195238D01*
X42333333Y-16290476D01*
X42238095Y-16338095D01*
X43428571Y-16052380D02*
X43523809Y-16052380D01*
X43619047Y-16100000D01*
X43666666Y-16147619D01*
X43714285Y-16242857D01*
X43761904Y-16433333D01*
X43761904Y-16671428D01*
X43714285Y-16861904D01*
X43666666Y-16957142D01*
X43619047Y-17004761D01*
X43523809Y-17052380D01*
X43428571Y-17052380D01*
X43333333Y-17004761D01*
X43285714Y-16957142D01*
X43238095Y-16861904D01*
X43190476Y-16671428D01*
X43190476Y-16433333D01*
X43238095Y-16242857D01*
X43285714Y-16147619D01*
X43333333Y-16100000D01*
X43428571Y-16052380D01*
X38657142Y-20807142D02*
X38609523Y-20854761D01*
X38466666Y-20902380D01*
X38371428Y-20902380D01*
X38228571Y-20854761D01*
X38133333Y-20759523D01*
X38085714Y-20664285D01*
X38038095Y-20473809D01*
X38038095Y-20330952D01*
X38085714Y-20140476D01*
X38133333Y-20045238D01*
X38228571Y-19950000D01*
X38371428Y-19902380D01*
X38466666Y-19902380D01*
X38609523Y-19950000D01*
X38657142Y-19997619D01*
X39609523Y-20902380D02*
X39038095Y-20902380D01*
X39323809Y-20902380D02*
X39323809Y-19902380D01*
X39228571Y-20045238D01*
X39133333Y-20140476D01*
X39038095Y-20188095D01*
X40561904Y-20902380D02*
X39990476Y-20902380D01*
X40276190Y-20902380D02*
X40276190Y-19902380D01*
X40180952Y-20045238D01*
X40085714Y-20140476D01*
X39990476Y-20188095D01*
X69307142Y-9507142D02*
X69259523Y-9554761D01*
X69116666Y-9602380D01*
X69021428Y-9602380D01*
X68878571Y-9554761D01*
X68783333Y-9459523D01*
X68735714Y-9364285D01*
X68688095Y-9173809D01*
X68688095Y-9030952D01*
X68735714Y-8840476D01*
X68783333Y-8745238D01*
X68878571Y-8650000D01*
X69021428Y-8602380D01*
X69116666Y-8602380D01*
X69259523Y-8650000D01*
X69307142Y-8697619D01*
X70259523Y-9602380D02*
X69688095Y-9602380D01*
X69973809Y-9602380D02*
X69973809Y-8602380D01*
X69878571Y-8745238D01*
X69783333Y-8840476D01*
X69688095Y-8888095D01*
X70640476Y-8697619D02*
X70688095Y-8650000D01*
X70783333Y-8602380D01*
X71021428Y-8602380D01*
X71116666Y-8650000D01*
X71164285Y-8697619D01*
X71211904Y-8792857D01*
X71211904Y-8888095D01*
X71164285Y-9030952D01*
X70592857Y-9602380D01*
X71211904Y-9602380D01*
X69357142Y-10957142D02*
X69309523Y-11004761D01*
X69166666Y-11052380D01*
X69071428Y-11052380D01*
X68928571Y-11004761D01*
X68833333Y-10909523D01*
X68785714Y-10814285D01*
X68738095Y-10623809D01*
X68738095Y-10480952D01*
X68785714Y-10290476D01*
X68833333Y-10195238D01*
X68928571Y-10100000D01*
X69071428Y-10052380D01*
X69166666Y-10052380D01*
X69309523Y-10100000D01*
X69357142Y-10147619D01*
X70309523Y-11052380D02*
X69738095Y-11052380D01*
X70023809Y-11052380D02*
X70023809Y-10052380D01*
X69928571Y-10195238D01*
X69833333Y-10290476D01*
X69738095Y-10338095D01*
X71166666Y-10385714D02*
X71166666Y-11052380D01*
X70928571Y-10004761D02*
X70690476Y-10719047D01*
X71309523Y-10719047D01*
X58757142Y-23207142D02*
X58709523Y-23254761D01*
X58566666Y-23302380D01*
X58471428Y-23302380D01*
X58328571Y-23254761D01*
X58233333Y-23159523D01*
X58185714Y-23064285D01*
X58138095Y-22873809D01*
X58138095Y-22730952D01*
X58185714Y-22540476D01*
X58233333Y-22445238D01*
X58328571Y-22350000D01*
X58471428Y-22302380D01*
X58566666Y-22302380D01*
X58709523Y-22350000D01*
X58757142Y-22397619D01*
X59709523Y-23302380D02*
X59138095Y-23302380D01*
X59423809Y-23302380D02*
X59423809Y-22302380D01*
X59328571Y-22445238D01*
X59233333Y-22540476D01*
X59138095Y-22588095D01*
X60614285Y-22302380D02*
X60138095Y-22302380D01*
X60090476Y-22778571D01*
X60138095Y-22730952D01*
X60233333Y-22683333D01*
X60471428Y-22683333D01*
X60566666Y-22730952D01*
X60614285Y-22778571D01*
X60661904Y-22873809D01*
X60661904Y-23111904D01*
X60614285Y-23207142D01*
X60566666Y-23254761D01*
X60471428Y-23302380D01*
X60233333Y-23302380D01*
X60138095Y-23254761D01*
X60090476Y-23207142D01*
X18157142Y-5057142D02*
X18109523Y-5104761D01*
X17966666Y-5152380D01*
X17871428Y-5152380D01*
X17728571Y-5104761D01*
X17633333Y-5009523D01*
X17585714Y-4914285D01*
X17538095Y-4723809D01*
X17538095Y-4580952D01*
X17585714Y-4390476D01*
X17633333Y-4295238D01*
X17728571Y-4200000D01*
X17871428Y-4152380D01*
X17966666Y-4152380D01*
X18109523Y-4200000D01*
X18157142Y-4247619D01*
X19109523Y-5152380D02*
X18538095Y-5152380D01*
X18823809Y-5152380D02*
X18823809Y-4152380D01*
X18728571Y-4295238D01*
X18633333Y-4390476D01*
X18538095Y-4438095D01*
X19966666Y-4152380D02*
X19776190Y-4152380D01*
X19680952Y-4200000D01*
X19633333Y-4247619D01*
X19538095Y-4390476D01*
X19490476Y-4580952D01*
X19490476Y-4961904D01*
X19538095Y-5057142D01*
X19585714Y-5104761D01*
X19680952Y-5152380D01*
X19871428Y-5152380D01*
X19966666Y-5104761D01*
X20014285Y-5057142D01*
X20061904Y-4961904D01*
X20061904Y-4723809D01*
X20014285Y-4628571D01*
X19966666Y-4580952D01*
X19871428Y-4533333D01*
X19680952Y-4533333D01*
X19585714Y-4580952D01*
X19538095Y-4628571D01*
X19490476Y-4723809D01*
X12457142Y-6957142D02*
X12409523Y-7004761D01*
X12266666Y-7052380D01*
X12171428Y-7052380D01*
X12028571Y-7004761D01*
X11933333Y-6909523D01*
X11885714Y-6814285D01*
X11838095Y-6623809D01*
X11838095Y-6480952D01*
X11885714Y-6290476D01*
X11933333Y-6195238D01*
X12028571Y-6100000D01*
X12171428Y-6052380D01*
X12266666Y-6052380D01*
X12409523Y-6100000D01*
X12457142Y-6147619D01*
X13409523Y-7052380D02*
X12838095Y-7052380D01*
X13123809Y-7052380D02*
X13123809Y-6052380D01*
X13028571Y-6195238D01*
X12933333Y-6290476D01*
X12838095Y-6338095D01*
X13980952Y-6480952D02*
X13885714Y-6433333D01*
X13838095Y-6385714D01*
X13790476Y-6290476D01*
X13790476Y-6242857D01*
X13838095Y-6147619D01*
X13885714Y-6100000D01*
X13980952Y-6052380D01*
X14171428Y-6052380D01*
X14266666Y-6100000D01*
X14314285Y-6147619D01*
X14361904Y-6242857D01*
X14361904Y-6290476D01*
X14314285Y-6385714D01*
X14266666Y-6433333D01*
X14171428Y-6480952D01*
X13980952Y-6480952D01*
X13885714Y-6528571D01*
X13838095Y-6576190D01*
X13790476Y-6671428D01*
X13790476Y-6861904D01*
X13838095Y-6957142D01*
X13885714Y-7004761D01*
X13980952Y-7052380D01*
X14171428Y-7052380D01*
X14266666Y-7004761D01*
X14314285Y-6957142D01*
X14361904Y-6861904D01*
X14361904Y-6671428D01*
X14314285Y-6576190D01*
X14266666Y-6528571D01*
X14171428Y-6480952D01*
X9007142Y-6957142D02*
X8959523Y-7004761D01*
X8816666Y-7052380D01*
X8721428Y-7052380D01*
X8578571Y-7004761D01*
X8483333Y-6909523D01*
X8435714Y-6814285D01*
X8388095Y-6623809D01*
X8388095Y-6480952D01*
X8435714Y-6290476D01*
X8483333Y-6195238D01*
X8578571Y-6100000D01*
X8721428Y-6052380D01*
X8816666Y-6052380D01*
X8959523Y-6100000D01*
X9007142Y-6147619D01*
X9959523Y-7052380D02*
X9388095Y-7052380D01*
X9673809Y-7052380D02*
X9673809Y-6052380D01*
X9578571Y-6195238D01*
X9483333Y-6290476D01*
X9388095Y-6338095D01*
X10435714Y-7052380D02*
X10626190Y-7052380D01*
X10721428Y-7004761D01*
X10769047Y-6957142D01*
X10864285Y-6814285D01*
X10911904Y-6623809D01*
X10911904Y-6242857D01*
X10864285Y-6147619D01*
X10816666Y-6100000D01*
X10721428Y-6052380D01*
X10530952Y-6052380D01*
X10435714Y-6100000D01*
X10388095Y-6147619D01*
X10340476Y-6242857D01*
X10340476Y-6480952D01*
X10388095Y-6576190D01*
X10435714Y-6623809D01*
X10530952Y-6671428D01*
X10721428Y-6671428D01*
X10816666Y-6623809D01*
X10864285Y-6576190D01*
X10911904Y-6480952D01*
X41261904Y-15852380D02*
X41261904Y-14852380D01*
X41500000Y-14852380D01*
X41642857Y-14900000D01*
X41738095Y-14995238D01*
X41785714Y-15090476D01*
X41833333Y-15280952D01*
X41833333Y-15423809D01*
X41785714Y-15614285D01*
X41738095Y-15709523D01*
X41642857Y-15804761D01*
X41500000Y-15852380D01*
X41261904Y-15852380D01*
X42166666Y-14852380D02*
X42785714Y-14852380D01*
X42452380Y-15233333D01*
X42595238Y-15233333D01*
X42690476Y-15280952D01*
X42738095Y-15328571D01*
X42785714Y-15423809D01*
X42785714Y-15661904D01*
X42738095Y-15757142D01*
X42690476Y-15804761D01*
X42595238Y-15852380D01*
X42309523Y-15852380D01*
X42214285Y-15804761D01*
X42166666Y-15757142D01*
X20661904Y-5152380D02*
X20661904Y-4152380D01*
X20900000Y-4152380D01*
X21042857Y-4200000D01*
X21138095Y-4295238D01*
X21185714Y-4390476D01*
X21233333Y-4580952D01*
X21233333Y-4723809D01*
X21185714Y-4914285D01*
X21138095Y-5009523D01*
X21042857Y-5104761D01*
X20900000Y-5152380D01*
X20661904Y-5152380D01*
X22090476Y-4485714D02*
X22090476Y-5152380D01*
X21852380Y-4104761D02*
X21614285Y-4819047D01*
X22233333Y-4819047D01*
X7116666Y-11402380D02*
X7116666Y-12116666D01*
X7069047Y-12259523D01*
X6973809Y-12354761D01*
X6830952Y-12402380D01*
X6735714Y-12402380D01*
X8069047Y-11402380D02*
X7592857Y-11402380D01*
X7545238Y-11878571D01*
X7592857Y-11830952D01*
X7688095Y-11783333D01*
X7926190Y-11783333D01*
X8021428Y-11830952D01*
X8069047Y-11878571D01*
X8116666Y-11973809D01*
X8116666Y-12211904D01*
X8069047Y-12307142D01*
X8021428Y-12354761D01*
X7926190Y-12402380D01*
X7688095Y-12402380D01*
X7592857Y-12354761D01*
X7545238Y-12307142D01*
X55216666Y-4652380D02*
X55216666Y-5366666D01*
X55169047Y-5509523D01*
X55073809Y-5604761D01*
X54930952Y-5652380D01*
X54835714Y-5652380D01*
X55692857Y-5652380D02*
X55692857Y-4652380D01*
X56073809Y-4652380D01*
X56169047Y-4700000D01*
X56216666Y-4747619D01*
X56264285Y-4842857D01*
X56264285Y-4985714D01*
X56216666Y-5080952D01*
X56169047Y-5128571D01*
X56073809Y-5176190D01*
X55692857Y-5176190D01*
X56645238Y-4747619D02*
X56692857Y-4700000D01*
X56788095Y-4652380D01*
X57026190Y-4652380D01*
X57121428Y-4700000D01*
X57169047Y-4747619D01*
X57216666Y-4842857D01*
X57216666Y-4938095D01*
X57169047Y-5080952D01*
X56597619Y-5652380D01*
X57216666Y-5652380D01*
X62004761Y-13047619D02*
X61909523Y-13000000D01*
X61814285Y-12904761D01*
X61671428Y-12761904D01*
X61576190Y-12714285D01*
X61480952Y-12714285D01*
X61528571Y-12952380D02*
X61433333Y-12904761D01*
X61338095Y-12809523D01*
X61290476Y-12619047D01*
X61290476Y-12285714D01*
X61338095Y-12095238D01*
X61433333Y-12000000D01*
X61528571Y-11952380D01*
X61719047Y-11952380D01*
X61814285Y-12000000D01*
X61909523Y-12095238D01*
X61957142Y-12285714D01*
X61957142Y-12619047D01*
X61909523Y-12809523D01*
X61814285Y-12904761D01*
X61719047Y-12952380D01*
X61528571Y-12952380D01*
X62814285Y-12285714D02*
X62814285Y-12952380D01*
X62576190Y-11904761D02*
X62338095Y-12619047D01*
X62957142Y-12619047D01*
X36904761Y-6647619D02*
X36809523Y-6600000D01*
X36714285Y-6504761D01*
X36571428Y-6361904D01*
X36476190Y-6314285D01*
X36380952Y-6314285D01*
X36428571Y-6552380D02*
X36333333Y-6504761D01*
X36238095Y-6409523D01*
X36190476Y-6219047D01*
X36190476Y-5885714D01*
X36238095Y-5695238D01*
X36333333Y-5600000D01*
X36428571Y-5552380D01*
X36619047Y-5552380D01*
X36714285Y-5600000D01*
X36809523Y-5695238D01*
X36857142Y-5885714D01*
X36857142Y-6219047D01*
X36809523Y-6409523D01*
X36714285Y-6504761D01*
X36619047Y-6552380D01*
X36428571Y-6552380D01*
X37714285Y-5552380D02*
X37523809Y-5552380D01*
X37428571Y-5600000D01*
X37380952Y-5647619D01*
X37285714Y-5790476D01*
X37238095Y-5980952D01*
X37238095Y-6361904D01*
X37285714Y-6457142D01*
X37333333Y-6504761D01*
X37428571Y-6552380D01*
X37619047Y-6552380D01*
X37714285Y-6504761D01*
X37761904Y-6457142D01*
X37809523Y-6361904D01*
X37809523Y-6123809D01*
X37761904Y-6028571D01*
X37714285Y-5980952D01*
X37619047Y-5933333D01*
X37428571Y-5933333D01*
X37333333Y-5980952D01*
X37285714Y-6028571D01*
X37238095Y-6123809D01*
X53624026Y-21451522D02*
X54196446Y-22023942D01*
X54297461Y-22057614D01*
X54364805Y-22057614D01*
X54465820Y-22023942D01*
X54600507Y-21889255D01*
X54634179Y-21788240D01*
X54634179Y-21720896D01*
X54600507Y-21619881D01*
X54028087Y-21047461D01*
X55442301Y-21047461D02*
X55038240Y-21451522D01*
X55240270Y-21249492D02*
X54533164Y-20542385D01*
X54566835Y-20710744D01*
X54566835Y-20845431D01*
X54533164Y-20946446D01*
X29538095Y-7552380D02*
X29538095Y-8361904D01*
X29585714Y-8457142D01*
X29633333Y-8504761D01*
X29728571Y-8552380D01*
X29919047Y-8552380D01*
X30014285Y-8504761D01*
X30061904Y-8457142D01*
X30109523Y-8361904D01*
X30109523Y-7552380D01*
X30538095Y-7647619D02*
X30585714Y-7600000D01*
X30680952Y-7552380D01*
X30919047Y-7552380D01*
X31014285Y-7600000D01*
X31061904Y-7647619D01*
X31109523Y-7742857D01*
X31109523Y-7838095D01*
X31061904Y-7980952D01*
X30490476Y-8552380D01*
X31109523Y-8552380D01*
X76238095Y-8952380D02*
X76238095Y-9761904D01*
X76285714Y-9857142D01*
X76333333Y-9904761D01*
X76428571Y-9952380D01*
X76619047Y-9952380D01*
X76714285Y-9904761D01*
X76761904Y-9857142D01*
X76809523Y-9761904D01*
X76809523Y-8952380D01*
X77761904Y-8952380D02*
X77285714Y-8952380D01*
X77238095Y-9428571D01*
X77285714Y-9380952D01*
X77380952Y-9333333D01*
X77619047Y-9333333D01*
X77714285Y-9380952D01*
X77761904Y-9428571D01*
X77809523Y-9523809D01*
X77809523Y-9761904D01*
X77761904Y-9857142D01*
X77714285Y-9904761D01*
X77619047Y-9952380D01*
X77380952Y-9952380D01*
X77285714Y-9904761D01*
X77238095Y-9857142D01*
X71238095Y-4504380D02*
X71809523Y-4504380D01*
X71523809Y-5504380D02*
X71523809Y-4504380D01*
X72142857Y-5504380D02*
X72142857Y-4504380D01*
X72523809Y-4504380D01*
X72619047Y-4552000D01*
X72666666Y-4599619D01*
X72714285Y-4694857D01*
X72714285Y-4837714D01*
X72666666Y-4932952D01*
X72619047Y-4980571D01*
X72523809Y-5028190D01*
X72142857Y-5028190D01*
X73619047Y-4504380D02*
X73142857Y-4504380D01*
X73095238Y-4980571D01*
X73142857Y-4932952D01*
X73238095Y-4885333D01*
X73476190Y-4885333D01*
X73571428Y-4932952D01*
X73619047Y-4980571D01*
X73666666Y-5075809D01*
X73666666Y-5313904D01*
X73619047Y-5409142D01*
X73571428Y-5456761D01*
X73476190Y-5504380D01*
X73238095Y-5504380D01*
X73142857Y-5456761D01*
X73095238Y-5409142D01*
X76988095Y-14452380D02*
X77559523Y-14452380D01*
X77273809Y-15452380D02*
X77273809Y-14452380D01*
X77892857Y-15452380D02*
X77892857Y-14452380D01*
X78273809Y-14452380D01*
X78369047Y-14500000D01*
X78416666Y-14547619D01*
X78464285Y-14642857D01*
X78464285Y-14785714D01*
X78416666Y-14880952D01*
X78369047Y-14928571D01*
X78273809Y-14976190D01*
X77892857Y-14976190D01*
X79321428Y-14452380D02*
X79130952Y-14452380D01*
X79035714Y-14500000D01*
X78988095Y-14547619D01*
X78892857Y-14690476D01*
X78845238Y-14880952D01*
X78845238Y-15261904D01*
X78892857Y-15357142D01*
X78940476Y-15404761D01*
X79035714Y-15452380D01*
X79226190Y-15452380D01*
X79321428Y-15404761D01*
X79369047Y-15357142D01*
X79416666Y-15261904D01*
X79416666Y-15023809D01*
X79369047Y-14928571D01*
X79321428Y-14880952D01*
X79226190Y-14833333D01*
X79035714Y-14833333D01*
X78940476Y-14880952D01*
X78892857Y-14928571D01*
X78845238Y-15023809D01*
M02*
